<?xml version="1.0" encoding="UTF-8" standalone="no"?>
<svg
   viewBox="0 0 390 270"
   version="1.1"
   id="svg16"
   sodipodi:docname="meshlets-0.svg"
   inkscape:version="1.3.2 (091e20ef0f, 2023-11-25, custom)"
   xmlns:inkscape="http://www.inkscape.org/namespaces/inkscape"
   xmlns:sodipodi="http://sodipodi.sourceforge.net/DTD/sodipodi-0.dtd"
   xmlns="http://www.w3.org/2000/svg"
   xmlns:svg="http://www.w3.org/2000/svg">
  <defs
     id="defs16" />
  <sodipodi:namedview
     id="namedview16"
     pagecolor="#ffffff"
     bordercolor="#000000"
     borderopacity="0.25"
     inkscape:showpageshadow="2"
     inkscape:pageopacity="0.0"
     inkscape:pagecheckerboard="0"
     inkscape:deskcolor="#d1d1d1"
     inkscape:zoom="1.4142136"
     inkscape:cx="136.82516"
     inkscape:cy="245.36605"
     inkscape:window-width="1920"
     inkscape:window-height="1008"
     inkscape:window-x="0"
     inkscape:window-y="0"
     inkscape:window-maximized="1"
     inkscape:current-layer="svg16" />
  <g
     id="g26"
     style="display:inline">
    <path
       fill="#93af3f"
       stroke="#000000"
       stroke-width="0.5"
       d="m 3.32,171.17 9.83,4.21 -5.45,10.07 z m 15.34,9.88 -5.51,-5.67 11.22,-2.88 z m -5.51,-5.67 -9.83,-4.21 12.3,-6.5 z m -5.45,10.07 5.45,-10.07 5.51,5.67 z m -1.56,7.04 1.56,-7.04 9.57,12.11 z m 11.13,5.07 4.6,-9.36 3.21,4.47 z m 4.6,-9.36 -4.6,9.36 -9.57,-12.11 z m -14.17,-2.75 10.96,-4.4 3.21,7.15 z m -1.56,7.04 11.13,5.07 -8.33,10.32 z m 12.52,-11.44 14.71,3.95 -11.5,3.2 z m 0,0 5.71,-8.55 7.47,3.83 z m 3.21,7.15 11.5,-3.2 -8.29,7.67 z m 11.5,-3.2 -14.71,-3.95 13.18,-4.72 z m 0,0 -1.53,-8.67 16.29,-0.81 z m -8.29,7.67 8.29,-7.67 0.23,12.97 z m 0,0 8.52,5.3 -7.75,9.57 z m 13.12,8.47 -4.6,-3.17 9.62,-0.67 z m 5.02,-3.84 4.4,3.8 -9.42,0.04 z m 0,0 -9.85,-12.3 15.03,-0.34 z m -9.62,0.67 -0.23,-12.97 9.85,12.3 z m 12.76,13.76 -8.16,-10.59 9.42,-0.04 z m -3.14,-14.43 15.31,-3.18 -10.91,6.98 z m -18.14,-4.63 0.77,14.87 -8.58,-9.98 z m -9.46,-28 8.75,7.83 -11.22,2.88 z m 10.23,42.87 7.75,-9.57 4.6,3.17 z m 22.28,-32.02 0.27,9.14 -15.03,0.34 z m 8.09,10.63 -7.82,-1.49 -0.27,-9.14 z m 0,0 2.31,7.97 -10.13,-9.46 z m 2.31,7.97 -2.31,-7.97 6.8,5.37 z m 10.18,13.35 -10.18,-13.35 4.49,-2.6 z m -20.31,-22.81 10.13,9.46 -15.31,3.18 z m 20.31,22.81 -5.69,-15.95 13.87,4.24 z m -10.18,-13.35 -5.08,9.5 -5.83,-2.52 z m -41.06,21.03 -15.5,-1.49 6.97,-5.78 z m -8.53,-7.27 9.15,-0.96 -0.62,8.23 z m 12.23,3.26 -3.08,-4.22 7.76,0.62 z m -12.23,-3.26 8.33,-10.32 0.82,9.36 z m 12.23,3.26 -3.7,4.01 0.62,-8.23 z m -12.68,23.24 -1.72,-7.69 8.72,-2.28 z m 13.68,-7.63 -6.68,-2.34 1.98,-9.26 z m -6.68,-2.34 -8.72,2.28 -4.8,-13.03 z m -13.52,-10.75 15.5,1.49 -1.98,9.26 z m 9.48,24.3 -2.96,-3.58 7,-9.97 z m 6.02,-22.81 3.7,-4.01 1,15.61 z m 3.7,-4.01 11.44,2.48 -10.44,13.13 z m 11.44,2.48 -11.44,-2.48 4.68,-3.6 z m -10.44,13.13 10.44,-13.13 6.29,13.64 z m 10.44,-13.13 -6.76,-6.08 12.35,-6.4 z m 13.75,-1.89 -13.75,1.89 5.59,-12.48 z m -7.46,15.53 -6.29,-13.64 13.75,-1.89 z m -5.19,5.44 5.19,-5.44 2.42,5.66 z m 5.19,-5.44 -5.19,5.44 -11.54,-5.95 z m 14.77,8.09 -4.76,9.02 -7.59,-11.45 z m -11.75,-7.27 -0.6,4.84 -2.42,-5.66 z m -3.02,-0.82 7.46,-15.53 -4.44,16.35 z m -16.62,9.38 -0.11,-9.89 11.54,5.95 z m 31.39,-1.29 -12.35,-2.43 0.6,-4.84 z m -31.39,1.29 -6.79,-12.23 6.68,2.34 z m -5.01,-39.08 8.58,9.98 -7.76,-0.62 z m 19.13,50.14 -2.69,-15 7.61,0.22 z m -28.76,-1.34 3.81,-8.4 4.11,4.64 z m 3.81,-8.4 -3.81,8.4 0.85,-11.98 z m 3.59,16.92 0.52,-12.28 10.87,2.76 z m 7.24,-18.24 -6.72,5.96 -4.11,-4.64 z m -10.83,1.32 4.04,-13.55 6.79,12.23 z m -3.81,8.4 7.92,-3.76 -0.52,12.28 z m 0.42,21.41 -4.63,-12.07 10.42,8.07 z m 14.7,-8.97 -8.91,4.97 1.19,-8.89 z m -7.72,-3.92 -1.19,8.89 -10.42,-8.07 z m -11.61,0.82 4.21,-9.34 7.4,8.52 z m 23,-10.34 -10.87,-2.76 6.72,-5.96 z m 12.03,8.39 -12.03,-8.39 9.97,2.34 z m -16.18,-17.11 11.43,-3.94 -7.28,12.66 z m 20.65,30.31 -1.01,-14.61 11.03,9.24 z m 5.98,-22.58 -6.99,7.97 -5.52,-4.64 z m -12.51,3.33 -9.97,-2.34 7.28,-12.66 z m 2.06,6.05 -2.06,-6.05 5.52,4.64 z m -15.7,5.05 4.62,6.33 -13.53,-1.36 z m 4.62,6.33 -4.62,-6.33 15.7,-5.05 z m 10.68,1.37 0.4,-12.75 4.47,13.2 z m 0.4,-12.75 -0.4,12.75 -10.68,-1.37 z m 4.47,13.2 -4.47,-13.2 3.46,-1.41 z m -20.17,-8.15 3.67,-13.44 12.03,8.39 z m 19.16,-6.46 6.99,-7.97 4.05,6.79 z m -15.49,-6.98 -3.67,13.44 -7.72,-3.92 z m 14.89,-12.44 7.59,11.45 -12.51,3.33 z m 0.6,-4.84 4.44,-16.35 7.17,6.05 z m 0,0 11.61,-10.3 4.62,5.64 z m 11.61,-10.3 -0.08,-14.16 11.94,11.71 z m 18.88,5.22 -7.02,-7.67 13.29,0.24 z m -3.7,-15.53 -3.32,7.86 -11.94,-11.71 z m -10.18,-13.35 10.18,13.35 -15.26,-3.85 z m -5,23.66 11.86,-2.45 -7.24,8.09 z m 4.62,5.64 -4.48,11.93 -11.75,-7.27 z m 6.02,10.29 -6.02,-10.29 9.66,1.21 z m 0,0 3.64,-9.08 4.93,10.93 z m 3.64,-9.08 -9.66,-1.21 7.24,-8.09 z m -2.42,-9.3 7.02,7.67 -4.6,1.63 z m 7.02,7.67 0.33,12.56 -4.93,-10.93 z m -7.02,-7.67 3.32,-7.86 9.97,8.1 z m -11.72,20.02 4.48,-11.93 6.02,10.29 z m 24.18,-27.18 0.83,7.4 -9.97,-8.1 z m 5.34,7.52 -4.51,-0.12 -0.83,-7.4 z m -14.48,-8.22 8.18,-11.71 0.96,12.41 z m 14.48,8.22 -0.18,10.78 -4.33,-10.9 z M 72.74,235.56 72.41,223 l 10.6,3.47 z m 5.94,-19.99 4.33,10.9 -10.6,-3.47 z m -23.05,30.2 -2.67,5.39 -4.05,-6.79 z m 0,0 -1.96,-10.42 9.39,5.85 z m 0,0 7.43,-4.57 3.11,13.13 z m 7.43,-4.57 -9.39,-5.85 10.5,-1.64 z m 1.11,-7.49 8.57,1.85 -9.68,5.64 z m 12.89,7.71 -10.89,12.91 -3.11,-13.13 z m -24.11,20.16 0.01,-10.42 13.21,3.17 z m 0.01,-10.42 -0.01,10.42 -11.03,-9.24 z m 13.21,3.17 -0.61,7.17 -12.61,0.08 z m -13.21,-3.17 2.67,-5.39 10.54,8.56 z m 24.1,-9.74 -14,-0.22 9.68,-5.64 z m -28.15,2.95 4.76,-9.02 1.96,10.42 z m 4.62,-26.59 -7.17,-6.05 7.09,-8.11 z m -0.08,-14.16 -7.09,8.11 1.26,-10.63 z"
       id="path13" />
    <path
       fill="#43c7e9"
       stroke="#000000"
       stroke-width="0.5"
       d="M 41.83,101.31 52.72,115.94 37.56,108.7 Z M 11.35,96.63 27.04,93 18.87,105.75 Z M 37.56,108.7 27.04,93 l 14.79,8.31 z m -36.36,-3.37 12.95,7.03 -5.64,1.69 z m 0,0 10.15,-8.7 2.8,15.73 z m 12.95,7.03 4.72,-6.61 4.89,5.81 z M 21.88,106 18.87,105.75 27.04,93 Z m -10.53,-9.37 7.52,9.12 -4.72,6.61 z m 3.67,32.23 -0.87,-16.5 8.13,12.86 z m -13.79,3.91 1.5,-8.39 12.29,4.48 z m 7.28,-18.72 6.51,14.81 -12.29,-4.48 z m 6.51,14.81 -6.51,-14.81 5.64,-1.69 z m 2.14,6.46 -15.93,-2.55 13.79,-3.91 z m 6.6,-23.76 -4.89,-5.81 3.01,0.25 z m -1.48,13.66 1.48,-13.66 11.8,0.81 z m 13.28,-12.85 -11.8,-0.81 13.8,-2.86 z m 2,-3.67 4.03,9.23 -6.03,-5.56 z m 4.03,9.23 -4.03,-9.23 15.16,7.24 z m -17.83,-6.37 -1.88,-5.56 15.68,2.7 z m 14.18,17.23 -2.38,-16.42 6.03,5.56 z m -15.66,-3.57 0.07,7.96 -7.33,-4.32 z m 0.07,7.96 -0.07,-7.96 15.66,3.57 z m 21.38,2.74 -7.1,-0.85 1.31,-6.28 z m -5.79,-7.13 -1.31,6.28 -14.28,-1.89 z m 0,0 -15.66,-3.57 13.28,-12.85 z m 9.36,-1.16 -3.57,8.29 -5.79,-7.13 z m -5.71,-9.7 5.71,9.7 -9.36,1.16 z m -24.43,17.39 -2.14,-6.46 7.33,4.32 z m 24.43,-17.39 11.13,-1.99 -5.42,11.69 z m -17.83,-6.37 -1.48,13.66 -8.13,-12.86 z M 21.88,106 27.04,93 37.56,108.7 Z m 4.81,38.64 -4.34,-11.46 14.28,1.89 z m 32.15,-19.3 9.44,-4.09 3.11,10.32 z m 9.44,-4.09 -9.44,4.09 -6.12,-9.4 z m -20.98,6.38 11.54,-2.29 -2.33,10.95 z m 5.42,-11.69 6.12,9.4 -11.54,2.29 z m 38.31,27.28 -5.22,-8.95 8.21,-1.64 z m -19.64,-11.65 -7.86,6.65 -4.69,-12.88 z m 14.42,2.7 -3.87,9.09 -10.55,-11.79 z m -70.7,24.35 -12.25,-5.77 1.64,-7.88 z m 2.05,-23.3 0.72,7.54 -13.38,2.11 z m 6.42,19.47 -5.7,-11.93 8.81,1.78 z M 4.5,144.97 1.23,132.77 17.16,135.32 Z M 15.11,158.62 4.5,144.97 17.88,142.86 Z m -12.25,-5.77 12.25,5.77 -12.36,6.06 z m 12.76,11.82 -0.51,-6.05 6.08,5.47 z m 5.57,-0.58 2.39,-9.3 9.07,1.6 z m 2.39,-9.3 -2.39,9.3 -6.08,-5.47 z m -8.47,3.83 2.77,-15.76 5.7,11.93 z m 9.26,13.88 -8.75,-7.83 5.57,-0.58 z m -7.21,-37.18 5.19,-2.14 -4.47,9.68 z m -14.41,29.36 12.36,-6.06 0.51,6.05 z m 29.9,-8.29 -5.96,-11.75 7.33,-0.86 z m -10.3,-23.21 4.34,11.46 -8.81,-1.78 z m 21.38,2.74 3.53,8.1 -13.24,-0.24 z m 3.53,8.1 -3.53,-8.1 12.78,0.37 z m -13.24,-0.24 -7.33,0.86 9.94,-9.57 z m 11.55,9.01 -11.55,-9.01 13.24,0.24 z m -11.11,9.76 -13.27,1.54 11.46,-7.7 z m 0,0 -1.81,-6.16 9,6.74 z m -2.62,13.78 9.81,-13.2 6.48,12.39 z m 13.73,-23.54 -3.92,10.34 -9,-6.74 z m -12.92,3.6 1.37,-12.61 11.55,9.01 z m -11.46,7.7 13.27,-1.54 -10.09,9.95 z m 20.46,-0.96 3.92,-10.34 6.08,10.46 z m -9,-6.74 -9.07,-1.6 3.11,-10.15 z m 11.08,-20.47 -9.71,7.86 2.61,-8.71 z m -2.08,27.21 -9.81,13.2 2.62,-13.78 z m -38.9,1.55 12.87,-0.01 -12.3,6.5 z m 21.62,7.82 10.09,-9.95 -2.62,13.78 z m 21.2,-19.71 1.69,-8.77 5.81,1.31 z m 7.5,-7.46 3.44,-9.04 7.02,1.93 z m 3.44,-9.04 -3.44,9.04 -5.81,-1.31 z m 7.02,1.93 3.9,10.04 -14.36,-2.93 z m 3.9,10.04 -3.9,-10.04 11.56,9.8 z m 23.6,-5.04 -9.09,0.14 3.87,-9.09 z m -37.96,2.11 14.36,2.93 -13.97,4.71 z m -1.42,17.92 1.81,-10.28 13.06,9.46 z m 0,0 -6.08,-10.46 7.89,0.18 z m 14.87,-0.82 1.21,-5.46 4.55,0.16 z m 1.21,-5.46 -1.21,5.46 -13.06,-9.46 z m -14.27,-4 13.97,-4.71 0.3,8.71 z m 11,19.29 -12.81,-9.01 14.87,-0.82 z m 2.97,-24 4.85,8.87 -4.55,-0.16 z m -15.78,14.99 -3.52,12.27 -6.48,-12.39 z m 23.44,-15.23 6.85,-4.66 1.05,13.64 z m 0,0 -11.56,-9.8 7.86,-6.65 z m 7.9,8.98 8.04,-13.78 4.76,14.83 z M 91.03,143.22 82.99,157 81.94,143.36 Z m -19.64,-11.65 10.55,11.79 -6.85,4.66 z m 3.7,16.45 7.9,8.98 -10.71,0.13 z m -2.81,9.11 5.78,6.36 -11.54,-1.06 z m 0,0 10.71,-0.13 -4.93,6.49 z m 5.78,6.36 2.97,-0.97 3.48,8.65 z m 0,0 4.93,-6.49 -1.96,5.52 z m 4.93,-6.49 12.8,1.05 -14.76,4.47 z m 14.65,8.09 -16.61,-2.57 14.76,-4.47 z m -6.61,-21.87 15.22,-2.06 -10.46,16.89 z m -15.94,4.8 -2.81,9.11 -4.85,-8.87 z m -18.58,-11.73 2.33,-10.95 4.69,12.88 z m 7.95,35.97 2.06,-9.83 11.54,1.06 z m -8.24,13.89 -8.09,-10.63 10.74,-0.94 z m 2.65,-11.57 -10.74,0.94 3.52,-12.27 z m 5.59,-2.32 -5.59,2.32 -7.22,-11.33 z m 2.26,14.08 -7.85,-11.76 5.59,-2.32 z m -3.7,5.18 3.7,-5.18 7.25,0.27 z m 3.7,-5.18 -3.7,5.18 -6.8,-5.37 z m -10.5,-0.19 2.65,-11.57 7.85,11.76 z m 8.24,-13.89 12.08,5.53 -9.82,8.55 z m 12.08,5.53 7.97,-6.62 1.51,14.68 z m 0,0 -12.08,-5.53 13.6,-8.77 z m 7.97,-6.62 14.39,3.52 -12.88,11.16 z m -6.45,-7.68 6.45,7.68 -7.97,6.62 z m -1.52,14.3 9.48,8.06 -12.05,0.76 z m -2.57,8.82 2.92,9.15 -13.87,-4.24 z m 0,0 12.05,-0.76 -9.13,9.91 z m 24.93,-11.92 -14.39,-3.52 13.13,-6.08 z m -22.36,3.1 -2.57,8.82 -7.25,-0.27 z m 21.1,-12.7 -13.13,6.08 -3.48,-8.65 z m -1.85,-7.04 9.27,0.52 -7.42,6.52 z m -50.22,-5.26 7.5,-7.46 0.39,7.64 z m 1.73,-25.16 9.21,8.66 -12.78,-0.37 z m 58.95,13.53 -15.22,2.06 2.99,-10.59 z m 0.27,23.06 -7.62,10.47 -1.26,-9.6 z m 0,0 -8.88,0.87 7.42,-6.52 z m -1.46,-5.65 -9.27,-0.52 10.46,-16.89 z"
       id="path14" />
    <path
       fill="#a6da76"
       stroke="#000000"
       stroke-width="0.5"
       d="m 153.27,158.13 -9.67,5.49 -1.41,-5.3 z m -19.11,8.53 8.03,-8.34 1.41,5.3 z m 3.9,4.54 -3.9,-4.54 9.44,-3.04 z m 6.78,17.1 -9.64,-6.58 6.35,-2.88 z m -6.78,-17.1 3.49,7.64 -6.35,2.88 z m 0,0 5.54,-7.58 -2.05,15.22 z m 5.54,-7.58 12.18,4.3 -14.23,10.92 z m 1.41,-18.41 12.77,1.47 -4.51,11.45 z m 10.77,22.71 -12.18,-4.3 9.67,-5.49 z m 0,0 -2.51,-9.79 10.95,10.36 z m 17.99,-9.35 -9.55,9.92 1.31,-14.54 z m -8.24,-4.62 -1.31,14.54 -10.95,-10.36 z m -12.26,4.18 4.51,-11.45 7.75,7.27 z m 2.51,9.79 8.44,0.57 -6.08,5.91 z m 0,0 2.36,6.48 -16.59,4.44 z m 17.99,-9.35 4.99,3.26 -14.54,6.66 z m 4.99,3.26 -4.99,-3.26 8.79,-3.08 z m 0,0 3.8,-6.34 3.23,13.19 z m -14.54,6.66 14.54,-6.66 -3.34,12.53 z m 28.79,-1.33 -7.22,1.52 -3.23,-13.19 z m -48.17,21.14 11.56,-2.94 -7.98,13.4 z m 0,0 -3.29,-9.46 14.85,6.52 z m 13.3,-13.9 10.02,1.96 -11.76,9 z m 0,0 6.08,-5.91 3.94,7.87 z m 0,0 -1.74,10.96 -14.85,-6.52 z m -1.74,10.96 11.76,-9 0.03,12.04 z m 0.41,22.15 -8.39,-8.75 10.14,-1.37 z m -8.39,-8.75 7.98,-13.4 2.16,12.03 z m 19.35,-4.69 0.42,-5.67 4.93,4.83 z m 0.42,-5.67 -0.42,5.67 -9.21,3.32 z m -11.79,-3.04 11.79,3.04 -9.63,8.99 z m 8.31,22.01 -6.15,-9.98 9.21,-3.32 z m 3.45,-31.01 8.21,5.59 -8.18,6.45 z m 8.21,5.59 -3.25,11.28 -4.93,-4.83 z m 0,0 -0.95,-7.59 9.84,1.51 z m 9.42,-13.27 7.22,-1.52 -7.75,8.71 z m 0,0 -0.53,7.19 -9.84,-1.51 z m -21.57,-0.19 11.2,5.87 -7.26,2 z m 12.15,13.46 8.89,-6.08 -3.07,8.44 z m -3.25,11.28 9.07,-8.92 1.05,12.25 z m 9.07,-8.92 -9.07,8.92 3.25,-11.28 z m 1.05,12.25 8.38,-9.76 0.21,6.74 z m 8.38,-9.76 -8.38,9.76 -1.05,-12.25 z m 16.69,5.34 -15.16,9.26 -1.32,-7.86 z m -25.07,4.42 8.59,-3.02 1.32,7.86 z m -1.05,-12.25 3.07,-8.44 6.36,10.93 z m -14.42,9.76 5.35,-0.84 1.72,14.12 z m 17.49,-18.2 11.19,-4.54 -4.83,15.47 z m -8.89,6.08 -8.21,-5.59 7.26,-2 z m 2.39,-20.12 7.03,6.85 -10.37,5.68 z m -5.64,31.4 10.12,3.33 -0.1,6.16 z m 35.19,-1.09 -16.48,1.4 -0.21,-6.74 z m -55.04,-34.01 -11.08,0.19 2.82,-13.11 z m -22,45.94 5.59,9.44 -10.76,3.45 z m 5.59,9.44 -5.59,-9.44 16.26,4.33 z m -10.76,3.45 10.76,-3.45 -4.82,13.85 z m 0.2,17.16 5.74,-6.76 5.42,10.49 z m 10.56,-20.61 5.22,11.68 -10.04,2.17 z m 0.6,24.34 -5.42,-10.49 10.04,-2.17 z m -0.6,-24.34 11.52,3.9 -6.3,7.78 z m -3.43,30.89 4.03,-6.55 9.81,8.77 z m 12.17,-5.46 1.67,7.68 -9.81,-8.77 z m 1.67,7.68 -1.67,-7.68 9.3,5.29 z m -9.81,-8.77 4.62,-12.66 3.52,13.75 z m -4.03,6.55 13.84,2.22 -0.3,7.27 z m 13.84,2.22 7.63,-2.39 -7.93,9.66 z m -13.84,-2.22 -7.13,-10.28 11.16,3.73 z m 8.65,-19.21 10.53,1.78 -7.01,11.97 z m 5.45,-16.79 9.28,-0.89 2.18,5.54 z m -16.26,-4.33 17.15,-5.31 -0.89,9.64 z m 27.72,8.98 5.72,-5.68 -0.73,9.62 z m 5.72,-5.68 -5.72,5.68 -2.18,-5.54 z m -6.15,-9.98 6.15,9.98 -7.9,0.14 z m -11.03,11.01 11.46,4.65 -10.61,4.36 z m -1.93,30.54 7.01,-11.97 4.55,8.14 z m 2.78,-21.53 10.61,-4.36 -6.38,13.92 z m 15.6,-0.42 0.87,6.7 -12.24,3.28 z m 12.43,4.71 -11.56,1.99 -0.87,-6.7 z m -17.42,-8.65 4.99,3.94 -11.37,9.98 z m 5.66,18.88 -12.04,-4.96 12.24,-3.28 z m -0.67,-14.94 0.73,-9.62 10.13,-0.02 z m -11.37,9.98 -10.53,-1.78 6.3,-7.78 z m 31.33,-12.21 -9.1,-7.41 8.3,-4.63 z m -9.1,-7.41 -10.13,0.02 3.06,-13.3 z m 18.31,-5.95 -1.9,10.71 -8.11,-9.39 z m -20.03,-8.17 10.02,9.49 -8.3,4.63 z m 10.82,21.53 -0.8,-12.04 8.11,9.39 z m -7.53,6.94 1.45,-4.41 5.85,8.56 z m 0,0 -12.43,-4.71 13.88,0.3 z m 7.3,4.15 0.23,-11.09 7.31,-2.65 z m 0.23,-11.09 -0.23,11.09 -5.85,-8.56 z m -6.08,2.53 -3.02,-9.94 9.1,7.41 z m -13.01,6.4 11.56,-1.99 -11.76,10.23 z m 13.01,-6.4 -13.88,-0.3 10.86,-9.64 z m -21.05,-9.78 -9.28,0.89 0.89,-9.64 z m 26.9,18.34 -9.59,10.5 2.29,-14.65 z m -28.81,18.38 2.26,-9.12 6.68,9.21 z m 0,0 3.16,13.14 -11.09,-3.48 z m 8.18,23.63 -1.93,-15.48 16.68,9.47 z m 0.76,-23.54 -2.69,8.06 -6.25,-8.15 z m -6.68,-9.21 7.49,-3.18 -0.81,12.39 z m -2.26,9.12 6.25,8.15 -3.09,4.99 z m 3.16,13.14 5.02,10.49 -7.4,-6.54 z m 5.02,10.49 -5.02,-10.49 3.09,-4.99 z m -5.02,-10.49 -2.38,3.95 -8.71,-7.43 z m 3.09,-4.99 2.69,-8.06 9.51,0.74 z m -15.55,-13.44 11.56,-3.83 -2.26,9.12 z m 32.64,12.99 -17.09,0.45 12.2,-7.32 z m -14.4,-7.61 10.28,-7.97 -0.77,8.71 z m 10.28,-7.97 8.33,1.69 -9.1,7.02 z m 0,0 -9.47,-4.42 11.76,-10.23 z m 9.59,-10.5 -1.26,12.19 -8.33,-1.69 z m -10.36,19.21 9.1,-7.02 4.1,7.24 z m 4.48,16.79 -16.68,-9.47 17.09,-0.45 z m 0.41,-9.92 -4.89,-6.87 13.2,0.22 z m -14.4,-7.61 0.81,-12.39 9.47,4.42 z m -6.68,-9.21 -4.55,-8.14 12.04,4.96 z m -8.78,-17.7 -11.52,-3.9 10.67,-5.11 z m 34.86,-20.85 9.91,4.84 -10.01,1.32 z m 9.77,-29.4 3.44,4.17 -11.19,4.54 z m 8.23,6.31 5.22,8.78 -14.84,4.55 z m 0,0 -4.79,-2.14 10.34,-4.85 z m -8.23,-6.31 13.78,-0.68 -10.34,4.85 z m -1.39,19.64 14.84,-4.55 1.85,9.89 z m 9.62,-13.33 -9.62,13.33 4.83,-15.47 z"
       id="path15" />
    <path
       fill="#a586ec"
       stroke="#000000"
       stroke-width="0.5"
       d="m 97.68,184.27 -10,8.38 -1.66,-6.8 z m -10,8.38 9.28,6.25 -3.52,3.46 z m 10,-8.38 -0.72,14.63 -9.28,-6.25 z m -1.72,30.98 -2.52,-12.89 8.16,5.29 z m -19.07,-19.49 10.79,-3.11 -4.4,12.69 z m 9.13,-9.91 1.66,6.8 -10.79,3.11 z m 1.66,6.8 5.76,9.71 -10.16,2.98 z m -4.49,23.04 -5.34,-7.52 5.43,-2.83 z m 12.77,-0.44 -12.68,-9.91 10.16,-2.98 z m -12.77,0.44 0.09,-10.35 12.68,9.91 z m -0.18,10.78 0.18,-10.78 10.69,5.34 z m 10.87,-5.44 0.23,13.38 -11.1,-7.94 z m 11.21,5.86 -10.98,7.52 -0.23,-13.38 z m -21.9,-11.2 12.77,-0.44 -2.08,5.78 z m 11.05,32.2 -0.13,-13.48 8.24,1.81 z m -10.96,-42.55 -5.43,2.83 -0.96,-12.41 z m 4.05,32.13 -4.32,-11 11.1,7.94 z m -10.88,19.27 -10.89,4.76 0.61,-7.17 z m 0.61,-15.32 10.27,-3.95 1.46,7.89 z m 10.27,-3.95 -10.27,3.95 -4.32,-5.86 z m -10.27,3.95 11.73,3.94 -12.34,11.38 z m 11.73,3.94 -1.46,-7.89 6.78,-3.06 z m 5.32,-10.95 0.13,13.48 -5.45,-2.53 z m -9.18,23.44 3.86,-12.49 5.45,2.53 z m -11.15,7.27 2.67,-8.38 8.48,1.11 z m 0,0 -8.22,-3.62 10.89,-4.76 z m 11.15,-7.27 10.75,-0.98 -8.53,8.69 z m 0,0 -8.48,-1.11 12.34,-11.38 z m 2.22,7.71 8.53,-8.69 2.5,10.12 z m -2.22,-7.71 2.22,7.71 -13.37,-0.44 z m 9.31,-9.96 1.44,8.98 -10.75,0.98 z m 1.44,8.98 -1.44,-8.98 8.92,7.99 z m -19.23,-0.13 -10.28,-2.41 10.89,-12.91 z m -3.71,-21.18 10.27,-9.09 4.32,11 z m 23.22,-20.31 9.13,11.64 -11.21,-5.86 z m 5.64,-7.6 -8.16,-5.29 3.52,-3.46 z m 11.32,-50.9 0.97,-9.74 8.15,7.69 z m -6.67,-15.59 7.64,5.85 -8.83,11.56 z m 0.27,23.06 -1.46,-5.65 7.86,-1.82 z m 6.4,-7.47 3.83,6.69 -10.23,0.78 z m 9.12,-2.05 -5.29,8.74 -3.83,-6.69 z m -16.98,3.87 8.83,-11.56 -0.97,9.74 z m 6.79,15.61 -5.33,-9.96 10.23,-0.78 z m 4.9,-10.74 5.29,-8.74 5.68,13.55 z m -14.08,19.22 -3.77,-7.97 7.61,1.15 z m -3.77,-7.97 7.62,-10.47 -0.01,11.62 z m 12.95,-0.51 3.09,7.62 -8.43,-5.96 z m 3.09,7.62 -3.09,-7.62 9.43,-2.69 z m -3.09,-7.62 -5.34,1.66 0.01,-11.62 z m -9.18,8.48 3.84,-6.82 8.43,5.96 z m -4.99,1.61 4.99,-1.61 5.42,10.49 z m 4.99,-1.61 -4.99,1.61 1.22,-9.58 z m 13.11,25.45 -7.69,-14.96 4.4,-1.71 z m -3.29,-16.67 -4.4,1.71 -5.42,-10.49 z m -9.82,-8.78 12.27,-0.86 -2.45,9.64 z m 5.42,10.49 -6.49,14.5 -4.64,-8.75 z m 6.85,-11.35 8.25,10.14 -10.7,-0.5 z m -16.04,-7.11 -1.22,9.58 -11.66,1.58 z m 28.82,6.65 -6.44,-9.85 6.44,-3.24 z m -6.44,-9.85 -9.43,2.69 4.9,-10.74 z m 12.88,-4.83 3.9,4.54 -10.34,-2.95 z m -6.44,1.59 -6.44,3.24 -4.53,-8.05 z m 0,13.09 v -13.09 l 10.34,2.95 z m -4.53,10.6 4.53,-10.6 9.68,10.35 z m 0,0 -8.25,-10.14 12.78,-0.46 z m 14.21,-0.25 -2.2,-9.97 9.64,6.58 z m -2.2,-9.97 -7.48,-0.38 10.34,-10.14 z m 0,0 2.2,9.97 -9.68,-10.35 z m -12.01,10.22 -1.46,9.28 -9.24,-9.78 z m 4.53,-10.6 -12.78,0.46 6.34,-10.31 z m -5.68,-26.64 12.12,11.96 -6.44,1.59 z m 15.36,36.99 -6.13,12.38 -8.08,-12.13 z m 7.44,-3.39 3.58,10.46 -11.02,-7.07 z m 3.58,10.46 -17.15,5.31 6.13,-12.38 z m -43.23,15.19 -0.1,12.94 -9.13,-11.64 z m 0,0 -3.59,-6.3 11.13,3.63 z m 11.44,13.57 -3.9,-16.24 13.37,5.68 z m -0.85,-19.41 -3.05,3.17 -11.13,-3.63 z m -7.69,-14.96 7.69,14.96 -14.18,-0.46 z m -2.9,20.8 7.54,-2.67 3.9,16.24 z m -2.84,22.27 2.74,-9.33 13.62,9.02 z m 0,0 -8.24,-1.81 10.98,-7.52 z m 14.28,-8.7 2.08,8.39 -13.62,-9.02 z m 9.86,0.24 -7.78,8.15 -2.08,-8.39 z m -21.4,-0.87 0.1,-12.94 11.44,13.57 z m -2.74,9.33 16.36,-0.31 -4.97,11.79 z m 23.75,-19.26 -13.37,-5.68 3.05,-3.17 z m -31.86,30.93 8.11,-11.67 4.36,11.3 z m 31.86,-30.93 0.39,10.8 -9.86,-0.24 z m 0,0 -4.37,-15.74 9.54,2.85 z m -2.91,-25.02 8.08,12.13 -9.54,-2.85 z m 3.11,42.18 0.19,-6.36 5.55,-0.4 z m 0,0 -7.59,1.79 7.78,-8.15 z m 5.74,-6.76 -5.55,0.4 -0.39,-10.8 z m -16.26,-19.25 5.95,-6.89 4.37,15.74 z m -3.29,-16.67 9.24,9.78 -5.95,6.89 z m 6.22,44.47 7.59,-1.79 -0.25,14.64 z m -15.55,19.97 3.55,-8.36 5.23,9.02 z m -7.48,0.99 7.48,-0.99 -0.3,9.61 z m 25.8,11.61 -9.54,-11.94 14.19,-3.6 z m -7.74,-20.78 -1.8,8.84 -5.23,-9.02 z m -11.39,-11.48 11.39,11.48 -7.03,-0.18 z m 0.81,19.66 8.78,0.66 -0.18,7.66 z m -4.98,11.11 -2.5,-10.12 7.18,8.62 z m 23.3,1.49 -9.72,-4.28 0.18,-7.66 z m -18.62,-2.99 0.3,-9.61 8.6,8.32 z m 9.08,-8.95 1.8,-8.84 12.39,5.24 z m -17.7,-8.65 12.47,-0.37 -3.55,8.36 z m 39.19,-3.49 -7.38,4.36 0.25,-14.64 z m -7.38,4.36 0.08,4.18 -12.39,-5.24 z m 0.08,4.18 -0.08,-4.18 6.91,6.7 z m 6.83,2.52 14.01,-1.57 -13.33,9.82 z m 0,0 -6.91,-6.7 7.38,-4.36 z m 0.68,8.25 13.33,-9.82 1.57,12.26 z m -0.68,-8.25 0.68,8.25 -7.51,-10.77 z m 0.47,-11.06 13.54,9.49 -14.01,1.57 z m -7.3,8.54 7.51,10.77 -12.16,4.77 z m -0.08,-4.18 -12.31,-1.06 4.97,-11.79 z m -20.86,-34.81 -9.23,1.3 5.64,-7.6 z m 41.78,39.94 8.71,7.43 -7.14,4.83 z m -50.01,-54.99 0.72,-14.63 10.41,8.88 z"
       id="path16" />
  </g>
  <g
     id="g25"
     style="display:inline">
    <path
       fill="#eec393"
       stroke="#000000"
       stroke-width="0.5"
       d="m 204.79,124.23 7.1,-12.11 3.17,11.73 z m 19.98,-9.29 -9.71,8.91 -3.17,-11.73 z m 0,0 7.18,1.21 -4.76,10.64 z m -11.6,23.93 -8.38,-14.64 10.27,-0.38 z m 9.38,-4.35 -7.49,-10.67 12.13,2.94 z m 4.64,-7.73 6.91,-1.31 2.03,9.35 z m 0,0 -12.13,-2.94 9.71,-8.91 z m 6.91,-1.31 -2.15,-9.33 15.02,7.91 z m -6.91,1.31 8.94,8.04 -13.58,-0.31 z m 4.76,-10.64 2.15,9.33 -6.91,1.31 z m -9.4,18.37 13.58,0.31 -10.79,10.74 z m 11.55,-9.04 12.87,-1.42 -10.84,10.77 z m -20.93,13.39 1.89,-15.02 7.49,10.67 z m 33.29,-3.14 0.51,-11.67 7.89,1.85 z m 28.94,-0.14 -7.15,-0.82 4.87,-6.02 z m 7.63,-0.17 10.45,-9.58 -2.11,8.82 z m 19.19,3.5 -10.85,-4.26 2.11,-8.82 z m -21.15,8.2 1.96,-11.7 8.34,-0.76 z m -27.93,-11.01 1.72,-10.2 13.39,8.86 z m -6.17,-12.05 -0.51,11.67 -10.33,-0.9 z m 36.06,11.36 -7.63,0.17 -2.28,-6.84 z m -76.79,9.93 6.93,-6.48 5.1,7.37 z m 0.55,21.13 -13.78,0.68 12.35,-9.41 z m -13.15,-14.36 12.6,-6.77 -0.88,12.4 z m 23.78,5.44 0.85,-11.32 7.07,-0.67 z m 0,0 -12.06,0.19 0.88,-12.4 z m 0.85,-11.32 -0.85,11.32 -11.18,-12.21 z m -5.31,21.23 -7.6,-9.72 12.06,-0.19 z m 9.59,-32.95 -4.28,11.72 -5.1,-7.37 z m 2.79,11.05 13.48,-2.66 2.77,10.02 z m -7.07,0.67 4.28,-11.72 2.79,11.05 z m 23.32,6.69 0.44,-7.62 14.34,3.06 z m 0.44,-7.62 -0.44,7.62 -2.77,-10.02 z m -3.21,-2.4 7.64,-7.18 -4.43,9.58 z m -13.48,2.66 16.25,7.36 -10.49,5.71 z m -3.14,18.44 6.21,-6.29 5.09,5.5 z m 0,0 -4.78,-6.45 10.99,0.16 z m 8.9,-5.37 2.4,4.58 -5.09,-5.5 z m 2.4,4.58 -2.4,-4.58 10.49,-5.71 z m -5.09,-5.5 -3.07,-12.15 5.76,13.07 z m -6.21,6.29 11.3,-0.79 -11.63,7.99 z m 11.3,-0.79 10.55,0.07 -9.73,12.47 z m -5.09,-5.5 -10.99,-0.16 7.92,-11.99 z m 10.41,-14.81 -13.48,2.66 10.79,-10.74 z m -25.86,24.56 4.46,-9.91 4.78,6.45 z m -11.72,6 5.55,-6.99 6.13,9.02 z m 11.72,-6 -6.17,-0.99 -1.43,-8.73 z m -0.04,8.03 -6.13,-9.02 6.17,0.99 z m -6.46,6.75 -5.22,-8.78 11.68,2.03 z m 6.46,-6.75 0.94,6.77 -7.4,-0.02 z m 0.04,-8.03 8.91,3.74 -8.95,4.29 z m 0.9,14.8 -0.94,-6.77 8.68,6.96 z m 8.01,-11.06 12.45,4.55 -12.72,6.7 z m 0,0 -8.91,-3.74 9.24,-3.46 z m -8.95,4.29 8.95,-4.29 -0.27,11.25 z m 8.68,6.96 12.72,-6.7 4.57,10.9 z m 17.29,4.2 -4.57,-10.9 11.97,3.13 z m -5.39,-23.44 0.82,12.54 -12.45,-4.55 z m 10.55,0.07 -10.55,-0.07 8.09,-10.29 z m 9.09,-27.18 3.23,12.26 -14.34,-3.06 z m -6.68,-0.38 8.4,-9.82 -1.72,10.2 z m 9.91,12.64 11.91,6.45 -13.26,3.02 z m 12.11,-2.95 -0.2,9.4 -11.91,-6.45 z m -12.11,2.95 -3.23,-12.26 15.34,9.31 z m -1.35,9.47 -13.43,-4.91 14.78,-4.56 z m -10.97,5.45 10.97,-5.45 3.72,9.31 z m 0,0 -2.46,-10.36 13.43,4.91 z m 19.49,8.91 -4.8,-5.05 5.67,-1.44 z m 0.87,-6.49 -5.67,1.44 -3.72,-9.31 z m -9.39,-7.87 13.26,-3.02 -3.87,10.89 z m -10.97,5.45 14.69,3.86 -4.37,6.03 z m 24.23,-8.47 4.08,3.67 -7.95,7.22 z m -26.25,-9.51 4.43,-9.58 6.68,0.38 z m 26.22,-10.54 7.7,6.83 -7.47,3.82 z m 0.23,10.65 -15.34,-9.31 15.11,-1.34 z m 7.47,-3.82 5.12,5.52 -12.59,-1.7 z m 0,0 -0.55,-6.01 7.63,-0.17 z m 5.12,5.52 -5.12,-5.52 7.08,-6.18 z m 0,0 -8.71,11.37 -4.08,-3.67 z m -7.93,14.55 -8.73,4.04 7.95,-7.22 z m 0,0 -0.78,-3.18 9.32,-0.95 z m 9.54,11.64 -1.4,-8.08 14.73,8.84 z m -1,-15.77 -0.4,7.69 -8.14,-3.56 z m -9.32,0.95 8.71,-11.37 0.61,10.42 z m -7.95,7.22 8.73,-4.04 0.12,15.14 z m 3.87,-10.89 0.2,-9.4 12.59,1.7 z m -21.82,-19.09 -7.64,7.18 -2.69,-8.08 z m 34.82,29.5 -8.02,11.58 -0.12,-15.14 z m -37.43,22.48 2.44,-8.82 5.49,8.76 z m 0,0 -4.96,-1.05 7.4,-7.77 z m 21.86,0.1 -13.67,7.67 -0.26,-7.83 z m -11.34,-14.63 -2.59,14.47 -5.49,-8.76 z m -8.08,5.71 -2.24,-15.6 10.32,9.89 z m -2.44,8.82 7.93,-0.06 0.26,7.83 z m 19.37,10.21 -11.18,-2.44 13.67,-7.67 z m -11.44,-10.27 2.59,-14.47 11.34,14.63 z m 11.76,-15.45 9.56,10.48 -7.39,5.13 z m 9.56,10.48 -9.56,-10.48 9.72,4.61 z m 0,0 0.16,-5.87 11.66,7.16 z m 0.16,-5.87 -9.72,-4.61 0.87,-6.49 z m 8.02,-11.58 1.4,8.08 -9.42,3.5 z m 3.64,18.74 -11.66,-7.16 9.42,-3.5 z m -19.21,3.84 7.51,7.03 -10,3.08 z m 0,0 7.39,-5.13 0.12,12.16 z m 11.19,15.6 -3.68,-8.57 10.92,1.39 z m 7.24,-7.18 -10.92,-1.39 11.7,-10.87 z m -11.04,-13.55 11.82,1.29 -11.7,10.87 z m -9.88,15.24 10,-3.08 -5.92,12.37 z m 21.7,-13.95 -2.24,-10.66 13.33,0.76 z m -21.38,-11.77 2.17,15.61 -11.34,-14.63 z m -9.17,0.98 4.37,-6.03 4.8,5.05 z m 26.91,-7.95 0.4,-7.69 12.87,-0.94 z m -46.96,10.53 9.73,-12.47 2.24,15.6 z m 33.93,-40.99 7.15,0.82 0.55,6.01 z m 8.65,68.64 -9.6,3.8 5.92,-12.37 z m 4.78,-45.87 -0.61,-10.42 13.48,9.48 z m -88.67,9.62 0.63,-15.04 11.72,5.63 z m 108,-10.52 -6.46,-0.04 3.59,-13.74 z m -2.87,-13.78 -3.59,13.74 -13.48,-9.48 z m 4.08,-3.94 4.73,9.11 -8.81,-5.17 z m -10.85,-4.26 6.77,8.2 -17.07,4.26 z m 9.64,21.98 -2.87,-13.78 8.81,5.17 z m 0,0 -2.61,9.93 -3.85,-9.97 z m -2.61,9.93 -2.39,7.5 -14.73,-8.84 z m -0.26,-23.71 -6.77,-8.2 10.85,4.26 z m 0.26,23.71 -17.12,-1.34 13.27,-8.63 z"
       id="path1" />
    <path
       fill="#4df79a"
       stroke="#000000"
       stroke-width="0.5"
       d="m 191.25,212.11 2.94,16.36 -10.48,-2.62 z m -8.8,25.93 1.26,-12.19 10.48,2.62 z m -4.62,23.81 0.41,-9.92 3.23,1.68 z m 8.69,4.31 -5.05,-12.55 13.65,-0.04 z m 0.03,-20.88 -5.08,8.33 -3.23,-1.68 z m 0,0 8.57,8.29 -13.65,0.04 z m -5.08,8.33 5.05,12.55 -8.69,-4.31 z m 5.08,-8.33 -4.1,-7.24 13.99,5.15 z m 4.7,-33.17 1.9,-10.71 14.88,1.33 z m 17.06,-19.97 -0.28,10.59 -14.88,-1.33 z m -0.28,10.59 0.28,-10.59 8.9,6.19 z m -1.57,-20.48 7.4,0.02 -5.55,9.87 z m 1.27,35.54 -16.48,-5.68 16.78,-9.38 z m 6.13,-35.52 7.74,0.19 -4.39,15.87 z m 3.35,16.06 9.92,-1.99 0.25,6.97 z m 0,0 4.39,-15.87 5.53,13.88 z m 9.92,-1.99 6.42,-1.06 -6.17,8.03 z m 0,0 -5.53,-13.88 11.95,12.82 z m 6.42,-1.06 5.34,-8.62 3.91,10.01 z m 1.04,9.73 -7.21,-1.7 6.17,-8.03 z m 4.3,-18.35 -5.34,8.62 -11.95,-12.82 z m -30.86,16.07 9.18,-4.4 -3.7,9.71 z m 5.83,-20.46 3.35,16.06 -8.9,-6.19 z m -0.35,25.77 3.7,-9.71 10.17,4.98 z m 30.27,-2.76 -0.98,-8.61 9.24,-1.19 z m 8.26,-9.8 -9.24,1.19 1.05,-8.96 z m 15.26,11.73 -12.67,-5.85 8.59,-3.44 z m -4.08,-9.29 -8.59,3.44 -2.59,-5.88 z m -28.63,7.09 -1.04,-9.73 9.25,1.39 z m 8.21,-8.34 -3.91,-10.01 4.96,1.05 z m 11.83,4.69 -10.85,3.92 8.26,-9.8 z m -46.9,16.43 5.78,-9.75 0.26,8.22 z m -13.54,10.68 -2.94,-16.36 16.48,5.68 z m 19.58,-12.21 5.2,10.92 -11.24,-9.39 z m 8.47,2.52 -3.27,8.4 -5.2,-10.92 z m -8.47,-2.52 -0.26,-8.22 8.73,10.74 z m -6.04,1.53 11.24,9.39 -15.29,0.93 z m -11.62,15.15 0.33,10.25 -13.99,-5.15 z m 0,0 -1.92,-4.47 9.49,-0.36 z m 0,0 7.57,-4.83 -1.4,9.68 z m 15.34,1.54 -7.77,-6.37 15.29,-0.93 z m -17.26,-6.01 13.54,-10.68 -4.05,10.32 z m 17.26,6.01 -9.17,3.31 1.4,-9.68 z m 7.52,-7.3 2.18,6.99 -9.7,0.31 z m -11.24,-9.39 0.3,-15.06 5.48,5.31 z m 26.43,6.32 -11.92,-5.33 12.1,-6.44 z m -11.92,-5.33 5.14,-15.47 6.96,9.03 z m 12.1,-6.44 9.44,-7.06 -2.07,12.34 z m 9.44,-7.06 -9.44,7.06 0.25,-7.33 z m -30.27,2.76 13.87,-4.73 -5.14,15.47 z m 20.65,16.07 0.18,-11.77 7.37,5.28 z m -13.01,10.06 6.46,-5.6 5,8.97 z m 0,0 -2.18,-6.99 8.64,1.39 z m 21.52,-9.46 -10.06,12.83 1.55,-13.43 z m -8.51,-0.6 -1.55,13.43 -5,-8.97 z m -6.55,4.46 -5.37,-9.79 11.92,5.33 z m -16.16,5.91 9.7,-0.31 -7.14,9.18 z m 21.16,3.06 10.71,-0.06 -9.44,4.73 z m -5,-8.97 -8.64,-1.39 3.27,-8.4 z m 6.98,-23.56 -0.25,7.33 -6.96,-9.03 z m -1.98,32.53 -6.54,9.35 -4.92,-12.72 z m -36.17,5.65 5.84,-5.4 1.77,6.73 z m 5.84,-5.4 -5.84,5.4 -0.33,-10.25 z m -0.34,18.02 2.11,-11.29 13.48,10.01 z m 2.11,-11.29 -1.77,-6.73 9.17,-3.31 z m 9.96,-1.17 -9.96,1.17 7.4,-10.04 z m -17.57,-0.16 7.61,1.33 -8.93,9.05 z m -1.32,10.38 3.47,10.25 -12.07,2.34 z m 3.47,10.25 -3.47,-10.25 6.82,2.24 z m 3.35,-8.01 1.22,10.53 -4.57,-2.52 z m 14.65,10.27 -13.43,0.26 -1.22,-10.53 z m -21.47,-12.51 8.93,-9.05 -2.11,11.29 z m 22.41,0.96 -13.48,-10.01 9.96,-1.17 z m -22.41,-0.96 -8.57,-8.29 9.89,-2.09 z m 22.41,0.96 8.54,-7.64 2.23,8.41 z m 8.54,-7.64 -8.54,7.64 -3.52,-11.18 z m 2.23,8.41 5.58,-13.09 1.65,15.55 z m 5.58,-13.09 -5.58,13.09 -2.23,-8.41 z m -19.87,1.14 7.14,-9.18 4.92,12.72 z m 3.52,11.18 10.77,0.77 -4.17,5.74 z m 6.6,6.51 -7.54,5.04 0.94,-11.55 z m 11.4,-3.28 5.94,9.87 -4.23,-1.65 z m 11.51,-4.72 -5.57,14.59 -5.94,-9.87 z m -11.51,4.72 1.71,8.22 -13.11,-4.94 z m -11.4,3.28 4.17,-5.74 7.23,2.46 z m 21.61,-15.12 -10.21,11.84 -1.65,-15.55 z m -28.21,8.61 -0.94,11.55 -14.65,-10.27 z m 16.35,-12.32 -7.81,4.68 6.54,-9.35 z m 7.83,-24.59 0.96,7.09 -8.51,-0.6 z m -59.26,20.42 11.74,-9.57 1.92,4.47 z m 70.26,-20.46 -10.04,7.13 -0.96,-7.09 z m -8.93,-12.3 10.85,-3.92 -1.92,16.22 z m 23.52,1.93 -2.98,11.78 -11.61,-1.41 z m 0,0 -14.59,10.37 1.92,-16.22 z m -14.59,10.37 11.61,1.41 -9.01,9.41 z m -9.39,19.9 -0.65,-12.77 12.64,3.69 z m -0.65,-12.77 10.04,-7.13 2.6,10.82 z m 19.24,10.88 -3.65,-3.84 9.07,-6.14 z m 5.42,-9.98 -9.07,6.14 -2.95,-3.35 z m -3.01,-6.62 3.01,6.62 -12.02,2.79 z m -21,18.49 11.99,-9.08 2.95,3.35 z m 9.39,-19.9 -11,0.04 2.07,-12.34 z m -18.12,-12.57 8.21,-8.34 0.98,8.61 z m 11.15,40.91 1.3,7.12 -11.51,4.72 z m 0,0 -2.42,-8.44 13.1,3.86 z m 10.68,-4.58 5.49,-5.75 -0.79,12.63 z m 0,0 -13.1,-3.86 14.94,-5.73 z m 1.84,-9.59 3.65,3.84 -5.49,5.75 z m -12.52,14.17 10.68,-4.58 -2.04,13.19 z m 8.64,8.61 4.27,11.23 -17.18,1.87 z m -7.34,-1.49 -1.3,-7.12 8.64,8.61 z m 16.65,0.91 -9.31,0.58 6.74,-6.31 z m -9.31,0.58 9.31,-0.58 -5.04,11.81 z m 2.04,-13.19 4.7,6.88 -6.74,6.31 z m -2.04,13.19 -12.91,13.1 5.57,-14.59 z m 7.53,-18.94 11.61,2.82 -12.4,9.81 z m -16.17,10.33 -11.86,-3.71 9.44,-4.73 z m 28.8,7.99 -10.85,0.04 -2.57,-5.73 z m -10.85,0.04 1.72,12.15 -6.76,-0.34 z m 0,0 10.85,-0.04 -9.13,12.19 z m 10.85,-0.04 -13.42,-5.69 12.4,-9.81 z m -12.63,-18.32 5.42,-9.98 6.19,12.8 z m -19.24,-10.88 0.65,12.77 -10.71,0.06 z"
       id="path2" />
    <path
       fill="#afb69e"
       stroke="#000000"
       stroke-width="0.5"
       d="m 284.14,196.23 0.78,-12.26 9.58,2.17 z m 14.26,-29.66 2.61,-9.93 2.45,8.34 z m 0,0 5.06,-1.59 2.94,6.27 z m 15.25,-2.32 -10.19,0.73 -2.45,-8.34 z m 0,0 -12.64,-7.61 14.43,-2.02 z m 0,0 -7.25,7 -2.94,-6.27 z m -12.64,-7.61 5.94,-8.61 8.49,6.59 z m 17.09,-13.73 3.48,4.47 -6.14,7.24 z m 19.68,20.71 -5.1,-10.64 9.4,8.57 z m -16.2,-16.24 11.1,5.6 -4.6,2.28 z m 6.5,7.88 0.29,13.19 -14.72,-4.2 z m 0,0 -12.64,-0.64 6.14,-7.24 z m 0.29,13.19 9.41,-4.83 -3.56,10.26 z m 9.41,-4.83 -9.41,4.83 -0.29,-13.19 z m -9.7,-8.36 4.6,-2.28 5.1,10.64 z m 0,0 -14.43,8.99 1.79,-9.63 z m -9.98,-12.35 -2.66,11.71 -8.49,-6.59 z m 8.94,31.05 -13.39,-9.71 14.72,4.2 z m -31.03,0.11 7.96,11.36 -9.47,0.71 z m 7.96,11.36 -7.96,-11.36 10.39,-2.82 z m 2.43,-14.18 4.73,1.23 -7.16,12.95 z m 0,0 7.25,-7 -2.52,8.23 z m -10.39,2.82 2.39,-7.5 8,4.68 z m 16.74,18.34 -8.78,-6.98 12.15,1.66 z m -18.25,-6.27 9.47,-0.71 -10.12,11.85 z m -0.65,11.14 -9.71,-1.05 10.36,-10.09 z m 14.15,-2.17 4.75,-2.7 5.5,9.37 z m -14.15,2.17 10.12,-11.85 4.03,9.68 z m 10.12,-11.85 8.78,6.98 -4.75,2.7 z m -0.43,20.4 -9.69,-8.55 14.15,-2.17 z m 0.43,-20.4 7.16,-12.95 4.99,14.61 z m -9.47,0.71 -9.58,-2.17 11.09,-9.9 z m 21.62,0.95 8.53,-3.27 -0.48,10.95 z m 0,0 -4.99,-14.61 13.52,11.34 z m 10.92,-13.13 7.18,-0.08 -9.57,9.94 z m -15.91,-1.48 2.52,-8.23 13.39,9.71 z m 0,0 15.91,1.48 -2.39,9.86 z m 13.52,11.34 9.57,-9.94 -2.82,14.65 z m -6.4,17.96 2.89,0.24 1.2,13.51 z m 2.89,0.24 -2.89,-0.24 5.92,-7.01 z m 10.64,0.06 -7.61,-7.31 7.23,-6.24 z m -0.38,-13.55 -7.23,6.24 0.48,-10.95 z m 12.15,-11.6 -6.97,14.12 -5.18,-2.52 z m -22.41,25.09 3.03,-7.25 7.61,7.31 z m -8.39,-9.61 11.42,2.36 -5.92,7.01 z m 18.65,-3.88 5.18,2.52 -4.8,11.03 z m 12.15,-11.6 -12.15,11.6 2.82,-14.65 z m -19.38,17.84 -11.42,-2.36 3.37,-5.32 z m 4.2,-26.32 5.85,5.43 -7.18,0.08 z m -24.83,37.38 4.46,-10.72 10.25,6.67 z m 30.68,-31.95 3.56,-10.26 5.77,13.31 z m 7.86,-12.33 1.85,-6.08 11.63,1.13 z m 0,0 -9.4,-8.57 11.25,2.49 z m 0,0 13.48,-4.95 2.78,10.76 z m 25.22,-8.29 -5.06,7.79 -6.68,-4.45 z m -5.06,7.79 -3.9,6.31 -2.78,-10.76 z m 5.06,-7.79 4.87,5.51 -9.93,2.28 z m 8.59,9.54 10.4,-8.53 1,13.56 z m 10.4,-8.53 -10.4,8.53 -3.72,-4.03 z m -2.4,-8.51 2.4,8.51 -14.12,4.5 z m -21.65,15.29 9.93,-2.28 -3.32,13.18 z m 13.65,1.75 -7.04,9.15 3.32,-13.18 z m -32.34,14.13 7.56,8.49 -5.57,3.55 z m 7.56,8.49 -7.56,-8.49 11.95,-1.95 z m 12.93,0.82 -8.54,-11.26 13.35,-3.03 z m -8.54,-11.26 -11.95,1.95 -1.47,-15.38 z m -13.42,-13.43 16.26,5.81 -2.84,7.62 z m 9.03,23.87 4.39,-10.44 8.54,11.26 z m -5.27,12.7 -9.26,-7.07 8.96,-2.08 z m 0,0 -0.3,-9.15 9.96,7.97 z m 9.66,-1.18 8.54,-10.7 2.84,9.71 z m 0,0 -9.96,-7.97 5.57,-3.55 z m -4.39,-11.52 12.93,0.82 -8.54,10.7 z m 1.21,20.29 -6.48,-7.59 9.66,-1.18 z m 3.18,-30.73 2.84,-7.62 10.51,4.59 z m -9.96,13.99 -8.96,2.08 6.97,-14.12 z m 23.31,-17.02 8.64,0.78 -2.86,15.29 z m 0,0 7.04,-9.15 1.6,9.93 z m 14.46,0.85 -5.82,-0.07 -1.6,-9.93 z m -24.97,-5.44 3.9,-6.31 6.61,10.9 z m 19.15,5.37 5.82,0.07 0.87,13.79 z m -6.07,29.48 -4.54,-6.26 4.95,-4.13 z m -7.38,-15.97 7.79,5.58 -4.95,4.13 z m 10.59,1.78 9.55,-1.43 2.18,5.82 z m 9.55,-1.43 -9.55,1.43 2.86,-15.29 z m -9.55,1.43 11.73,4.39 -14.53,-0.59 z m 0,0 -2.8,3.8 -7.79,-5.58 z m -3.21,14.19 0.41,-10.39 14.53,0.59 z m -7.38,-15.97 4.81,-14.29 5.78,16.07 z m 19.27,-13.44 -7.42,-10 11.4,5.03 z m -51.53,29.28 4.8,-11.03 9.26,7.07 z m 10.3,-40.53 1.47,15.38 -5.77,-13.31 z m 24.8,34.4 -2.36,11.57 -9.02,-10.58 z m -49.52,22.07 -11.69,-4.68 12.58,-11.56 z m -13.82,-12.19 14.71,-4.05 -12.58,11.56 z m 18.8,9.7 9.44,-13.45 2.17,16.04 z m -4.09,-13.75 4.09,13.75 -4.98,2.49 z m 13.88,21.04 1.82,-4.7 7.55,8.15 z m 1.82,-4.7 -1.82,4.7 -9.79,-7.29 z m 0,0 10.37,-6.55 -2.82,14.7 z m -11.61,-2.59 9.79,7.29 -4.16,3.87 z m 11.61,2.59 -2.17,-16.04 12.54,9.49 z m -5.98,8.57 -10.61,-8.67 4.98,-2.49 z m -6.83,-24.67 10.64,0.06 -9.44,13.45 z m 23.18,9.55 1.26,-6.72 6.74,0.86 z m 1.26,-6.72 -1.26,6.72 -12.54,-9.49 z m -1.26,6.72 8,-5.86 -0.91,11.1 z m 8,-5.86 3.18,-8.77 9.02,10.58 z m -6.48,-7.59 6.48,7.59 -6.74,-0.86 z m 5.57,18.69 0.91,-11.1 12.2,1.81 z m 13.13,0.87 -13.13,-0.87 13.11,-9.29 z m 9.46,-4.11 -9.46,4.11 -0.02,-10.16 z m 0,0 -2.58,-11.36 12.69,6 z m 10.11,-5.36 4.57,7.62 -14.68,-2.26 z m -12.69,-6 14.94,-9.8 -2.25,15.8 z m 2.58,11.36 14.68,2.26 -15.44,5.28 z m -0.76,7.54 -8.7,-3.43 9.46,-4.11 z m 0.76,-7.54 -9.48,-6.05 6.9,-5.31 z m -42.22,-11.49 14.06,-3.96 -0.26,6.73 z m 12.54,9.49 7.09,5.24 -9.91,9.46 z m 20.2,-4.05 2.36,-11.57 4.54,6.26 z"
       id="path3" />
    <path
       fill="#c1e1d5"
       stroke="#000000"
       stroke-width="0.5"
       d="m 293.85,197.28 -11.29,5.17 1.58,-6.22 z m -2.78,9.73 -8.51,-4.56 11.29,-5.17 z m -14.17,-3.6 7.24,-7.18 -1.58,6.22 z m -9.57,22.2 -3.01,-6.62 13.26,2.61 z m -3.01,-6.62 2.98,-11.78 10.69,11.6 z m 13.67,-0.18 -0.41,2.79 -13.26,-2.61 z m 0,0 -1.09,-15.4 9.58,9.97 z m 13.13,4.9 -4.64,-10.33 10.46,0.07 z m -4.64,-10.33 -9.58,-9.97 5.66,-0.96 z m -3.92,-10.93 8.51,4.56 -4.59,6.37 z m -4.57,16.36 8.49,-5.43 1.98,11.03 z m -10.66,6.8 10.25,-4.01 -4.06,16.81 z m 17.46,5.58 -7.21,-9.59 10.88,2.81 z m 3.67,-6.78 2.66,-0.7 -6.33,7.48 z m 0,0 -10.88,-2.81 0.41,-2.79 z m -1.98,-11.03 4.64,10.33 -2.66,0.7 z m 9.23,23.92 -14.54,4.54 3.62,-10.65 z m -9.23,-23.92 4.59,-6.37 5.87,6.44 z m -8.49,5.43 -10.69,-11.6 9.6,-3.8 z m 6.8,12.38 -11.27,7.22 4.06,-16.81 z m -10.25,22.72 -1.02,-15.5 4.36,3.66 z m 3.34,-11.84 3.29,-0.23 -6.63,12.07 z m 3.29,-0.23 -3.29,0.23 -4.36,-3.66 z m -7.65,-3.43 11.27,-7.22 -3.62,10.65 z m 1.02,15.5 6.63,-12.07 4.84,14.48 z m 2.44,7.32 9.03,-4.91 2.61,8.14 z m -11.57,4.87 9.13,-12.19 2.44,7.32 z m 26.24,-14.14 -3.03,12.5 -2.61,-8.14 z m -17.11,1.95 11.47,2.41 -9.03,4.91 z m 11.47,2.41 -4.84,-14.48 10.48,10.12 z m 9.7,-19.02 -10.92,-6.11 6.33,-7.48 z m -1.86,-40.02 9.69,8.55 -12.47,1.18 z m 3.09,16.17 6.6,-7.62 2.13,7.51 z m 0,0 -5.87,-6.44 12.47,-1.18 z m 0,0 8.73,-0.11 -0.29,9.87 z m 8.44,9.76 0.29,-9.87 11.69,4.68 z m -4.29,10.28 4.29,-10.28 6.79,4.45 z m 0,0 -9.97,-9.78 14.26,-0.5 z m 11.08,-5.83 0.03,3.68 -11.11,2.15 z m 10.03,7 -10,-3.32 -0.03,-3.68 z m -16.82,-11.45 11.98,-5.19 -5.19,9.64 z m 7.91,20.54 -12.2,-10.26 11.11,-2.15 z m -1.12,-16.09 5.19,-9.64 10.61,8.67 z m -11.08,5.83 -5.38,3.81 -4.59,-13.59 z m 21.11,1.17 5.77,-7.97 5.52,8.4 z m 0,0 -10.03,-7 15.8,-0.97 z m 20.24,8.96 -8.95,-8.53 14.38,-3.94 z m -8.95,-8.53 -5.52,-8.4 4.16,-3.87 z m -1.36,-12.27 9.37,3.45 -8.01,8.82 z m -9.93,11.84 11.29,0.43 -7.47,6.99 z m -8.91,9.09 -1.09,-12.41 10,3.32 z m -15.33,-1.08 -6.31,9.29 -10.48,-10.12 z m -2.25,-5.37 5.38,-3.81 -3.13,9.18 z m 5.98,7.64 11.6,-1.19 -8.28,14.21 z m -3.73,-2.27 3.13,-9.18 0.6,11.45 z m 15.33,1.08 -11.6,1.19 -0.6,-11.45 z m -15.33,-1.08 3.73,2.27 -10.04,7.02 z m -6.31,9.29 7.26,14.2 -10.29,-1.7 z m 7.26,14.2 -7.26,-14.2 13.36,6 z m 6.1,-8.2 1.97,9.04 -8.07,-0.84 z m 12.34,8.36 -10.37,0.68 -1.97,-9.04 z m -25.7,-14.36 10.04,-7.02 3.32,13.02 z m 13.36,6 8.28,-14.21 2.43,10.79 z m -9.3,-20.66 2.25,5.37 -16.79,-0.83 z m 25.93,18.6 -5.92,-1.36 10.3,-12.46 z m 4.38,-13.82 -10.3,12.46 -2.43,-10.79 z m 12.21,13.26 -12.21,-13.26 12.19,3.24 z m -0.02,-10.02 -12.19,-3.24 7.47,-6.99 z m -16.01,-10.66 3.82,7.42 -12.73,1.67 z m 16.03,20.68 -0.02,-10.02 4.23,-1.7 z m -20.88,10.98 4.29,-10.42 1.24,10.26 z m 4.29,-10.42 -4.29,10.42 -1.63,-11.78 z m 0,0 12.82,12.07 -11.58,-1.81 z m 12.82,12.07 -12.82,-12.07 16.59,-0.56 z m 8.56,-4.52 -8.56,4.52 3.77,-12.63 z m -21.38,-7.55 4.38,-13.82 12.21,13.26 z m 16.59,-0.56 4.21,-11.72 1.06,14.05 z m -22.51,-0.8 1.63,11.78 -12.34,-8.36 z m 26.72,-10.92 -4.23,1.7 -4.72,-10.23 z m -8.95,-8.53 8.01,-8.82 6.37,4.88 z m -28.11,-11.88 -14.26,0.5 5.82,-10.26 z m 42.49,7.94 3.54,-14.34 6.16,7.69 z m 0,0 -6.37,-4.88 9.91,-9.46 z m 0,0 9.7,-6.65 -1.07,11.8 z m 16.67,-13.47 -6.97,6.82 -6.16,-7.69 z m -6.97,6.82 6.97,-6.82 -3.11,9.1 z m 3.86,2.28 -4.93,9.52 1.07,-11.8 z m -8,14.93 -10.99,1.91 5.43,-12.47 z m 8,-14.93 11.81,-5.67 1.66,13.45 z m 25.81,0.94 -4.46,3.81 -9.54,-10.42 z m -14,-6.61 15.44,-5.28 -1.44,11.89 z m 0,0 -11.81,5.67 3.11,-9.1 z m 9.54,10.42 -7.88,3.03 -1.66,-13.45 z m -18.23,10.93 -11.12,-0.75 3.07,-5.41 z m -22.11,1.16 10.99,-1.91 3.63,12.15 z m 18.85,18.93 -4.23,-8.69 7.53,3.96 z m -7.86,-20.84 11.12,0.75 -7.49,11.4 z m 3.07,-5.41 4.93,-9.52 0.35,7.32 z m 0.56,17.56 -13.56,3.81 -1.06,-14.05 z m -14.04,9.59 0.48,-5.78 8.79,6.87 z m 0,0 -4.79,-8.11 5.27,2.33 z m 9.27,1.09 -8.79,-6.87 13.56,-3.81 z m 4.77,-10.68 4.23,8.69 -9,1.99 z m 4.72,-19.76 2.77,8.36 -8.05,-6.16 z m -8.35,7.61 -5.56,-10.56 8.63,5.15 z m 11.12,0.75 10.35,-7.9 2.03,8.86 z m 10.35,-7.9 -10.35,7.9 -2.77,-8.36 z m 2.03,8.86 8.96,0.66 -10.24,9.43 z m 0,0 -2.03,-8.86 7.88,-3.03 z m 5.85,-11.89 3.11,12.55 -8.96,-0.66 z m -18.23,10.93 12.38,0.96 -1.28,10.09 z m 0.04,15.36 11.06,-4.31 1.37,8.88 z m 11.06,-4.31 -11.06,4.31 -0.04,-15.36 z m 1.37,8.88 9.67,-9.04 -2.22,14.12 z m 9.67,-9.04 -9.67,9.04 -1.37,-8.88 z m -11.04,0.16 10.24,-9.43 0.8,9.27 z m 1.37,8.88 -15.73,0.16 3.3,-4.73 z m -12.47,-19.93 0.04,15.36 -7.53,-3.96 z m -2.77,-8.36 -0.35,-7.32 13.47,7.78 z"
       id="path4" />
  </g>
  <g
     id="g24"
     style="display:inline">
    <path
       fill="#0eeaa4"
       stroke="#000000"
       stroke-width="0.5"
       d="m 308.68,15.86 5.3,-3.02 -2.16,12.28 z m 5.3,-3.02 -5.3,3.02 -6.65,-9.33 z m -11.95,-6.31 16.89,-3.41 -4.94,9.72 z m 4.57,25.93 5.22,-7.34 3.27,6.92 z m 5.22,-7.34 -5.22,7.34 -3.74,-3.76 z m -3.14,-9.26 3.14,9.26 -8.96,3.58 z m -10.06,21.8 4.24,-8.96 3.74,3.76 z m 15.36,-24.82 12.99,-0.91 -15.15,13.19 z m 4.94,-9.72 3.03,-0.5 5.02,9.31 z m 8.05,8.81 5.4,-4.08 1.11,6.58 z m 5.4,-4.08 -5.4,4.08 -5.02,-9.31 z m -3.75,19.64 -16.8,-2.37 15.15,-13.19 z m 0,0 -5.86,5.8 -10.94,-8.17 z m -13.53,4.55 -3.27,-6.92 10.94,8.17 z m 18.39,-17.61 1.92,13.66 -6.78,-0.6 z m 4.85,23.33 -2.93,-9.67 7.24,9.01 z m -11.36,-25.83 6.51,2.5 -4.86,13.06 z m 11.36,25.83 -9.71,-10.27 6.78,0.6 z m -2.93,-9.67 -1.92,-13.66 10.98,7.16 z m -8.43,-16.16 -12.99,0.91 4.94,-9.72 z m -20.37,20.53 8.49,-0.42 -7.96,12.99 z m -11.09,12.94 3.11,-7.74 8.51,7.37 z m 0,0 11.62,-0.37 -1.54,8.9 z m 16.04,5.63 -4.42,-6 11.25,3.8 z m -4.95,-18.57 0.53,12.57 -8.51,-7.37 z m -1.01,21.47 1.54,-8.9 4.42,6 z m 5.9,12.92 -8.14,-2.49 2.24,-10.43 z m -5.9,-12.92 -2.24,10.43 -8.34,-9.54 z m -10.58,0.89 0.5,-9.42 10.08,8.53 z m 16.48,12.03 -5.9,-12.92 5.96,-2.9 z m 6.89,-18.02 -11.25,-3.8 7.96,-12.99 z m 4.64,-4.45 -0.26,-11.09 13.72,8.26 z m 19.29,9.52 -9.82,1.38 3.99,-13.73 z m -3.98,-16.14 -1.85,3.79 -13.72,-8.26 z m -15.57,-4.47 5.86,-5.8 9.71,10.27 z m 0.26,11.09 13.46,-2.83 -3.99,13.73 z m -0.03,6.88 0.02,11.3 -11.46,-11.53 z m -4.61,-2.43 4.64,-4.45 -0.03,6.88 z m 20.5,17.98 -15.87,-4.25 9.48,-7.28 z m -6.39,-11.53 -9.48,7.28 -0.02,-11.3 z m 9.82,-1.38 -0.92,9.98 -8.9,-8.6 z m -30.82,12.95 0.06,-15.82 11.46,11.53 z m 11.53,-22.47 9.47,10.9 -9.5,-4.02 z m -0.03,6.88 -11.44,-0.23 6.83,-2.2 z m 13.49,-9.71 1.85,-3.79 3.74,4.91 z m -21.39,-9.51 7.93,12.34 -4.64,4.45 z m 7.67,1.25 0.26,11.09 -7.93,-12.34 z m 16.12,33.52 -6.39,-11.53 8.9,8.6 z m -5.4,-52.38 -1.11,-6.58 12.73,6 z m 11.62,-0.58 0.55,-9.05 9.25,3.81 z m 0,0 -0.64,7.74 -10.98,-7.16 z m 8.26,2.22 1.54,-7.46 10.64,10.15 z m 1.54,-7.46 -1.54,7.46 -8.26,-2.22 z m -9.8,5.24 8.26,2.22 -8.9,5.52 z m -0.64,7.74 6.93,2.86 -8.75,12.65 z m 0,0 8.9,-5.52 -1.97,8.38 z m 17.93,3.33 3.15,-6.16 11.67,3.63 z m 0,0 -11,-0.47 1.97,-8.38 z m 3.15,-6.16 -3.15,6.16 -9.03,-8.85 z m -7.12,13.98 -7.03,-8.29 11,0.47 z m -3.52,-24.13 12.76,0.02 -2.12,10.13 z m -19.5,19.48 9.06,-6.5 -1.82,15.51 z M 374.12,18.3 367.66,8.63 378.8,4.6 Z M 384.91,4.57 384.67,15.3 378.8,4.6 Z m -10.79,13.73 4.68,-13.7 5.87,10.7 z m -8.58,0.46 8.58,-0.46 3.09,4.09 z m -3.15,6.16 14.82,-2.53 -1.43,10.05 z m 14.82,-2.53 8.08,1.14 -9.51,8.91 z m 0,0 -3.09,-4.09 10.55,-3 z m 7.46,-7.09 0.62,8.23 -8.08,-1.14 z m -8.89,17.14 9.51,-8.91 2.3,15.08 z m -1.66,-14.14 -8.58,0.46 2.12,-10.13 z m -13.05,14.57 1.32,-7.95 13.39,7.52 z m -7.22,13.36 -11.78,-3.56 0.57,-5.57 z m -11.78,-3.56 -3.74,-4.91 4.31,-0.66 z m 11.78,3.56 -11.21,-9.13 15.78,-4.36 z m 7.22,-13.36 -2.65,-0.13 3.97,-7.82 z m -18.43,4.23 8.75,-12.65 7.03,8.29 z m 11.21,9.13 4.57,-13.49 2.65,0.13 z m -11.54,7.67 11.54,-7.67 1.67,9.38 z m 11.54,-7.67 -11.54,7.67 -0.24,-11.23 z m 2.02,20.17 -14.48,-2.52 14.13,-8.27 z M 366.24,55.08 355.87,66.4 355.52,55.61 Z m -10.72,0.53 -1.67,-9.38 12.39,8.85 z m 0,0 -14.13,8.27 0.92,-9.98 z m 12.49,-14.13 -14.16,4.75 7.22,-13.36 z m -25.94,1.19 0.24,11.23 -5.83,-12.35 z m 25.94,-1.19 9.2,3.97 0.18,6.07 z m 0,0 7.77,-9.04 1.43,13.01 z m 19.58,-2.87 -2.12,7.47 -8.26,-0.63 z m -26.52,-5.74 14.71,-0.43 -7.77,9.04 z m 16.14,12.58 8.26,0.63 -8.08,5.44 z m -10.97,9.63 11.15,-3.56 1.03,11.32 z m 11.15,-3.56 -11.15,3.56 1.77,-13.6 z m 1.03,11.32 8.37,-9.28 -1.05,11.14 z m 8.37,-9.28 -8.37,9.28 -1.03,-11.32 z m -17.89,15.39 -2.66,-13.87 12.18,7.76 z m 8.49,-17.43 8.08,-5.44 1.32,7.48 z m -21.52,14.88 10.37,-11.32 2.66,13.87 z m 12.14,-24.92 -1.77,13.6 -12.39,-8.85 z m 19.58,-2.87 -10.38,6.84 -1.43,-13.01 z m -9.79,35.92 0.62,-11.69 7.32,1.86 z M 332.37,7.85 345.65,4.8 345.1,13.85 Z m 21.21,65.96 -12.19,-9.93 14.48,2.52 z m 0,0 2.29,-7.41 6.12,6.7 z m 0.6,11.37 -0.6,-11.37 8.41,-0.71 z m 8.26,13.11 -8.26,-13.11 14.75,-1.54 z m -8.26,-13.11 7.81,-12.08 6.94,10.54 z m 14.75,-1.54 -0.03,-14.69 8.9,5.58 z m -0.03,-14.69 9.52,-6.11 -0.62,11.69 z m 9.21,12.86 6.77,-7.66 0.41,8.6 z m 6.77,-7.66 -6.77,7.66 -0.31,-7.28 z m 0.86,-9.45 -0.86,9.45 -7.08,0.38 z m -16.81,18.94 8.87,-9.11 0.31,7.28 z m 0,0 2.5,11.11 -8.99,3.54 z m 0,0 9.18,-1.83 -6.68,12.94 z m 2.5,11.11 6.68,-12.94 4.82,10.79 z m 6.68,-12.94 7.18,0.94 -2.36,9.85 z m -15.67,16.48 8.99,-3.54 -5.49,8.72 z m 6.46,-29.34 0.03,14.69 -6.94,-10.54 z m 9.54,35.77 -7.01,-9.97 11.5,-2.15 z m -3.38,7.59 -9.12,-8.84 12.5,1.25 z m 0,0 3.38,-7.59 8.81,13.52 z m 3.38,-7.59 -12.5,-1.25 5.49,-8.72 z m 4.49,-12.12 2.83,10.36 -7.32,1.76 z m 4.32,25.64 -8.81,-13.52 7.32,-1.76 z m -18.35,-49.29 -6.91,4.15 -6.12,-6.7 z"
       id="path5" />
    <path
       fill="#70fd31"
       stroke="#000000"
       stroke-width="0.5"
       d="m 297.86,74.6 7.35,0.09 2.72,6.9 z m 0,0 5.49,-10.24 1.86,10.33 z m 13.21,10.7 -3.14,-3.71 9.89,-10.06 z m -5.86,-10.61 12.61,-3.16 -9.89,10.06 z m -1.86,-10.33 8.14,2.49 -6.28,7.84 z m 7.72,20.94 -16.3,2.36 13.16,-6.07 z m -14.66,9.9 6.18,3.3 -7.08,8.95 z m 0,0 -1.64,-7.54 7.82,10.84 z m 14.66,-9.9 2.59,5.85 -11.07,7.35 z m 16.92,0.98 -14.33,4.87 -2.59,-5.85 z m -16.92,-0.98 -8.48,13.2 -7.82,-10.84 z m 0,17.39 -8.48,-4.19 11.07,-7.35 z m 0.42,-35.84 6.33,4.68 -12.61,3.16 z m 12.31,7.78 4.19,11.65 -16.92,-0.98 z m -5.98,-3.1 5.19,-8.97 0.79,12.07 z m 20.88,13.53 -6.17,-11.21 13.35,2.57 z m -6.17,-11.21 -8.73,0.78 -0.79,-12.07 z m -21.04,-7 11.52,-4.29 -5.19,8.97 z m 12.31,7.78 8.73,-0.78 -4.54,12.43 z m 2.12,23.29 2.07,-11.64 9.97,11.58 z m 0,0 -12.26,-6.77 14.33,-4.87 z m 12.04,-0.06 0.74,-12.8 7.45,7.51 z m 0.74,-12.8 -0.74,12.8 -9.97,-11.58 z m -10.71,1.22 4.54,-12.43 6.17,11.21 z m -16.92,16.41 2.59,-11.54 12.26,6.77 z m 21.46,-28.84 6.35,-7.04 7,9.61 z m -21.46,11.45 6.75,-13.77 5.98,3.1 z m 21.46,-11.45 -9.52,-11.29 15.87,4.25 z m 4.72,32.17 -11.33,-8.1 12.04,-0.06 z m -41.74,1.43 10.35,-1.51 0.18,7.01 z m 0,0 7.08,-8.95 3.27,7.44 z m 17.09,5.91 -6.74,-7.42 5.21,-3.25 z m -6.74,-7.42 6.74,7.42 -6.56,-0.41 z m -3.27,-7.44 8.48,4.19 -5.21,3.25 z m -7.08,8.95 10.53,5.5 -10.18,0.12 z m 0.35,5.62 8.3,9.61 -10.68,3.16 z m 0,0 10.18,-0.12 -1.88,9.73 z m 8.3,9.61 11.25,0.33 -2.54,9.68 z m 11.25,0.33 -11.25,-0.33 8.44,-9.32 z m -9.37,-10.06 6.56,0.41 -8.44,9.32 z m -3.82,25.97 -8.74,-13.08 10.68,-3.16 z m 8.85,-36.23 13.02,1.72 -11.49,8.95 z m 11.89,14.95 1.13,-13.23 12.24,9.33 z m 0,0 -7.55,5.37 -2.81,-9.65 z m 13.37,-3.9 0.92,-7.72 6.49,-0.42 z m 0.92,-7.72 -0.92,7.72 -12.24,-9.33 z m -26.18,-3.33 14.85,-4.77 -1.83,6.49 z m 11.89,14.95 13.37,-3.9 -4.37,14.85 z m -7.55,5.37 10.43,8.9 -12.97,0.78 z m 10.43,8.9 -10.43,-8.9 12.61,5.28 z m 2.18,-3.62 3.94,0.3 -0.7,4.58 z m 0,0 -12.61,-5.28 7.55,-5.37 z m 15.51,6.55 -12.27,-1.67 0.7,-4.58 z m -15.51,-6.55 3.24,4.88 -5.42,-1.26 z m -5.06,-10.65 9,10.95 -3.94,-0.3 z m -10.09,15.05 12.97,-0.78 -7.74,11 z m 19.09,-4.1 4.37,-14.85 12.55,7.4 z m -9,-10.95 -10.36,-4.28 11.49,-8.95 z m 2.96,-19.72 11.33,8.1 -13.16,-1.61 z m 5.34,35.25 -9.68,14.21 4.26,-15.47 z m 6.7,-35.31 5.78,7.74 -6.49,0.42 z m -40.1,-23.26 10.07,6.99 -13.16,6.07 z m 50.08,7.1 -1.79,10.87 -7.45,-7.51 z m 0,0 -2.06,-5.28 7.7,-2.61 z m 0,0 5.64,-7.89 0.6,11.37 z m -9.06,-14.89 2.51,-2.93 4.49,12.54 z m 7.27,25.76 8.03,-7.39 1.36,12.81 z m 8.03,-7.39 -8.03,7.39 1.79,-10.87 z m 1.36,12.81 6.9,0.3 -8.27,6.3 z m 6.9,0.3 -6.9,-0.3 -1.36,-12.81 z m -16.29,-5.72 9.39,5.42 -11.8,7.61 z m 0,0 -2.41,13.03 -5.78,-7.74 z m -4.76,-28.69 12.19,9.93 -7.7,2.61 z m 7.49,57.26 -12.55,-7.4 11.37,2.62 z m -1.18,-4.78 -3.96,-10.76 10.43,-1.01 z m 6.47,-11.77 3.49,14.18 -9.96,-2.41 z m 10.49,20.83 -7,-6.65 7.78,-4.35 z m -20.92,-19.82 11.8,-7.61 -1.37,6.6 z m 3.96,10.76 9.96,2.41 -8.78,2.37 z m -4.17,18.48 5.35,-13.7 4.06,5.7 z m 0,0 -11.57,-6.25 16.92,-7.45 z m 0,0 9.41,-8 0.04,10.09 z m 9.41,-8 -4.06,-5.7 8.78,-2.37 z m 4.72,-8.07 7,6.65 -11.72,1.42 z m 7,6.65 -2.3,10.5 -9.42,-9.08 z m -7,-6.65 -3.49,-14.18 11.27,9.83 z m -9.96,-2.41 -11.37,-2.62 7.41,-8.14 z m 18.24,-12.89 9.12,8.84 -9.62,2.11 z m -0.5,10.95 9.89,10 -10.67,1 z m 0,0 9.62,-2.11 0.27,12.11 z m 21.81,3.82 -0.17,5.39 -11.75,0.79 z m -0.17,5.39 1.46,10.12 -13.21,-9.33 z m -12.02,-11.32 12.19,5.93 -11.92,6.18 z m -10.4,13.11 10.67,-1 2.77,12.51 z m 1.28,-21.95 -0.5,10.95 -11.27,-9.83 z m -11.77,1.12 8.27,-6.3 3.5,5.18 z m 34.37,29.16 -10.44,3.18 -2.77,-12.51 z m -49.84,-48.69 7.18,-8.64 2.06,5.28 z m -36.48,53.86 1.94,-16.24 8.71,10.01 z m 29.04,-5.75 12.27,1.67 -2.24,6.58 z m -24.31,14.86 -4.73,-9.11 15.88,3.99 z m 14.63,-0.65 9.68,-14.21 4.65,15.55 z m 14.33,1.34 -3.23,4.26 -11.1,-5.6 z m -17.81,-5.81 7.74,-11 -4.26,15.47 z m 14.58,10.07 3.23,-4.26 8.02,6.75 z m -19.81,-20.29 5.23,10.22 -15.88,-3.99 z m 28.42,8.73 10.02,3.64 -7.38,10.41 z m 10.02,3.64 -10.02,-3.64 11.69,-4.49 z m 1.67,-8.13 9.38,-1.01 -11.05,9.14 z m -11.69,4.49 -5.38,7.3 -4.65,-15.55 z m 14.27,15.18 -4.25,-11.54 15.99,8.2 z m -11.63,-1.13 7.38,-10.41 4.25,11.54 z m 24.71,-9.73 -17.33,-0.68 11.05,-9.14 z m -24.71,9.73 -8.02,-6.75 5.38,-7.3 z m 28.24,3.3 -3.53,-13.03 6.18,-3.55 z m -3.53,-13.03 -6.28,-9.82 12.46,6.27 z m 9.46,-8.81 5.79,8.83 -9.07,-3.57 z m 5.79,8.83 -5.79,-8.83 10.44,-3.18 z m -21.53,-9.84 15.74,1.01 -3.28,5.26 z m 9.81,22.85 2.65,-16.58 9.07,3.57 z m -4.87,-5.51 1.34,-7.52 3.53,13.03 z m 1.34,-7.52 -1.34,7.52 -15.99,-8.2 z m -6.28,-9.82 2.3,-10.5 13.44,11.51 z m -18.83,-1.08 9.45,2.09 -11.69,4.49 z m 9.41,-8 9.42,9.08 -9.38,1.01 z"
       id="path6" />
    <path
       fill="#70a9a8"
       stroke="#000000"
       stroke-width="0.5"
       d="m 184.09,8.24 9.43,6.71 -10.91,0.22 z m 9.43,6.71 -9.43,-6.71 13.41,-0.11 z m -10.91,0.22 10.91,-0.22 0.12,7.07 z m 9.09,30.14 0.42,-12.26 14.31,2.92 z m 1.82,-30.36 14.23,0.9 -14.11,6.17 z m -6.44,48.75 -1.72,-10.98 11.26,2.78 z m 0,0 9.4,-0.89 -3.88,12.73 z m 9.54,-8.2 -11.26,-2.78 6.34,-7.41 z m -2.98,-33.48 14.32,2.22 -15.84,8.81 z m 3.86,-13.89 9.93,-2 0.32,9.72 z m 10.25,7.72 9.65,-10.02 -6.33,12.79 z m 9.65,-10.02 -9.65,10.02 -0.32,-9.72 z m -9.65,10.02 0.21,8.39 -14.32,-2.22 z m 0.21,8.39 3.11,-5.62 7.29,7.52 z m 3.11,-5.62 -3.11,5.62 -0.21,-8.39 z m 2.97,16.88 4.32,-9.36 6.54,7.59 z m 4.32,-9.36 -4.32,9.36 -6.08,-11.26 z m 0,0 -7.29,-7.52 15.31,-0.49 z m -10.4,-1.9 -1.53,11.73 -14.31,-2.92 z m 3.11,-5.62 6.33,-12.79 8.98,12.3 z m -4.64,17.35 1.53,-11.73 6.08,11.26 z m 19.95,-17.84 -1.23,-16.68 12.28,7.41 z m 10.82,20.35 -3.46,-15.57 11,9.28 z m 4.94,-25.44 -3.88,3.26 -0.83,-7.44 z m -4.71,-4.18 9.42,-5.17 -4.71,9.35 z m -11.05,9.27 11.05,-9.27 0.83,7.44 z m -4,8.01 2.52,7.59 -6.54,-7.59 z m 2.52,7.59 -2.52,-7.59 11.36,-3.23 z m 1.48,-15.6 7.36,4.78 -11.36,3.23 z m 7.36,4.78 -7.36,-4.78 11.88,-1.83 z m -15.38,3.23 8.02,-8.01 -4,8.01 z m 18.84,12.34 -12.3,-4.75 8.84,-10.82 z m 1.06,-22.18 5.53,6.93 -10.05,-0.32 z m -11.88,1.83 -8.98,-12.3 7.75,-4.38 z m -12.34,17.37 10.86,-1.77 -6.84,10.95 z m -8.82,10.02 0.07,8.63 -8.67,1.35 z m 0.07,8.63 -0.07,-8.63 12.84,-0.84 z m 8.75,-18.65 -8.82,10.02 1.21,-9.55 z m 0,0 4.02,9.18 -12.84,0.84 z m -17.42,20 -4.92,-10.19 13.52,0.21 z m 8.67,-1.35 12.77,-9.47 -0.83,11.11 z m -8.67,1.35 8.67,-1.35 -8.81,8.66 z m -0.14,7.31 -9.4,0.89 9.54,-8.2 z m 17.9,5.66 -6.19,-2.41 9.04,-10.27 z m -17.9,-5.66 8.81,-8.66 2.9,11.91 z m 8.81,-8.66 11.94,1.64 -9.04,10.27 z m -8.81,8.66 11.71,3.25 -2.8,5.37 z m 21.58,-18.13 8.62,4.12 -9.45,6.99 z m -26.36,0.63 14.73,-9.34 -1.21,9.55 z m 34.98,3.49 10.52,-10.32 1.48,3.92 z m 0,0 -8.62,-4.12 6.84,-10.95 z m 0,0 12,-6.4 -3,12.7 z m 15.36,-5.78 -3.36,-0.62 -1.48,-3.92 z m 0,0 -4.84,-4.54 7.54,-6.29 z m -6.36,12.08 3,-12.7 3.36,0.62 z m -21.3,13.37 2.85,-12.68 3.94,2.39 z m 20.04,-1.11 -13.25,-9.18 14.51,-3.08 z m 1.26,-12.26 6.89,2.31 -8.15,9.95 z m 6.89,2.31 -6.89,-2.31 6.36,-12.08 z m -21.4,0.77 5.51,-9.38 9,6.3 z m 13.25,9.18 8.15,-9.95 2.73,5.18 z m 8.15,-9.95 -0.53,-14.39 10.62,2.04 z m -15.89,-8.61 -5.51,9.38 -3.94,-2.39 z M 237.2,38.48 226.68,48.8 224.9,33.73 Z m -13.13,29.19 -2.9,-9.49 13.25,9.18 z m 18.07,-54.63 1.65,10.19 -5.53,-6.93 z m -36.75,58.39 -12.79,4.11 3.88,-12.73 z m 53.26,-55.4 -16.51,-2.99 11.38,-5.54 z m -5.13,-8.53 9,-2.42 -3.87,10.95 z m 11.65,5.08 -2.65,-7.5 13.14,-0.2 z m -6.52,3.45 3.87,-10.95 2.65,7.5 z m -14.86,7.2 8.04,4.6 -7.09,4.36 z m 8.04,4.6 -8.04,-4.6 14.86,-7.2 z m 6.82,-11.8 5.23,11.99 -12.05,-0.19 z m 5.23,11.99 -5.23,-11.99 6.52,-3.45 z m -21.74,-14.98 16.51,2.99 -14.86,7.2 z m 13.93,19.93 -4.24,-5.14 12.05,0.19 z m 9.1,-20.39 9.4,12.42 -10.69,3.02 z m -11.65,-5.08 -11.38,5.54 4.71,-9.35 z m 22.55,10.28 -0.41,-12.9 7.86,2.12 z m 0,0 7.45,-10.78 4.57,4.33 z m 20.59,-14.03 -5.07,10.61 -3.5,-3.03 z M 288.09,11.33 283.52,7 296.66,3.75 Z m -2.38,14.98 2.38,-14.98 3.5,3.03 z M 274.57,25 l 1.5,-7.22 9.64,8.53 z m 0,0 -9.4,-12.42 10.9,5.2 z m 2.91,6.03 8.23,-4.72 2.27,8.09 z m 8.23,-4.72 -8.23,4.72 -2.91,-6.03 z m -9.64,-8.53 12.02,-6.45 -2.38,14.98 z M 263.88,28.02 274.57,25 268.85,37.21 Z m 21.83,-1.71 10.9,1.12 -8.63,6.97 z m -9.64,-8.53 -10.9,-5.2 10.49,-7.7 z m 1.41,13.25 -8.63,6.18 5.72,-12.21 z m -25.51,27.22 -9.4,-0.84 10.09,-12.35 z m 0.69,-13.19 -7.92,-12.87 11.33,0.78 z m 3.41,-12.09 5.45,15.28 -8.86,-3.19 z m 5.45,15.28 -5.45,-15.28 12.78,4.24 z m -9.69,-20.42 4.24,5.14 -11.33,-0.78 z m 0.83,17.23 8.86,3.19 -9.55,10 z m -7.36,17.53 -2.73,-5.18 9.4,0.84 z m -3.26,-19.57 2.7,-10.83 7.92,12.87 z m 26.81,-5.81 8.63,-6.18 -5.19,12.57 z m 19.93,5.37 -16.49,1.02 5.19,-12.57 z m 9.84,-4.92 -9.84,4.92 -0.8,-8.18 z m -42.55,-4.69 7.81,-4.95 4.97,9.19 z m 16.22,10.63 -10.77,4.65 7.33,-11.04 z m 5.19,-12.57 10.5,3.37 0.8,8.18 z m -32.74,1.16 -11,-9.28 10.05,0.32 z m -39.67,50.21 0.32,-10.97 8.88,4.42 z m 9.31,-13.93 -0.11,7.38 -8.88,-4.42 z m -8.99,2.96 2.8,-5.37 6.19,2.41 z m 8.88,4.42 0.11,-7.38 8.02,8.26 z m -21.67,-0.31 12.79,-4.11 -0.32,10.97 z m 31.47,-7.87 10.35,-0.31 -12.02,9.37 z m 0,0 -1.67,9.06 -8.02,-8.26 z m -9.69,0.8 6.79,-10.29 2.9,9.49 z m 77.21,-54.11 5.02,13.07 -10.9,-1.12 z m 10.44,-7.83 6.65,9.33 -17.09,-1.5 z m -10.44,7.83 17.09,1.5 -12.07,11.57 z m 7.03,23.3 -2.01,-10.23 6.25,1.27 z m -2.01,-10.23 12.07,-11.57 -5.82,12.84 z m 2.01,10.23 -10.64,-3.26 8.63,-6.97 z m -1.96,-33.91 5.37,2.78 -10.44,7.83 z m -88.91,12.1 -14.23,-0.9 3.98,-6.82 z"
       id="path7" />
    <path
       fill="#d2bc35"
       stroke="#000000"
       stroke-width="0.5"
       d="m 188.41,98.75 -9.68,-15.92 10.18,3.43 z m 9.66,-14.37 -7.04,6.78 -2.12,-4.9 z m -19.34,-1.55 13.87,-7.29 -3.69,10.72 z m 9.68,15.92 2.62,-7.59 11.69,3.32 z m 2.62,-7.59 -2.62,7.59 0.5,-12.49 z m 1.57,-15.62 5.47,8.84 -9.16,1.88 z m 52.7,-12.95 6.67,-4.34 4.69,9.3 z m 22.95,10.69 -11.59,-5.73 5.75,-5.37 z m -5.84,-11.1 -5.75,5.37 -4.69,-9.3 z m 0,0 -10.44,-3.93 12.7,-0.58 z m -27.99,5.18 10.88,-4.77 -6.81,14.21 z m 17.55,-9.11 9.55,-10 3.15,9.42 z m 20.32,-14.65 -7.62,14.07 -3.15,-9.42 z m 0,0 16.49,-1.02 -6.86,9.46 z m -7.62,14.07 7.52,4.19 -9.78,0.32 z m 7.52,4.19 -7.52,-4.19 8.04,0.5 z m 0.52,-3.69 9.21,-6.13 3.77,9.94 z m 0,0 -8.04,-0.5 7.62,-14.07 z m 22.3,-3.35 -9.32,7.16 -3.77,-9.94 z m -22.3,3.35 12.98,3.81 -13.5,-0.12 z m -0.42,-14.57 9.63,8.44 -9.21,6.13 z m -4.04,29.68 -5.84,-11.1 9.78,-0.32 z m 14.88,-0.71 2.56,-10.59 10.75,3.63 z m 0,0 -10.94,-10.71 13.5,0.12 z m 11.88,-17.75 -13.09,-2.78 6.86,-9.46 z m -50.58,23.16 0.87,-15.39 11.36,4.96 z m -39.36,4.42 -7,1.98 -5.47,-8.84 z m 16.73,1.28 -7.53,-7.83 8.13,0.88 z m -16.73,-1.28 9.2,-6.55 -2.84,8.92 z m -7,1.98 7,-1.98 -2.35,12.08 z m 13.23,12.25 -8.58,-2.15 8.71,-9.71 z m -8.58,-2.15 2.35,-12.08 6.36,2.37 z m 11.55,-18.63 7.53,7.83 -10.37,1.09 z m 7.53,7.83 -10.5,12.95 0.13,-11.86 z m 0.6,-6.95 16.09,0.07 -1.89,9.72 z m 0,0 12.02,-9.37 4.07,9.44 z m 22.03,1.25 -5.94,-1.18 6.81,-14.21 z m -7.83,8.54 1.89,-9.72 5.94,1.18 z m -7.84,9.73 7.47,-0.96 -3.25,11.95 z m 7.47,-0.96 -7.47,0.96 7.84,-9.73 z m 0.37,-8.77 7.53,6.05 -7.9,2.72 z m 9.02,-1.09 -1.49,7.14 -7.53,-6.05 z m -23.82,-1.75 14.8,2.84 -7.84,9.73 z m 11.18,23.56 3.25,-11.95 9.77,6.33 z m 3.62,-20.72 7.83,-8.54 1.19,7.45 z m 0,0 -14.8,-2.84 0.6,-6.95 z m -7.84,9.73 -17.46,0.38 10.5,-12.95 z m -23.39,6.75 5.63,-1.66 0.89,10.78 z m 5.63,-1.66 -5.63,1.66 5.93,-6.37 z m 0,0 16.28,3.35 -15.39,7.43 z m 16.28,3.35 -16.28,-3.35 0.3,-4.71 z m -21.91,-1.69 -2.65,-8.52 8.58,2.15 z m 19.4,11.94 2.51,-10.25 5.7,2.55 z m 7.18,1.21 1.03,-8.91 14.31,4.22 z m 1.03,-8.91 -1.03,8.91 -7.18,-1.21 z m -21.68,-10.61 17.46,-0.38 -1.48,8.44 z m 13.47,18.31 -12.88,-2.82 15.39,-7.43 z m 3.99,-18.69 4.22,10.99 -5.7,-2.55 z m 7.47,-0.96 7.9,-2.72 1.87,9.05 z m -45.2,-4.13 7.04,-6.78 4.65,10.1 z m 61.04,-4.43 -6.45,-1.3 8.45,-7.04 z m 2,-8.34 -8.45,7.04 -1.19,-7.45 z m 14.85,19.29 -7.58,-12.67 16.23,3.96 z m -0.67,-24.4 -6.91,11.73 -7.27,-6.62 z m -23.82,4.7 12.23,-10.43 -2.59,10.84 z m 7.64,8.75 2,-8.34 7.27,6.62 z m 0.97,4.3 -7.04,10.59 -1.87,-9.05 z m -8.91,1.54 7.94,-5.84 0.97,4.3 z m 1.87,9.05 7.04,-10.59 -1.07,11.58 z m 7.04,-10.59 -0.97,-4.3 9.27,-1.72 z m 8.3,-6.02 7.58,12.67 -15.88,-6.65 z m 7.58,12.67 -16.95,4.93 1.07,-11.58 z m -7.58,-12.67 6.91,-11.73 5.29,1.79 z m -17.21,7.56 1.49,-7.14 6.45,1.3 z m 29.41,-17.5 7.9,13.63 -3.87,0.27 z m 7.9,13.63 -7.9,-13.63 9.59,-2.5 z m 1.69,-16.13 11.64,15.09 -13.33,1.04 z m 14.73,2.03 -3.09,13.06 -11.64,-15.09 z m -29.61,-1.32 3.94,-11.42 1.35,13.21 z m 13.19,15.42 13.33,-1.04 -11.09,11.05 z m -12.52,8.98 8.89,-1.81 -6.51,5.64 z m 0,0 8.65,-8.71 0.24,6.9 z m 8.89,-1.81 5.87,2.84 -12.38,2.8 z m 0,0 -0.24,-6.9 3.87,-0.27 z m 3.63,-7.17 2.24,10.01 -5.87,-2.84 z m -10.14,12.81 12.38,-2.8 3.11,4.05 z m 12.38,-2.8 12.73,-3.51 -9.62,7.56 z m -6.11,-9.74 -16.23,-3.96 12.2,-9.94 z m -9.32,-15.69 -14.18,5.11 2.59,-10.84 z m -4.08,35.66 4.75,-11.26 2.38,3.83 z m -16.88,2.52 4.68,-8.85 5.14,11.41 z m 4.68,-8.85 -4.68,8.85 -1.29,-9.84 z m 5.14,11.41 7.06,-5.08 3.2,8.8 z m 7.06,-5.08 -7.06,5.08 -5.14,-11.41 z m 4.75,-11.26 -4.75,11.26 -12.2,-6.33 z m -21.63,13.78 9.82,2.56 -10.14,10.04 z m -0.32,12.6 10.14,-10.04 -2.25,11.89 z m 19.2,0.1 1.2,-6.42 8.68,-0.18 z m 0,0 -11.31,1.75 2.25,-11.89 z m 1.2,-6.42 -1.2,6.42 -9.06,-10.14 z m -12.51,8.17 11.31,-1.75 2.08,10.61 z m 9.31,-16.97 11.88,8.62 -8.68,0.18 z m -17.2,15.12 -15.02,-7.91 15.34,-4.69 z m 29.08,-6.5 10.74,-14.8 1.67,8.31 z m 0,0 -11.88,-8.62 7.13,-7.43 z m 12.41,-6.49 0.39,10.19 -12.8,-3.7 z m 5.02,14.77 -4.63,-4.58 7.01,-8.19 z m -6.69,-23.08 8.72,4.69 -7.05,3.62 z m -10.74,14.8 12.8,3.7 -15.73,7.49 z m -7.8,17.21 -2.08,-10.61 6.95,4.59 z m 14.78,0.65 -9.91,-6.67 15.73,-7.49 z m 5.82,-14.16 4.63,4.58 -10.45,9.58 z m 0,0 -0.39,-10.19 7.4,2 z m -15.73,7.49 -6.95,-4.59 9.88,-6.6 z m 13.67,-25.99 -10.74,14.8 -4.75,-16.05 z m 7.98,-15.1 1.64,7.54 -12.73,3.51 z m -47.48,23.8 -14.31,-4.22 13.02,-5.62 z m 35.84,-38.89 -9.59,2.5 -1.35,-13.21 z m 12.38,-27.17 -6.73,-2.82 9.84,-4.92 z m 2.35,29.2 -14.73,-2.03 13.31,-6.96 z m -1.42,-8.99 -1.43,-10.79 8.34,9.54 z m 1.42,8.99 -1.42,-8.99 6.91,-1.25 z m -2.85,-19.78 -6.23,-12.24 6.73,2.82 z m 0.5,52.63 -8.72,-4.69 9.62,-7.56 z m 0,0 0.35,5.62 -7.4,-2 z m -9.82,-45.47 9.32,-7.16 1.43,10.79 z"
       id="path8" />
  </g>
  <g
     id="g23"
     style="display:inline">
    <path
       fill="#82d4df"
       stroke="#000000"
       stroke-width="0.5"
       d="m 93.44,104.2 1.1,-9.6 13.12,10.28 z m 0.58,28.43 0.92,-6.45 9.44,7.66 z M 107.66,104.88 94.54,94.6 105.35,92.22 Z m -2.31,-12.66 13.43,2.33 -11.12,10.33 z m 12.96,14.61 0.47,-12.28 6.86,3.8 z m -13.57,4.53 2.92,-6.48 8.19,8.22 z m 0,0 -7.48,5.11 -3.82,-12.27 z m 10.47,10.75 0.64,-9.01 12.46,8.02 z m 3.1,-15.28 -2.46,6.27 -8.19,-8.22 z m 0.47,-12.28 -0.47,12.28 -10.65,-1.95 z m -14.04,16.81 11.11,1.74 -0.64,9.01 z m 0.34,15.6 -10.14,-0.78 2.32,-9.71 z m -10.14,-0.78 10.14,0.78 -0.7,6.88 z m 9.44,7.66 0.7,-6.88 7.02,9.77 z m 0.7,-6.88 -7.82,-10.49 7.48,-5.11 z m -0.34,-15.6 10.47,10.75 -10.13,4.85 z m 10.47,10.75 -3.11,14.62 -7.02,-9.77 z m 0.64,-9.01 2.46,-6.27 5.89,1.21 z m -22.41,-8.9 14.22,0.68 -2.92,6.48 z m 37.98,7.53 -7.22,-3.69 8.01,-9.69 z m -7.22,-3.69 -5.89,-1.21 7.33,-8.48 z m 13.64,-0.22 8.37,5.69 -14.79,-1.78 z m 5.92,-12.22 -2.41,11.92 -3.51,0.3 z m 0,0 -5.92,12.22 -5.63,-9.47 z m -12.34,16.13 0.79,-13.38 5.63,9.47 z m -3.11,9.39 -12.46,-8.02 11.22,-0.88 z m 0,0 -1.24,-8.9 4.35,-0.49 z m 3.11,-9.39 14.79,1.78 -8.71,11.24 z m 11.97,12.09 -5.89,0.93 8.71,-11.24 z m -5.89,0.93 -3.54,14.13 -5.65,-17.76 z m -6.08,-13.02 6.08,13.02 -9.19,-3.63 z m -4.35,0.49 -2.87,-4.18 7.22,3.69 z m -4.91,24.1 -6.95,-14.21 13.1,-0.99 z m 24.05,-22.81 -8.37,-5.69 3.51,-0.3 z m -19.14,-1.29 -11.22,0.88 8.35,-5.06 z m 5.14,-13.87 -8.01,9.69 1.44,-9.69 z m 11.18,25.47 0.21,13.17 -6.1,-12.24 z m 14.42,-7.67 -11.6,-2.64 5.42,-11.93 z m -11.6,-2.64 -4.86,-5.99 10.28,-5.94 z m 5.42,-11.93 11.83,1.84 -5.65,12.73 z m 13.42,14.11 -1.59,-12.27 11.38,5.2 z m 0,0 -7.24,0.46 5.65,-12.73 z m -2.75,20.4 -11.13,-2.15 1.22,-6.05 z m -11.13,-2.15 -7.78,-10.12 9,4.07 z m 6.64,-17.79 7.59,12.66 -13.01,-0.92 z m 7.59,12.66 -7.59,-12.66 7.24,-0.46 z m -13.01,-0.92 -6.18,-14.38 11.6,2.64 z m 13.01,0.92 -3.1,7.28 -9.91,-8.2 z m -0.35,-13.12 9.14,1.1 -8.79,12.02 z m -12.66,12.2 -9,-4.07 2.82,-10.31 z m 32.13,-10.81 -9.68,-8.46 8.3,-3.3 z m -21.06,-13.66 7.75,-10.39 3.63,15.59 z m 24.95,-4.67 5.03,7.17 -10.3,-0.6 z m 14.31,-4.27 -9.28,11.44 -5.03,-7.17 z m -19.58,10.84 -8.3,3.3 -3.63,-15.59 z m 8.54,7.48 -8.54,-7.48 10.3,0.6 z m -17.49,3.99 3.48,4.92 -12.27,7.1 z m 3.48,4.92 -3.48,-4.92 10.33,0.29 z m 6.85,-4.63 7.16,-4.28 -3.94,10.03 z m 0,0 -10.33,-0.29 0.65,-8.17 z m 3.22,5.75 5.99,12.98 -10.53,0.84 z m -3.22,-5.75 3.22,5.75 -10.07,-1.12 z m -1.38,-11.76 8.54,7.48 -7.16,4.28 z m -17.74,23.49 12.27,-7.1 -1.77,17.26 z m 22.34,-5.98 3.94,-10.03 4.77,16.08 z m -12.9,-14.21 -0.65,8.17 -9.14,-1.1 z m 13.57,-9.87 -5.27,6.57 -11.93,-12.29 z m -0.67,24.08 -4.54,13.82 -5.53,-14.94 z m -36.11,-21.25 -10.28,5.94 2.41,-11.92 z m -45.38,39.58 -12.23,-8.53 10.36,1.21 z m 37.35,-4.17 -0.21,-13.17 7.78,10.12 z m -37.35,4.17 5.85,-4.43 1.79,10.28 z m 15.21,2.88 -7.57,2.97 -1.79,-10.28 z m -9.36,-7.31 10.06,-0.41 -0.7,7.72 z m 9.94,17.97 -8.15,-7.69 7.57,-2.97 z m 9.28,-9.45 -9.28,9.45 -0.58,-10.66 z m 0,0 -9.16,-8.93 11.8,2.56 z m 3.23,6.78 -3.23,-6.78 13.69,-0.04 z m -0.59,-13.15 -11.8,-2.56 6.15,-15.2 z m 9.64,-1.89 -9.64,1.89 3.54,-14.13 z m -9.64,1.89 11.05,6.33 -13.69,0.04 z m 0.2,27.78 -12.12,-11.96 12.51,-2.67 z m 0.39,-14.63 -12.51,2.67 9.28,-9.45 z m 0,0 7.64,6.29 -8.03,8.34 z m 7.64,6.29 -7.64,-6.29 10.46,-6.82 z m 1.41,-21.33 1.41,8.22 -11.05,-6.33 z m -12.28,8.26 -9.86,-1.21 0.7,-7.72 z m -25.07,-4.09 -1.87,-7.32 7.72,2.89 z m 37.35,-4.17 7.57,-3.05 -6.16,11.27 z m 18.7,-0.9 6.66,10.8 -11.18,-0.21 z m 6.66,10.8 -6.66,-10.8 13.6,2.88 z m -11.18,-0.21 -12.77,-1.47 6.16,-11.27 z m 0,0 11.18,0.21 -3.43,7.06 z m 7.75,7.27 3.43,-7.06 4.81,11.68 z m 9.87,-8.67 0.5,-6.31 8.39,3.07 z m 0,0 -1.63,13.29 -4.81,-11.68 z m 7.8,-8.63 1.09,5.39 -8.39,-3.07 z m 1.09,5.39 -1.09,-5.39 10.53,-0.84 z m -21.99,-5.95 3.1,-7.28 10.5,10.16 z m 13.1,9.19 8.89,-3.24 -1.73,13.45 z m 18.24,6.84 -0.63,15.04 -10.45,-11.67 z m -19.87,6.45 1.63,-13.29 7.16,10.21 z m 8.79,-3.08 1.73,-13.45 9.35,10.08 z m -7.16,-10.21 -6.44,1.61 6.94,-7.92 z m 2.27,-23.57 5.53,14.94 -7.3,2.32 z m -65.57,15.02 3.11,-14.62 6.95,14.21 z m 45.68,9.95 -6.61,-12.74 11.13,2.15 z m 45.39,-31.44 -11.49,-2.44 1.76,-6.88 z m -9.73,-9.32 9.28,-11.44 2.65,8.52 z m 11.93,-2.92 6.52,9.12 -8.72,3.12 z m -8.92,25.88 5.38,5.11 -8.1,1.82 z m 5.38,5.11 -5.38,-5.11 8.34,-4.65 z m 1.34,-18.75 1.62,8.99 -8.34,4.65 z m 1.62,8.99 -1.62,-8.99 8.72,-3.12 z m -1.62,-8.99 -6.72,13.64 -4.77,-16.08 z m 1.62,8.99 8.38,14.64 -11.34,-4.88 z m -11.35,-18.31 11.93,-2.92 -2.2,12.24 z m -5.7,16.91 8.71,6.05 -2.72,6.93 z m 7.41,18.35 -1.51,10.94 -9.35,-10.08 z m -1.42,-5.37 8.1,-1.82 -6.68,7.19 z m 1.42,5.37 6.68,-7.19 4.41,11.36 z m 18.02,-2.31 -6.93,6.48 -4.41,-11.36 z m -18.02,2.31 11.09,4.17 -12.6,6.77 z m 0,0 -10.86,0.86 9.44,-6.23 z"
       id="path9" />
    <path
       fill="#e5e76c"
       stroke="#000000"
       stroke-width="0.5"
       d="m 94.54,94.6 -5.77,-10.54 6.46,-3.05 z m 41.3,-79.12 -0.12,-11.68 9.95,8.04 z m 10.38,9.11 -0.55,-12.75 6.67,10.35 z m 1.05,-15.94 -1.6,3.19 -9.95,-8.04 z m -11.43,6.83 9.83,-3.64 0.55,12.75 z m 13.06,21.28 -15.07,-2.46 12.39,-9.71 z m -1.22,9.85 -13.29,9.69 -1.8,-8.26 z m -18.72,14.76 -3.21,-3.09 8.64,-1.98 z m 7.75,5.58 -2.32,-10.65 10.89,1.87 z m 10.97,-20.34 -2.4,11.56 -10.89,-1.87 z m 3.72,15.18 -3.75,1.54 -2.37,-5.16 z m -22.44,-0.42 5.43,-5.07 2.32,10.65 z m -3.21,-3.09 6.84,-10.24 1.8,8.26 z m 3.21,3.09 -14.51,5.72 11.3,-8.81 z m 18.72,-14.76 -15.09,1.43 1.24,-13.74 z m -10.97,20.34 8.57,-8.78 2.37,5.16 z m 22.13,-51.69 -13.17,-3.42 1.6,-3.19 z m -4.62,-10.54 8.3,8.67 -3.68,1.87 z m 8.3,8.67 -8.3,-8.67 13.59,-0.05 z m 4.01,7.65 -4.01,-7.65 16.46,-0.33 z m 1.28,-16.37 11.17,8.39 -16.46,0.33 z m -15.47,17.52 6.5,-6.93 7.69,5.78 z m 0,0 -6.67,-10.35 13.17,3.42 z m 0,0 14.19,-1.15 -4.57,12.38 z m 14.19,-1.15 -7.69,-5.78 3.68,-1.87 z m 0,0 12.45,-7.98 -3.87,13.86 z m 8.58,5.88 -13.15,6.5 4.57,-12.38 z M 178.98,13.06 167.81,4.67 175.72,3.3 Z M 156.5,35.5 146.22,24.59 l 6.12,-2.4 z m 26.11,-20.33 1.72,12.93 -9.22,-1.18 z m 0,0 -3.63,-2.11 5.11,-4.82 z m -3.63,-2.11 -3.26,-9.76 8.37,4.94 z m -3.87,13.86 9.22,1.18 -7.8,6.37 z m 13.83,6.39 -4.61,-5.21 7.79,4.95 z m 4.7,-11.29 -1.52,11.03 -7.79,-4.95 z m -9.31,6.08 -1.72,-12.93 11.03,6.85 z m 4.61,5.21 3.18,-0.26 -0.42,12.26 z m -6.33,-18.14 -7.5,11.75 3.87,-13.86 z m 6.33,18.14 -12.41,1.16 7.8,-6.37 z m -40.04,3.45 7.6,-1.26 1.75,6.98 z m -2.68,-12.17 10.28,10.91 -7.6,1.26 z m 21.88,22.38 -13.81,9.85 3.96,-14.34 z m -6.14,-13.55 -3.71,9.06 -1.75,-6.98 z m -9.62,-11.23 9.62,11.23 -5.46,2.08 z m -3.44,14.57 9.35,5.72 -10.57,4.13 z m 5.39,20.06 -9.01,1.35 2.4,-11.56 z m -9.01,1.35 9.01,-1.35 -2.89,4.97 z m 9.01,-1.35 11.29,8.59 -14.18,-3.62 z m 0,0 -6.61,-10.21 10.57,-4.13 z m 0,0 14.48,-1.48 -3.19,10.07 z m -6.64,6.51 3.75,-1.54 3.97,11.34 z m 10.6,-20.85 3.71,-9.06 6.14,13.55 z m -9.35,-5.72 -1.22,9.85 -13.85,-12.31 z m 19.2,10.21 8.43,-12.5 0.69,10.42 z m 8.43,-12.5 -8.43,12.5 -6.14,-13.55 z m -8.43,12.5 9.12,-2.08 -0.5,10.04 z m 20.84,-13.66 -11.72,11.58 -0.69,-10.42 z m 0,0 2.76,12 -6.76,2.85 z m -11.72,11.58 11.72,-11.58 -4,14.85 z m 1.55,21.84 -10,-11.39 7.95,-0.41 z m -10,-11.39 -0.67,-8.37 8.62,7.96 z m 22.93,-10.03 -6.34,7.41 -0.42,-4.56 z m -6.34,7.41 1.72,10.98 -10.36,-8.77 z m -0.42,-4.56 0.42,4.56 -8.64,2.21 z m -7.72,-3.27 7.72,3.27 -8.22,6.77 z m -8.45,10.45 10,11.39 -13.19,-1.32 z m -0.67,-8.37 0.67,8.37 -14.48,1.48 z m -6.14,-13.55 13.15,-6.5 1.42,7.55 z m 16.81,33.31 -2.05,-11.8 10.36,8.77 z m -31.5,-58.08 6.95,-3.93 4.62,10.54 z m 18.31,56.76 -10.21,7.72 -3.97,-11.34 z m -51.13,1.68 2.83,5.43 -13.48,0.6 z m 0,0 14.51,-5.72 -11.68,11.15 z m -10.65,6.03 13.48,-0.6 -1.27,9.81 z m 1.55,19.1 -10.12,-11.21 11.43,6.98 z m 0,0 1.31,-4.23 12.12,6.56 z m 1.31,-4.23 -11.43,-6.98 8.57,-7.89 z m -2.86,-14.87 12.21,9.21 -9.35,5.66 z m 14.98,21.43 -12.12,-6.56 9.35,-5.66 z m -1.5,-22.03 10.1,5.34 -11.37,4.47 z m 10.1,5.34 9.33,-10.91 0.06,10.07 z m 0,0 -10.1,-5.34 11.68,-11.15 z m 5.63,10.95 3.76,-11.79 8.4,4.76 z m 9.25,-14.85 -5.49,3.06 -0.06,-10.07 z m 5.39,-10.63 -5.39,10.63 -5.55,-7.01 z m -20.27,14.53 9.39,-0.84 -3.76,11.79 z m -8.6,16.69 4.78,-10.48 2.08,14.28 z m 4.78,-10.48 -4.78,10.48 -2.77,-12.22 z m 2.08,14.28 7.37,-9.54 -0.8,9.54 z m 7.37,-9.54 -7.37,9.54 -2.08,-14.28 z m -9.45,-4.74 3.82,-6.21 5.63,10.95 z m 8.65,14.28 0.8,-9.54 10.75,6.79 z m -4.83,-20.49 -3.82,6.21 -7.55,-1.74 z m 1.58,-16.49 7.75,5.58 -9.33,10.91 z m 13.3,12.59 2.91,7.82 -8.4,-4.76 z M 105.35,92.22 94.54,94.6 95.23,81.01 Z m 39.82,-10.44 6.69,1.31 -8.1,12.51 z m 6.69,1.31 -6.69,-1.31 10.2,-8.65 z m 3.51,-9.96 9.84,2.21 -13.35,7.75 z m 0,0 10.21,-7.72 -0.37,9.93 z m -10.2,8.65 -2.91,-7.82 13.11,-0.83 z m 6.69,1.31 13.35,-7.75 2.34,13.29 z m -0.23,18.49 -7.87,-5.98 12.3,-0.39 z m -7.87,-5.98 8.1,-12.51 4.2,12.12 z m 20.51,0.44 3.28,-7.41 3.66,4.4 z m 3.28,-7.41 -3.28,7.41 -8.21,-0.83 z m -15.69,-5.54 15.69,5.54 -11.49,6.58 z m 11.6,20.33 -7.4,-8.21 8.21,0.83 z m 1.75,-28.08 13.52,7.49 -11.18,5.8 z m -20.04,6.44 -1.41,13.82 -10.75,-6.79 z m 26.56,-9.74 7.04,-5.31 6.12,4.34 z m -6.52,3.3 0.37,-9.93 6.15,6.63 z m 6.52,-3.3 13.16,-0.97 -6.16,11.76 z m 13.16,-0.97 -6.12,-4.34 8.31,-3.03 z m 2.19,-7.37 5.52,11.84 -7.71,-4.47 z m -8.35,19.13 6.16,-11.76 7.71,4.47 z m 9.68,15.92 -17.2,-5.72 7.52,-10.2 z m -17.2,-5.72 -3.66,-4.4 11.18,-5.8 z m -6.94,3.01 6.94,-3.01 -7.75,10.39 z m 14.46,-13.21 -13.52,-7.49 6.52,-3.3 z m -31.08,-19.5 7.72,9.8 -13.11,0.83 z m 8.41,31.88 7.4,8.21 -11.83,-1.84 z m 15.67,-23.17 -6.15,-6.63 13.19,1.32 z"
       id="path10" />
    <path
       fill="#e493e2"
       stroke="#000000"
       stroke-width="0.5"
       d="m 43.72,63.33 4.01,-9.39 11.13,9.42 z m 4.01,-9.39 -0.66,-8.14 4.25,5.28 z m 4.09,-45.65 9.78,7.79 -7.57,2.68 z M 61.6,16.08 51.82,8.29 65.41,1.57 Z M 65.41,1.57 72,13.07 61.6,16.08 Z M 72,13.07 65.41,1.57 73.84,2.11 Z M 61.6,16.08 72,13.07 63.33,27.34 Z m -3.33,7.27 -4.24,-4.59 7.57,-2.68 z m 3.33,-7.27 1.73,11.26 -5.06,-3.99 z m 1.73,11.26 -10.3,7.48 5.24,-11.47 z M 72,13.07 l 5.63,11.11 -14.3,3.16 z m 0,0 10.32,-6.23 -0.99,12.01 z m 19.94,13.91 -0.07,-9.52 14.17,6.8 z M 94.07,3.27 91.87,17.46 82.32,6.84 Z M 81.33,18.85 82.32,6.84 91.87,17.46 Z m -3.7,5.33 3.7,-5.33 6.13,7.18 z m 0,0 -5.63,-11.11 9.33,5.78 z m 0,0 9.83,1.85 -4.32,12.27 z m 9.83,1.85 -6.13,-7.18 10.54,-1.39 z m 4.41,-8.57 0.07,9.52 -4.48,-0.95 z M 77.63,24.18 74.21,35.9 63.33,27.34 Z M 95.58,63.49 87.21,57.74 92.09,55 Z M 72,13.07 73.84,2.11 82.32,6.84 Z m 19.94,13.91 -8.8,11.32 4.32,-12.27 z m -40.14,19.24 1.23,-11.4 9.2,10.19 z m 0,0 -4.73,-0.42 5.96,-10.98 z m 15.56,5.4 -5.13,-6.61 10.64,-3.95 z M 64.95,37.9 62.23,45.01 53.03,34.82 Z M 63.33,27.34 64.95,37.9 53.03,34.82 Z M 51.8,46.22 62.23,45.01 51.32,51.08 Z m -0.48,4.86 7.54,12.28 -11.13,-9.42 z m 7.54,12.28 -7.54,-12.28 16.04,0.54 z m 8.5,-11.74 1.23,10.77 -9.73,0.97 z m 1.23,10.77 -1.23,-10.77 7.87,3.39 z m -17.27,-11.31 10.91,-6.07 5.13,6.61 z m 15.89,27.8 -8.35,-15.52 9.73,-0.97 z m -4.98,-33.87 2.72,-7.11 7.92,3.16 z m -10.91,6.07 -4.25,-5.28 4.73,0.42 z m 21.55,-10.02 1.34,-5.16 8.93,2.4 z M 74.21,35.9 72.87,41.06 64.95,37.9 Z M 72.87,41.06 83.14,38.3 75.23,55.01 Z M 95.36,38.72 88.68,42.11 83.14,38.3 Z M 74.21,35.9 77.63,24.18 83.14,38.3 Z m 1.02,19.11 7.91,-16.71 5.54,3.81 z m 0.96,9.5 -7.6,-2.12 6.64,-7.38 z m 0,0 -0.96,-9.5 11.98,2.73 z m 19.39,-1.02 -9.3,3.11 0.93,-8.86 z M 87.21,57.74 86.28,66.6 76.19,64.51 Z m 0,0 -11.98,-2.73 13.45,-12.9 z m 7.81,16.11 -8.74,-7.25 9.3,-3.11 z M 88.68,42.11 92.09,55 87.21,57.74 Z m -12.19,34.74 -7.9,-14.46 7.6,2.12 z M 92.09,55 88.68,42.11 l 8.41,6.68 z m -16.86,0.01 -7.87,-3.39 5.51,-10.56 z m -11.9,-27.67 10.88,8.56 -9.26,2 z M 55.77,74.6 43.72,63.33 58.86,63.36 Z m 27.37,-36.3 8.8,-11.32 3.42,11.74 z m 3.14,28.3 -9.79,10.25 -0.3,-12.34 z M 53.51,81.5 47.94,75.83 55.77,74.6 Z m 2.26,-6.9 11.44,4.28 -13.7,2.62 z m 0,0 3.09,-11.24 8.35,15.52 z m -2.26,6.9 13.7,-2.62 0.36,4.68 z m 13.7,-2.62 5.7,6.08 -5.34,-1.4 z m 5.7,6.08 3.58,-8.11 8.07,1.54 z m 3.58,-8.11 9.79,-10.25 -1.72,11.79 z m 8.07,1.54 10.67,2.62 -6.46,3.05 z m -15.97,-16 7.9,14.46 -9.28,2.03 z m 4.32,22.57 11.65,-6.57 4.21,5.67 z m 3.58,-8.11 -3.58,8.11 -5.7,-6.08 z M 43.72,63.33 55.77,74.6 47.94,75.83 Z m 51.3,10.52 0.21,7.16 -10.67,-2.62 z m -10.46,4.54 1.72,-11.79 8.74,7.25 z M 104.94,6.97 91.87,17.46 94.07,3.27 Z m 1.18,9.22 -1.18,-9.22 7.44,0.35 z m 16.23,-3.34 2.61,-8.83 10.88,11.46 z m 2.61,-8.83 -2.61,8.83 -9.97,-5.53 z m -7.03,9.62 -5.55,-6.32 9.97,5.53 z m -11.89,10.62 0.08,-8.07 11.81,-2.55 z m 0,0 -14.17,-6.8 14.25,-1.27 z m 21.52,0.44 -14.78,4.01 5.15,-15.07 z m -9.63,-11.06 -5.15,15.07 -6.74,-4.45 z m -11.81,2.55 6.26,-8.87 5.55,6.32 z m -0.08,8.07 6.74,4.45 -6.75,7.36 z m 11.89,-10.62 4.42,-0.79 5.21,11.85 z m -11.89,10.62 -0.01,11.81 -14.09,-9.09 z m 29.8,-8.78 -8.28,9.22 -5.21,-11.85 z m -2.01,18.82 -8.19,-1.6 1.92,-8 z m -6.27,-9.6 -1.92,8 -12.86,-3.99 z m 6.27,9.6 -6.27,-9.6 7.62,-3.21 z m 12.39,-9.71 -11.04,-3.1 0.66,-6.01 z m -18.66,0.11 8.28,-9.22 -0.66,6.01 z m 6.27,9.6 1.35,-12.81 11.04,3.1 z M 135.84,15.48 124.96,4.02 135.72,3.8 Z m -23.06,13.23 12.86,3.99 -8.99,5.05 z M 97.09,48.79 95.36,38.72 106.03,36.07 Z m -1.73,-10.07 -3.42,-11.74 14.09,9.09 z m 13.14,8.54 2.74,0.94 -3.47,8.94 z m 8.15,-9.51 -5.41,10.45 -2.74,-0.94 z m -5.41,10.45 15.48,-4.56 -10.74,9.89 z m -14.15,0.59 8.94,-12.72 2.47,11.19 z m -5,6.21 15.68,2.14 -12.19,6.35 z m 0,0 5,-6.21 10.68,8.35 z m 15.43,10.84 -11.94,-2.35 12.19,-6.35 z m 0.25,-8.7 -10.68,-8.35 11.41,-1.53 z m 3.47,-8.94 4.74,5.33 -8.21,3.61 z m 4.74,5.33 -1.53,13.56 -6.68,-9.95 z m 0.67,-15.78 -8.15,9.51 -2.47,-11.19 z m -12.85,35.37 -8.78,0.73 0.56,-10.36 z m 12.18,-19.59 10.74,-9.89 -0.97,14.64 z m 0.67,-15.78 8.99,-5.05 1.08,10.94 z m 17.18,-3.45 -1.24,13.74 -5.87,-4.4 z m -27.8,1.77 6.75,-7.36 3.87,9.04 z m 19.72,22.21 0.97,-14.64 5.87,4.4 z m -11.3,8.81 1.53,-13.56 9.77,4.75 z m 12.27,-23.45 -15.48,4.56 5.41,-10.45 z m 7.11,-9.34 -7.11,9.34 -1.08,-10.94 z M 106.12,16.19 91.87,17.46 104.94,6.97 Z m -2.32,56.93 3.72,-7.28 6.93,1.25 z m -8.57,7.89 -0.21,-7.16 8.78,-0.73 z m 12.54,-23.87 6.68,9.95 -6.93,-1.25 z m -3.97,15.98 -8.22,-9.63 11.94,2.35 z m -15.12,-31.01 6.68,-3.39 1.73,10.07 z"
       id="path11" />
    <path
       fill="#31f03b"
       stroke="#000000"
       stroke-width="0.5"
       d="m 7.11,13.04 7.93,-7.33 -3.76,7.23 z M 15.04,5.71 7.11,13.04 2.07,7.78 Z m -3.76,7.23 3.76,-7.23 10.86,8.96 z m 9.94,9.9 -9.94,-9.9 14.62,1.73 z M 7.11,13.04 11.28,12.94 4.96,24.6 Z M 22.42,35.68 17.38,24.31 21.22,22.84 Z M 4.96,24.6 l 6.32,-11.66 6.1,11.37 z m 6.32,-11.66 9.94,9.9 -3.84,1.47 z M 12.38,35.39 4.96,24.6 17.38,24.31 Z M 25.9,14.67 15.04,5.71 25.31,5.99 Z m 0,0 6.89,-8.48 1.37,9.42 z M 32.79,6.19 25.9,14.67 25.31,5.99 Z m 1.37,9.42 10.72,-6.73 -2,7.92 z M 44.88,8.88 34.16,15.61 32.79,6.19 Z m -18.98,5.79 8.26,0.94 -0.59,10.44 z m 22.39,18.03 -16.82,0.69 2.1,-7.34 z M 31.47,33.39 21.22,22.84 33.57,26.05 Z m 2.1,-7.34 8.11,-3.69 6.61,10.34 z m 8.11,-3.69 -8.11,3.69 0.59,-10.44 z m -7.52,-6.75 8.72,1.19 -1.2,5.56 z M 48.29,32.7 38.74,48 31.47,33.39 Z m 5.74,-13.94 -12.35,3.6 1.2,-5.56 z M 33.57,26.05 21.22,22.84 25.9,14.67 Z m -2.1,7.34 -9.05,2.29 -1.2,-12.84 z M 1.75,41.23 6.21,37.31 16.62,46.4 Z M 12.38,35.39 16.62,46.4 6.21,37.31 Z M 16.62,46.4 12.38,35.39 22.42,35.68 Z M 6.21,37.31 4.96,24.6 12.38,35.39 Z M 1.75,41.23 16.62,46.4 7.69,54.46 Z M 7.1,61.02 7.69,54.46 14,54.51 Z M 14,54.51 15.07,67.23 7.1,61.02 Z m 0,0 9.04,13.22 -7.97,-0.5 z M 7.69,54.46 16.62,46.4 14,54.51 Z M 7.1,61.02 15.07,67.23 4.56,76.77 Z M 14,54.51 16.62,46.4 27.38,57.53 Z M 27.89,47.39 27.38,57.53 16.62,46.4 Z m -5.47,-11.71 9.05,-2.29 -3.58,14 z M 38.74,48 l 8.33,-2.2 0.66,8.14 z M 27.89,47.39 31.47,33.39 38.74,48 Z M 38.74,48 48.29,32.7 47.07,45.8 Z M 27.89,47.39 38.74,48 33.45,57.87 Z m 5.59,21.12 -6.1,-10.98 6.07,0.34 z m -6.1,-10.98 0.51,-10.14 5.56,10.48 z M 47.73,53.94 43.72,63.33 33.45,57.87 Z M 38.74,48 47.73,53.94 33.45,57.87 Z M 14,54.51 27.38,57.53 23.04,67.73 Z M 27.89,47.39 16.62,46.4 22.42,35.68 Z m -15.51,-12 5,-11.08 5.04,11.37 z M 43.72,63.33 33.48,68.51 33.45,57.87 Z m 8.1,-55.04 -8.94,8.51 2,-7.92 z m -3.53,24.41 5.74,-13.94 4.24,4.59 z m 0,0 -6.61,-10.34 12.35,-3.6 z m 0,0 9.98,-9.35 -5.24,11.47 z M 54.03,18.76 42.88,16.8 51.82,8.29 Z m -6.96,27.04 1.22,-13.1 4.74,2.12 z M 14.92,81.24 4.56,76.77 15.17,74.15 Z m -10.36,-4.47 10.51,-9.54 0.1,6.92 z m 21.82,-5.1 -11.21,2.48 7.87,-6.42 z m -11.21,2.48 11.21,-2.48 -5.25,9.45 z m -0.1,-6.92 7.97,0.5 -7.87,6.42 z m -0.15,14.01 0.25,-7.09 5.96,6.97 z m -6.71,10 -5.38,-2.68 12.09,-7.32 z M 27.04,93 11.35,96.63 14.92,81.24 Z M 14.92,81.24 11.35,96.63 8.21,91.24 Z M 2.83,88.56 4.56,76.77 14.92,81.24 Z M 1.2,105.33 8.21,91.24 11.35,96.63 Z M 14.92,81.24 21.13,81.12 27.04,93 Z M 33.02,81.07 27.04,93 21.13,81.12 Z m 0,0 -6.64,-9.4 10.57,2.66 z m 0.46,-12.56 3.47,5.82 -10.57,-2.66 z m 0,0 10.24,-5.18 -6.77,11 z m -7.1,3.16 -3.34,-3.94 10.44,0.78 z M 38.03,91.3 33.02,81.07 48.63,88.1 Z m -10.99,1.7 10.99,-1.7 3.8,10.01 z M 38.03,91.3 27.04,93 33.02,81.07 Z m 4.05,4.11 -0.25,5.9 -3.8,-10.01 z m 0,0 -4.05,-4.11 10.6,-3.2 z m 5.86,-19.58 -14.92,5.24 3.93,-6.74 z m -14.92,5.24 -11.89,0.05 5.25,-9.45 z m -9.98,-13.34 4.34,-10.2 6.1,10.98 z m 18.79,33.58 0.25,-5.9 16.23,3.35 z m 6.11,-25.48 5.57,5.67 -4.88,6.6 z m -4.22,-12.5 4.22,12.5 -10.99,-1.5 z m 14.59,35.43 0.45,3.13 -16.93,-0.58 z m 0,0 -9.68,-10.66 13.23,7.01 z m 3.55,-3.65 5.71,-11.55 7.26,9.24 z m 0,0 -13.23,-7.01 4.88,-6.6 z M 53.51,81.5 67.57,83.56 61.86,95.11 Z m 5.25,20.39 -0.45,-3.13 3.55,-3.65 z M 47.94,75.83 48.63,88.1 33.02,81.07 Z m 24.97,9.13 1.92,7.84 -7.26,-9.24 z m 0,0 15.86,-0.9 -13.94,8.74 z m 9.41,18.64 -7.49,-10.8 12.59,1.66 z M 74.83,92.8 88.77,84.06 87.42,94.46 Z M 88.77,84.06 94.54,94.6 87.42,94.46 Z M 68.35,103.35 61.86,95.11 74.83,92.8 Z m 25.09,0.85 -6.02,-9.74 7.12,0.14 z m -40.72,11.74 6.04,-14.05 9.39,10.24 z m 0,0 -10.89,-14.63 16.93,0.58 z m 25.54,2.4 -9.98,2.91 -0.13,-9.12 z m -9.91,-14.99 -0.2,8.78 -9.39,-10.24 z m -6.49,-8.24 6.49,8.24 -9.59,-1.46 z m -9.14,20.83 15.43,-3.81 0.13,9.12 z m 18.67,15.63 1.81,-5.4 12.61,8.1 z m 1.81,-5.4 -1.81,5.4 -3.11,-10.32 z m 0,0 -4.92,-4.92 9.98,-2.91 z m -5.05,-14.04 0.2,-8.78 5.95,2.13 z m 10.11,6.21 4.06,-14.74 -0.31,14.67 z m 4.06,-14.74 -4.06,14.74 -3.96,-12.86 z m 0,0 11.12,0.6 -11.43,14.07 z m -7.49,-10.8 7.49,10.8 -8.02,1.88 z m -6.48,10.55 6.48,-10.55 -0.53,12.68 z m 20.33,18.6 -6.67,-3.68 15.25,-1.8 z m -6.67,-3.68 -8.81,7.9 5.06,-7.83 z m 6.67,3.68 -15.48,4.22 8.81,-7.9 z m 6.26,4.23 -0.92,6.45 -8.21,1.64 z m 2.32,-9.71 -2.32,9.71 -6.26,-4.23 z m -2.32,9.71 -9.13,8.09 2.87,-12.32 z m -6.26,-4.23 -2.87,12.32 -12.61,-8.1 z m 4.76,-17.75 3.82,12.27 -15.25,1.8 z m -19.14,1.28 3.96,12.86 -10.11,-6.21 z m 13.12,-11.02 6.02,9.74 -11.12,-0.6 z m -45.34,0.95 6.55,-7.31 9.68,10.66 z"
       id="path12" />
  </g>
  <path
     id="path59"
     sodipodi:type="inkscape:offset"
     inkscape:radius="0"
     inkscape:original="M 27.039062 93 L 11.349609 96.630859 L 1.1992188 105.33008 L 8.5097656 114.05078 L 2.7304688 124.38086 L 1.2304688 132.76953 L 4.5 144.9707 L 2.859375 152.84961 L 2.75 164.67969 L 3.3203125 171.16992 L 7.6992188 185.44922 L 6.140625 192.49023 L 8.9394531 207.88086 L 1.9707031 213.66016 L 6.7695312 226.68945 L 8.4902344 234.38086 L 7.640625 246.35938 L 3.4296875 255.69922 L 8.0605469 267.76953 L 13.849609 263.76953 L 27.380859 265.13086 L 38.060547 266.5 L 42.929688 266.94922 L 52.949219 261.58008 L 65.560547 261.5 L 73.779297 265.11914 L 87.150391 265.56055 L 98.179688 266.99023 L 102.85938 265.49023 L 111.75977 264.19922 L 121.48047 268.48047 L 133.64062 263.71094 L 148.53906 266.15039 L 155.67969 261.32031 L 163.08008 267.85938 L 177.83008 261.84961 L 178.24023 251.92969 L 186.55078 245.2793 L 182.44922 238.03906 L 183.71094 225.84961 L 191.25 212.10938 L 193.15039 201.40039 L 208.31055 192.14062 L 206.46094 182.25 L 201.24023 173.4707 L 206.78906 166.48047 L 193.00977 167.16016 L 182.56055 155.49023 L 173.76953 158.57031 L 165.5293 153.94922 L 157.7793 146.67969 L 145.00977 145.21094 L 142.18945 158.32031 L 134.16016 166.66016 L 122.03906 154.69922 L 113.89062 147.00977 L 106.25 141.16016 L 94.019531 132.63086 L 85.810547 134.26953 L 71.390625 131.57031 L 68.279297 121.25 L 52.720703 115.93945 L 41.830078 101.31055 L 27.039062 93 z "
     d="m 27.039062,93 -15.689453,3.630859 -10.1503902,8.699221 7.3105468,8.7207 -5.7792968,10.33008 -1.5,8.38867 L 4.5,144.9707 2.859375,152.84961 2.75,164.67969 l 0.5703125,6.49023 4.3789063,14.2793 -1.5585938,7.04101 2.7988281,15.39063 -6.96875,5.7793 4.7988281,13.02929 1.7207032,7.69141 -0.8496094,11.97852 -4.2109375,9.33984 4.6308594,12.07031 5.7890621,-4 13.53125,1.36133 10.679688,1.36914 4.869141,0.44922 10.019531,-5.36914 12.611328,-0.0801 8.21875,3.61914 13.371094,0.44141 11.029297,1.42968 4.679692,-1.5 8.90039,-1.29101 9.7207,4.28125 12.16015,-4.76953 14.89844,2.43945 7.14063,-4.83008 7.40039,6.53907 14.75,-6.00977 0.41015,-9.91992 8.31055,-6.65039 -4.10156,-7.24024 1.26172,-12.18945 7.53906,-13.74023 1.90039,-10.70899 15.16016,-9.25977 -1.84961,-9.89062 -5.22071,-8.7793 5.54883,-6.99023 -13.77929,0.67969 -10.44922,-11.66993 -8.79102,3.08008 -8.24023,-4.62109 -7.75,-7.26953 -12.76953,-1.46875 -2.82032,13.10937 -8.02929,8.33985 -12.1211,-11.96094 -8.14844,-7.68945 -7.64062,-5.84961 -12.230469,-8.5293 -8.208984,1.63867 L 71.390625,131.57031 68.279297,121.25 52.720703,115.93945 41.830078,101.31055 Z"
     style="display:inline;stroke:#fe0000;stroke-opacity:1;fill:none;stroke-width:3;stroke-dasharray:none" />
  <path
     id="path55"
     sodipodi:type="inkscape:offset"
     inkscape:radius="0"
     inkscape:original="M 211.89062 112.11914 L 204.78906 124.23047 L 213.16992 138.86914 L 206.24023 145.34961 L 193.64062 152.11914 L 193.00977 167.16016 L 206.78906 166.48047 L 201.24023 173.4707 L 206.46094 182.25 L 208.31055 192.14062 L 193.15039 201.40039 L 191.25 212.10938 L 183.71094 225.84961 L 182.44922 238.03906 L 186.55078 245.2793 L 178.24023 251.92969 L 177.83008 261.84961 L 186.51953 266.16016 L 198.58984 263.82031 L 203.16016 266.33984 L 216.58984 266.08008 L 224.13086 261.03906 L 237.24023 265.98047 L 241.4707 267.63086 L 258.65039 265.75977 L 265.41016 266.09961 L 276.98047 261.23047 L 288.61914 264.46094 L 298.91016 266.16016 L 306.98047 267 L 317.34961 266.32031 L 322.88086 266.16016 L 334.46094 267.9707 L 343.01953 263.44922 L 352.28906 264.53906 L 361.28906 262.55078 L 377.01953 262.39062 L 384.4707 267.4707 L 386.68945 253.34961 L 385.89062 244.08008 L 382.7793 231.5293 L 387.24023 227.7207 L 388.67969 215.83008 L 384.10938 208.21094 L 386.35938 192.41016 L 384.17969 186.58984 L 383.31055 172.80078 L 387.28906 167.83008 L 386.28906 154.26953 L 383.89062 145.75977 L 372.16992 158.76953 L 367.30078 153.25977 L 355.56055 156.59961 L 343.92969 155.4707 L 332.67969 152.98047 L 321.58008 147.38086 L 318.09961 142.91016 L 306.94922 148.0293 L 302.2207 138.91992 L 293.48047 125.83984 L 283.0293 135.41992 L 273.11914 128.75 L 268.25 134.76953 L 254.85938 125.91016 L 246.9707 124.06055 L 231.94922 116.15039 L 224.76953 114.93945 L 211.89062 112.11914 z "
     d="m 211.89062,112.11914 -7.10156,12.11133 8.38086,14.63867 -6.92969,6.48047 -12.59961,6.76953 -0.63085,15.04102 13.77929,-0.67969 -5.54883,6.99023 5.22071,8.7793 1.84961,9.89062 -15.16016,9.25977 -1.90039,10.70899 -7.53906,13.74023 -1.26172,12.18945 4.10156,7.24024 -8.31055,6.65039 -0.41015,9.91992 8.68945,4.31055 12.07031,-2.33985 4.57032,2.51953 13.42968,-0.25976 7.54102,-5.04102 13.10937,4.94141 4.23047,1.65039 17.17969,-1.87109 6.75977,0.33984 11.57031,-4.86914 11.63867,3.23047 10.29102,1.69922 8.07031,0.83984 10.36914,-0.67969 5.53125,-0.16015 11.58008,1.81054 8.55859,-4.52148 9.26953,1.08984 9,-1.98828 15.73047,-0.16016 7.45117,5.08008 2.21875,-14.12109 -0.79883,-9.26953 -3.11132,-12.55078 4.46093,-3.8086 1.43946,-11.89062 -4.57031,-7.61914 2.25,-15.80078 -2.17969,-5.82032 -0.86914,-13.78906 3.97851,-4.9707 -1,-13.56055 -2.39844,-8.50976 -11.7207,13.00976 -4.86914,-5.50976 -11.74023,3.33984 -11.63086,-1.12891 -11.25,-2.49023 -11.09961,-5.59961 -3.48047,-4.4707 -11.15039,5.11914 -4.72852,-9.10938 -8.74023,-13.08008 -10.45117,9.58008 -9.91016,-6.66992 -4.86914,6.01953 -13.39062,-8.85937 -7.88868,-1.84961 -15.02148,-7.91016 -7.17969,-1.21094 z"
     style="display:inline;fill:none;stroke:#ff0101;stroke-width:3;stroke-dasharray:none;stroke-opacity:1" />
  <path
     id="path51"
     sodipodi:type="inkscape:offset"
     inkscape:radius="0"
     inkscape:original="M 225.15039 1.4492188 L 217.40039 5.8300781 L 207.42969 6.1308594 L 197.5 8.1308594 L 184.08984 8.2402344 L 182.60938 15.169922 L 193.64062 22.019531 L 192.11914 33.050781 L 191.69922 45.310547 L 185.35938 52.720703 L 187.08008 63.699219 L 192.59961 75.539062 L 178.73047 82.830078 L 188.41016 98.75 L 202.7207 94.480469 L 205.36914 103 L 211.89062 112.11914 L 224.76953 114.93945 L 231.94922 116.15039 L 246.9707 124.06055 L 254.85938 125.91016 L 268.25 134.76953 L 273.11914 128.75 L 283.0293 135.41992 L 293.48047 125.83984 L 302.2207 138.91992 L 306.94922 148.0293 L 318.09961 142.91016 L 321.58008 147.38086 L 332.67969 152.98047 L 343.92969 155.4707 L 355.56055 156.59961 L 367.30078 153.25977 L 372.16992 158.76953 L 383.89062 145.75977 L 388.53906 133.75 L 387.08008 123.63086 L 387.25 118.24023 L 385.75977 102.96094 L 382.92969 92.599609 L 385.28906 82.75 L 384.88086 74.150391 L 385.74023 64.699219 L 386.78906 53.560547 L 385.4707 46.080078 L 387.58984 38.609375 L 385.28906 23.529297 L 384.66992 15.300781 L 384.91016 4.5703125 L 378.80078 4.5996094 L 367.66016 8.6308594 L 354.90039 8.609375 L 345.65039 4.8007812 L 332.36914 7.8496094 L 321.94922 2.6191406 L 318.91992 3.1191406 L 302.0293 6.5292969 L 296.66016 3.75 L 283.51953 7 L 275.66016 4.8808594 L 262.51953 5.0800781 L 253.51953 7.5 L 246.84961 3.6894531 L 237.42969 8.859375 L 225.15039 1.4492188 z "
     d="m 225.15039,1.4492188 -7.75,4.3808593 -9.9707,0.3007813 -9.92969,2 -13.41016,0.109375 -1.48046,6.9296876 11.03124,6.849609 -1.52148,11.03125 -0.41992,12.259766 -6.33984,7.410156 1.7207,10.978516 5.51953,11.839843 -13.86914,7.291016 L 188.41016,98.75 202.7207,94.480469 205.36914,103 l 6.52148,9.11914 12.87891,2.82031 7.17969,1.21094 15.02148,7.91016 7.88868,1.84961 13.39062,8.85937 4.86914,-6.01953 9.91016,6.66992 10.45117,-9.58008 8.74023,13.08008 4.72852,9.10938 11.15039,-5.11914 3.48047,4.4707 11.09961,5.59961 11.25,2.49023 11.63086,1.12891 11.74023,-3.33984 4.86914,5.50976 11.7207,-13.00976 4.64844,-12.00977 -1.45898,-10.11914 0.16992,-5.39063 -1.49023,-15.27929 -2.83008,-10.361331 2.35937,-9.849609 -0.4082,-8.599609 0.85937,-9.451172 1.04883,-11.138672 -1.31836,-7.480469 2.11914,-7.470703 -2.30078,-15.080078 -0.61914,-8.228516 0.24024,-10.7304685 -6.10938,0.029297 -11.14062,4.03125 -12.75977,-0.021484 -9.25,-3.8085938 -13.28125,3.0488282 -10.41992,-5.2304688 -3.0293,0.5 L 302.0293,6.5292969 296.66016,3.75 283.51953,7 275.66016,4.8808594 262.51953,5.0800781 253.51953,7.5 246.84961,3.6894531 237.42969,8.859375 Z"
     style="display:inline;stroke-width:3;stroke-dasharray:none;stroke:#ff0101;stroke-opacity:1;fill:none" />
  <path
     id="path29"
     style="display:inline;fill:none;stroke:#ff0101;stroke-width:3;stroke-dasharray:none;stroke-opacity:1"
     sodipodi:type="inkscape:offset"
     inkscape:radius="0"
     inkscape:original="M 65.410156 1.5703125 L 51.820312 8.2890625 L 44.880859 8.8808594 L 32.789062 6.1894531 L 25.310547 5.9902344 L 15.039062 5.7109375 L 2.0703125 7.7792969 L 7.109375 13.039062 L 4.9609375 24.599609 L 6.2109375 37.310547 L 1.75 41.230469 L 7.6894531 54.460938 L 7.0996094 61.019531 L 4.5605469 76.769531 L 2.8300781 88.560547 L 8.2109375 91.240234 L 1.1992188 105.33008 L 11.349609 96.630859 L 27.039062 93 L 41.830078 101.31055 L 52.720703 115.93945 L 68.279297 121.25 L 71.390625 131.57031 L 85.810547 134.26953 L 94.019531 132.63086 L 106.25 141.16016 L 113.89062 147.00977 L 122.03906 154.69922 L 134.16016 166.66016 L 142.18945 158.32031 L 145.00977 145.21094 L 157.7793 146.67969 L 165.5293 153.94922 L 173.76953 158.57031 L 182.56055 155.49023 L 193.00977 167.16016 L 193.64062 152.11914 L 206.24023 145.34961 L 213.16992 138.86914 L 204.78906 124.23047 L 211.89062 112.11914 L 205.36914 103 L 202.7207 94.480469 L 188.41016 98.75 L 178.73047 82.830078 L 192.59961 75.539062 L 187.08008 63.699219 L 185.35938 52.720703 L 191.69922 45.310547 L 192.11914 33.050781 L 193.64062 22.019531 L 182.60938 15.169922 L 184.08984 8.2402344 L 175.7207 3.3007812 L 167.81055 4.6699219 L 154.2207 4.7207031 L 147.26953 8.6503906 L 135.7207 3.8007812 L 124.96094 4.0195312 L 112.38086 7.3203125 L 104.93945 6.9707031 L 94.070312 3.2695312 L 82.320312 6.8398438 L 73.839844 2.109375 L 65.410156 1.5703125 z "
     d="M 65.410156,1.5703125 51.820312,8.2890625 44.880859,8.8808594 32.789062,6.1894531 25.310547,5.9902344 15.039062,5.7109375 2.0703125,7.7792969 7.109375,13.039062 4.9609375,24.599609 l 1.25,12.710938 L 1.75,41.230469 7.6894531,54.460938 7.0996094,61.019531 4.5605469,76.769531 2.8300781,88.560547 8.2109375,91.240234 1.1992188,105.33008 11.349609,96.630859 27.039062,93 l 14.791016,8.31055 10.890625,14.6289 15.558594,5.31055 3.111328,10.32031 14.419922,2.69922 8.208984,-1.63867 12.230469,8.5293 7.64062,5.84961 8.14844,7.68945 12.1211,11.96094 8.02929,-8.33985 2.82032,-13.10937 12.76953,1.46875 7.75,7.26953 8.24023,4.62109 8.79102,-3.08008 10.44922,11.66993 0.63085,-15.04102 12.59961,-6.76953 6.92969,-6.48047 -8.38086,-14.63867 7.10156,-12.11133 L 205.36914,103 202.7207,94.480469 188.41016,98.75 l -9.67969,-15.919922 13.86914,-7.291016 -5.51953,-11.839843 -1.7207,-10.978516 6.33984,-7.410156 0.41992,-12.259766 1.52148,-11.03125 -11.03124,-6.849609 1.48046,-6.9296876 -8.36914,-4.9394532 -7.91015,1.3691407 -13.58985,0.050781 -6.95117,3.9296875 -11.54883,-4.8496094 -10.75976,0.21875 -12.58008,3.3007813 -7.44141,-0.3496094 -10.869138,-3.7011719 -11.75,3.5703126 -8.480468,-4.7304688 z" />
</svg>
