<?xml version="1.0" encoding="UTF-8" standalone="no"?>
<svg
   viewBox="0 0 390 270"
   version="1.1"
   id="svg2"
   sodipodi:docname="meshlets-3.svg"
   inkscape:version="1.3.2 (091e20ef0f, 2023-11-25, custom)"
   xmlns:inkscape="http://www.inkscape.org/namespaces/inkscape"
   xmlns:sodipodi="http://sodipodi.sourceforge.net/DTD/sodipodi-0.dtd"
   xmlns="http://www.w3.org/2000/svg"
   xmlns:svg="http://www.w3.org/2000/svg">
  <defs
     id="defs2" />
  <sodipodi:namedview
     id="namedview2"
     pagecolor="#ffffff"
     bordercolor="#000000"
     borderopacity="0.25"
     inkscape:showpageshadow="2"
     inkscape:pageopacity="0.0"
     inkscape:pagecheckerboard="0"
     inkscape:deskcolor="#d1d1d1"
     inkscape:zoom="2.9777778"
     inkscape:cx="194.94403"
     inkscape:cy="135"
     inkscape:window-width="1920"
     inkscape:window-height="1008"
     inkscape:window-x="0"
     inkscape:window-y="0"
     inkscape:window-maximized="1"
     inkscape:current-layer="svg2" />
  <path
     fill="#fe69c8"
     stroke="#000"
     stroke-width="0.5"
     d="M 207.43,6.13 192.12,33.05 197.50,8.13 Z M 217.40,5.83 192.12,33.05 207.43,6.13 Z M 237.43,8.86 244.74,32.19 217.40,5.83 Z M 244.74,32.19 237.43,8.86 253.52,7.50 Z M 237.43,8.86 217.40,5.83 225.15,1.45 Z M 244.74,32.19 192.12,33.05 217.40,5.83 Z M 192.12,33.05 208.19,66.06 192.60,75.54 Z M 192.12,33.05 244.74,32.19 208.19,66.06 Z M 192.60,75.54 208.19,66.06 211.43,84.77 Z M 211.43,84.77 234.42,67.36 236.60,86.52 Z M 234.42,67.36 211.43,84.77 208.19,66.06 Z M 254.07,78.39 236.60,86.52 234.42,67.36 Z M 211.43,84.77 236.60,86.52 224.77,114.94 Z M 244.74,32.19 234.42,67.36 208.19,66.06 Z M 192.60,75.54 211.43,84.77 174.19,116.79 Z M 234.42,67.36 244.74,32.19 251.97,58.25 Z M 263.88,28.02 262.52,5.08 275.66,4.88 Z M 283.52,7.00 296.66,3.75 302.03,6.53 Z M 263.88,28.02 283.52,7.00 318.38,48.83 Z M 283.52,7.00 263.88,28.02 275.66,4.88 Z M 254.07,78.39 251.97,58.25 272.19,61.86 Z M 244.74,32.19 253.52,7.50 263.88,28.02 Z M 244.74,32.19 263.88,28.02 251.97,58.25 Z M 251.97,58.25 254.07,78.39 234.42,67.36 Z M 263.88,28.02 272.19,61.86 251.97,58.25 Z M 272.19,61.86 263.88,28.02 318.38,48.83 Z M 272.19,61.86 297.86,74.60 286.79,102.76 Z M 297.86,74.60 272.19,61.86 318.38,48.83 Z M 253.52,7.50 262.52,5.08 263.88,28.02 Z M 272.19,61.86 286.79,102.76 254.07,78.39 Z M 318.38,48.83 311.07,85.30 297.86,74.60 Z M 236.60,86.52 254.07,78.39 286.79,102.76 Z M 283.52,7.00 302.03,6.53 318.38,48.83 Z M 237.43,8.86 246.85,3.69 253.52,7.50 Z M 311.07,85.30 286.79,102.76 297.86,74.60 Z M 193.64,152.12 175.40,145.28 174.19,116.79 Z M 238.82,142.91 193.01,167.16 193.64,152.12 Z M 224.77,114.94 193.64,152.12 174.19,116.79 Z M 203.68,228.11 193.01,167.16 255.02,157.84 Z M 211.43,84.77 224.77,114.94 174.19,116.79 Z M 182.19,184.31 193.01,167.16 203.68,228.11 Z M 203.16,266.34 198.59,263.82 216.59,266.08 Z M 224.13,261.04 198.59,263.82 203.68,228.11 Z M 224.13,261.04 216.59,266.08 198.59,263.82 Z M 245.74,245.92 237.24,265.98 224.13,261.04 Z M 245.74,245.92 224.13,261.04 203.68,228.11 Z M 224.77,114.94 238.82,142.91 193.64,152.12 Z M 255.02,157.84 245.74,245.92 203.68,228.11 Z M 255.02,157.84 238.82,142.91 286.79,102.76 Z M 245.74,245.92 255.02,157.84 281.68,157.54 Z M 245.74,245.92 241.47,267.63 237.24,265.98 Z M 306.40,171.25 281.68,157.54 324.09,104.41 Z M 286.79,102.76 281.68,157.54 255.02,157.84 Z M 286.79,102.76 324.09,104.41 281.68,157.54 Z M 281.68,157.54 306.40,171.25 245.74,245.92 Z M 238.82,142.91 224.77,114.94 286.79,102.76 Z M 276.98,261.23 245.74,245.92 312.20,231.34 Z M 241.47,267.63 245.74,245.92 258.65,265.76 Z M 258.65,265.76 245.74,245.92 265.41,266.10 Z M 288.62,264.46 276.98,261.23 312.20,231.34 Z M 298.91,266.16 288.62,264.46 312.20,231.34 Z M 298.91,266.16 312.20,231.34 306.98,267.00 Z M 276.98,261.23 265.41,266.10 245.74,245.92 Z M 312.20,231.34 245.74,245.92 306.40,171.25 Z M 193.01,167.16 238.82,142.91 255.02,157.84 Z M 236.60,86.52 286.79,102.76 224.77,114.94 Z M 324.09,104.41 286.79,102.76 311.07,85.30 Z M 318.92,3.12 321.95,2.62 332.37,7.85 Z M 318.92,3.12 332.37,7.85 335.40,28.09 Z M 332.37,7.85 345.65,4.80 335.40,28.09 Z M 335.40,28.09 345.65,4.80 354.90,8.61 Z M 311.07,85.30 342.31,53.90 324.09,104.41 Z M 318.38,48.83 302.03,6.53 335.40,28.09 Z M 342.31,53.90 318.38,48.83 335.40,28.09 Z M 343.93,155.47 306.40,171.25 324.09,104.41 Z M 367.66,8.63 385.29,23.53 354.90,8.61 Z M 335.40,28.09 387.59,38.61 342.31,53.90 Z M 354.17,104.59 342.31,53.90 384.88,74.15 Z M 342.31,53.90 354.17,104.59 324.09,104.41 Z M 385.29,23.53 335.40,28.09 354.90,8.61 Z M 343.93,155.47 324.09,104.41 354.17,104.59 Z M 384.67,15.30 367.66,8.63 378.80,4.60 Z M 311.07,85.30 318.38,48.83 342.31,53.90 Z M 367.66,8.63 384.67,15.30 385.29,23.53 Z M 387.59,38.61 335.40,28.09 385.29,23.53 Z M 385.47,46.08 342.31,53.90 387.59,38.61 Z M 386.79,53.56 385.74,64.70 342.31,53.90 Z M 385.47,46.08 386.79,53.56 342.31,53.90 Z M 354.17,104.59 385.29,82.75 382.93,92.60 Z M 384.88,74.15 385.29,82.75 354.17,104.59 Z M 354.17,104.59 387.25,118.24 387.08,123.63 Z M 354.17,104.59 385.76,102.96 387.25,118.24 Z M 385.74,64.70 384.88,74.15 342.31,53.90 Z M 354.17,104.59 382.93,92.60 385.76,102.96 Z M 384.67,15.30 378.80,4.60 384.91,4.57 Z M 383.89,145.76 354.17,104.59 387.08,123.63 Z M 306.40,171.25 364.04,186.24 312.20,231.34 Z M 306.40,171.25 343.93,155.47 364.04,186.24 Z M 364.04,186.24 343.93,155.47 383.31,172.80 Z M 312.20,231.34 364.04,186.24 364.55,242.46 Z M 377.02,262.39 364.55,242.46 386.69,253.35 Z M 384.11,208.21 382.78,231.53 364.55,242.46 Z M 385.89,244.08 364.55,242.46 382.78,231.53 Z M 312.20,231.34 364.55,242.46 343.02,263.45 Z M 364.55,242.46 364.04,186.24 384.11,208.21 Z M 361.29,262.55 364.55,242.46 377.02,262.39 Z M 317.35,266.32 312.20,231.34 322.88,266.16 Z M 334.46,267.97 322.88,266.16 343.02,263.45 Z M 364.55,242.46 352.29,264.54 343.02,263.45 Z M 352.29,264.54 364.55,242.46 361.29,262.55 Z M 312.20,231.34 343.02,263.45 322.88,266.16 Z M 312.20,231.34 317.35,266.32 306.98,267.00 Z M 386.29,154.27 343.93,155.47 383.89,145.76 Z M 383.31,172.80 343.93,155.47 386.29,154.27 Z M 386.36,192.41 364.04,186.24 384.18,186.59 Z M 386.29,154.27 387.29,167.83 383.31,172.80 Z M 343.93,155.47 354.17,104.59 383.89,145.76 Z M 386.69,253.35 364.55,242.46 385.89,244.08 Z M 377.02,262.39 386.69,253.35 384.47,267.47 Z M 388.68,215.83 382.78,231.53 384.11,208.21 Z M 387.24,227.72 382.78,231.53 388.68,215.83 Z M 364.04,186.24 386.36,192.41 384.11,208.21 Z M 364.04,186.24 383.31,172.80 384.18,186.59 Z M 387.08,123.63 388.54,133.75 383.89,145.76 Z M 302.03,6.53 318.92,3.12 335.40,28.09 Z"
     id="path1" />
  <path
     fill="#aed5fc"
     stroke="#000"
     stroke-width="0.5"
     d="M 7.69,54.46 6.21,37.31 48.29,32.70 Z M 4.96,24.60 48.29,32.70 6.21,37.31 Z M 7.11,13.04 25.31,5.99 4.96,24.60 Z M 6.21,37.31 7.69,54.46 1.75,41.23 Z M 2.07,7.78 15.04,5.71 7.11,13.04 Z M 1.23,132.77 2.73,124.38 22.35,133.18 Z M 8.21,91.24 2.83,88.56 4.56,76.77 Z M 7.10,61.02 33.02,81.07 4.56,76.77 Z M 7.10,61.02 7.69,54.46 33.02,81.07 Z M 48.29,32.70 25.31,5.99 32.79,6.19 Z M 4.96,24.60 25.31,5.99 48.29,32.70 Z M 48.29,32.70 51.82,8.29 65.41,1.57 Z M 82.32,6.84 48.29,32.70 65.41,1.57 Z M 8.51,114.05 33.02,81.07 22.35,133.18 Z M 33.02,81.07 8.51,114.05 8.21,91.24 Z M 8.51,114.05 22.35,133.18 2.73,124.38 Z M 8.21,91.24 8.51,114.05 1.20,105.33 Z M 8.21,91.24 4.56,76.77 33.02,81.07 Z M 44.88,8.88 51.82,8.29 48.29,32.70 Z M 45.57,152.79 22.35,133.18 82.32,103.60 Z M 33.02,81.07 7.69,54.46 58.86,63.36 Z M 48.29,32.70 82.32,6.84 58.86,63.36 Z M 58.86,63.36 7.69,54.46 48.29,32.70 Z M 32.79,6.19 44.88,8.88 48.29,32.70 Z M 33.02,81.07 82.32,103.60 22.35,133.18 Z M 82.32,103.60 33.02,81.07 58.86,63.36 Z M 15.04,5.71 25.31,5.99 7.11,13.04 Z M 1.23,132.77 22.35,133.18 4.50,144.97 Z M 7.70,185.45 3.32,171.17 45.57,152.79 Z M 2.86,152.85 45.57,152.79 2.75,164.68 Z M 22.35,133.18 2.86,152.85 4.50,144.97 Z M 2.75,164.68 45.57,152.79 3.32,171.17 Z M 8.94,207.88 6.77,226.69 1.97,213.66 Z M 13.85,263.77 3.43,255.70 7.64,246.36 Z M 27.38,265.13 7.64,246.36 8.49,234.38 Z M 3.43,255.70 13.85,263.77 8.06,267.77 Z M 8.49,234.38 6.77,226.69 43.22,197.30 Z M 43.22,197.30 6.14,192.49 7.70,185.45 Z M 6.14,192.49 43.22,197.30 8.94,207.88 Z M 43.22,197.30 7.70,185.45 45.57,152.79 Z M 43.22,197.30 45.57,152.79 56.22,186.15 Z M 72.74,235.56 8.49,234.38 43.22,197.30 Z M 68.71,207.47 72.74,235.56 43.22,197.30 Z M 98.90,174.69 68.71,207.47 56.22,186.15 Z M 93.88,221.03 72.74,235.56 68.71,207.47 Z M 68.71,207.47 43.22,197.30 56.22,186.15 Z M 75.09,148.02 56.22,186.15 45.57,152.79 Z M 8.49,234.38 72.74,235.56 52.95,261.58 Z M 7.64,246.36 27.38,265.13 13.85,263.77 Z M 27.38,265.13 8.49,234.38 38.06,266.50 Z M 65.56,261.50 52.95,261.58 72.74,235.56 Z M 65.56,261.50 72.74,235.56 73.78,265.12 Z M 52.95,261.58 42.93,266.95 38.06,266.50 Z M 38.06,266.50 8.49,234.38 52.95,261.58 Z M 73.78,265.12 72.74,235.56 94.24,247.89 Z M 6.77,226.69 8.94,207.88 43.22,197.30 Z M 22.35,133.18 45.57,152.79 2.86,152.85 Z M 82.32,6.84 65.41,1.57 73.84,2.11 Z M 82.32,6.84 94.07,3.27 104.94,6.97 Z M 58.86,63.36 104.94,6.97 88.77,84.06 Z M 136.71,66.95 112.38,7.32 124.96,4.02 Z M 147.27,8.65 136.71,66.95 124.96,4.02 Z M 136.71,66.95 104.94,6.97 112.38,7.32 Z M 75.09,148.02 82.32,103.60 85.81,134.27 Z M 75.09,148.02 45.57,152.79 82.32,103.60 Z M 85.81,134.27 82.32,103.60 97.26,116.47 Z M 95.79,158.05 75.09,148.02 85.81,134.27 Z M 97.26,116.47 88.77,84.06 141.35,107.52 Z M 136.71,66.95 88.77,84.06 104.94,6.97 Z M 122.04,154.70 85.81,134.27 97.26,116.47 Z M 88.77,84.06 97.26,116.47 82.32,103.60 Z M 58.86,63.36 88.77,84.06 82.32,103.60 Z M 136.71,66.95 141.35,107.52 88.77,84.06 Z M 124.96,4.02 135.72,3.80 147.27,8.65 Z M 82.32,6.84 104.94,6.97 58.86,63.36 Z M 147.27,8.65 154.22,4.72 167.81,4.67 Z M 154.29,56.82 147.27,8.65 167.81,4.67 Z M 192.12,33.05 167.81,4.67 184.09,8.24 Z M 175.72,3.30 184.09,8.24 167.81,4.67 Z M 192.12,33.05 184.09,8.24 197.50,8.13 Z M 136.71,66.95 163.46,103.42 141.35,107.52 Z M 136.71,66.95 154.29,56.82 163.46,103.42 Z M 163.46,103.42 154.29,56.82 192.60,75.54 Z M 141.35,107.52 163.46,103.42 174.19,116.79 Z M 192.60,75.54 174.19,116.79 163.46,103.42 Z M 174.19,116.79 175.40,145.28 141.35,107.52 Z M 192.60,75.54 154.29,56.82 192.12,33.05 Z M 154.29,56.82 167.81,4.67 192.12,33.05 Z M 122.04,154.70 97.26,116.47 141.35,107.52 Z M 154.29,56.82 136.71,66.95 147.27,8.65 Z M 175.40,145.28 122.04,154.70 141.35,107.52 Z M 112.49,191.44 68.71,207.47 98.90,174.69 Z M 72.74,235.56 93.88,221.03 94.24,247.89 Z M 98.90,174.69 95.79,158.05 122.04,154.70 Z M 68.71,207.47 112.49,191.44 93.88,221.03 Z M 98.90,174.69 127.72,181.34 112.49,191.44 Z M 127.72,181.34 98.90,174.69 122.04,154.70 Z M 127.72,181.34 122.04,154.70 158.14,174.40 Z M 93.88,221.03 112.49,191.44 133.64,263.71 Z M 95.79,158.05 85.81,134.27 122.04,154.70 Z M 174.84,207.35 133.64,263.71 112.49,191.44 Z M 87.15,265.56 94.24,247.89 98.18,266.99 Z M 87.15,265.56 73.78,265.12 94.24,247.89 Z M 98.18,266.99 94.24,247.89 102.86,265.49 Z M 111.76,264.20 133.64,263.71 121.48,268.48 Z M 133.64,263.71 111.76,264.20 94.24,247.89 Z M 111.76,264.20 102.86,265.49 94.24,247.89 Z M 94.24,247.89 93.88,221.03 133.64,263.71 Z M 112.49,191.44 127.72,181.34 174.84,207.35 Z M 75.09,148.02 95.79,158.05 98.90,174.69 Z M 158.14,174.40 182.19,184.31 174.84,207.35 Z M 182.19,184.31 158.14,174.40 193.01,167.16 Z M 183.71,225.85 174.84,207.35 203.68,228.11 Z M 174.84,207.35 155.68,261.32 133.64,263.71 Z M 203.68,228.11 174.84,207.35 182.19,184.31 Z M 158.14,174.40 175.40,145.28 193.01,167.16 Z M 122.04,154.70 175.40,145.28 158.14,174.40 Z M 155.68,261.32 174.84,207.35 183.71,225.85 Z M 133.64,263.71 155.68,261.32 148.54,266.15 Z M 163.08,267.86 155.68,261.32 177.83,261.85 Z M 183.71,225.85 198.59,263.82 177.83,261.85 Z M 177.83,261.85 155.68,261.32 183.71,225.85 Z M 198.59,263.82 186.52,266.16 177.83,261.85 Z M 198.59,263.82 183.71,225.85 203.68,228.11 Z M 174.84,207.35 127.72,181.34 158.14,174.40 Z M 193.64,152.12 193.01,167.16 175.40,145.28 Z M 56.22,186.15 75.09,148.02 98.90,174.69 Z"
     id="path2" />
  <path
     id="path4"
     sodipodi:type="inkscape:offset"
     inkscape:radius="0"
     inkscape:original="M 225.15039 1.4492188 L 217.40039 5.8300781 L 207.42969 6.1308594 L 197.5 8.1308594 L 184.08984 8.2402344 L 175.7207 3.3007812 L 167.81055 4.6699219 L 154.2207 4.7207031 L 147.26953 8.6503906 L 135.7207 3.8007812 L 124.96094 4.0195312 L 112.38086 7.3203125 L 104.93945 6.9707031 L 94.070312 3.2695312 L 82.320312 6.8398438 L 73.839844 2.109375 L 65.410156 1.5703125 L 51.820312 8.2890625 L 44.880859 8.8808594 L 32.789062 6.1894531 L 25.310547 5.9902344 L 15.039062 5.7109375 L 2.0703125 7.7792969 L 7.109375 13.039062 L 4.9609375 24.599609 L 6.2109375 37.310547 L 1.75 41.230469 L 7.6894531 54.460938 L 7.0996094 61.019531 L 4.5605469 76.769531 L 2.8300781 88.560547 L 8.2109375 91.240234 L 1.1992188 105.33008 L 8.5097656 114.05078 L 2.7304688 124.38086 L 1.2304688 132.76953 L 4.5 144.9707 L 2.859375 152.84961 L 2.75 164.67969 L 3.3203125 171.16992 L 7.6992188 185.44922 L 6.140625 192.49023 L 8.9394531 207.88086 L 1.9707031 213.66016 L 6.7695312 226.68945 L 8.4902344 234.38086 L 7.640625 246.35938 L 3.4296875 255.69922 L 8.0605469 267.76953 L 13.849609 263.76953 L 27.380859 265.13086 L 38.060547 266.5 L 42.929688 266.94922 L 52.949219 261.58008 L 65.560547 261.5 L 73.779297 265.11914 L 87.150391 265.56055 L 98.179688 266.99023 L 102.85938 265.49023 L 111.75977 264.19922 L 121.48047 268.48047 L 133.64062 263.71094 L 148.53906 266.15039 L 155.67969 261.32031 L 163.08008 267.85938 L 177.83008 261.84961 L 186.51953 266.16016 L 198.58984 263.82031 L 203.16016 266.33984 L 216.58984 266.08008 L 224.13086 261.03906 L 237.24023 265.98047 L 241.4707 267.63086 L 258.65039 265.75977 L 265.41016 266.09961 L 276.98047 261.23047 L 288.61914 264.46094 L 298.91016 266.16016 L 306.98047 267 L 317.34961 266.32031 L 322.88086 266.16016 L 334.46094 267.9707 L 343.01953 263.44922 L 352.28906 264.53906 L 361.28906 262.55078 L 377.01953 262.39062 L 384.4707 267.4707 L 386.68945 253.34961 L 385.89062 244.08008 L 382.7793 231.5293 L 387.24023 227.7207 L 388.67969 215.83008 L 384.10938 208.21094 L 386.35938 192.41016 L 384.17969 186.58984 L 383.31055 172.80078 L 387.28906 167.83008 L 386.28906 154.26953 L 383.89062 145.75977 L 388.53906 133.75 L 387.08008 123.63086 L 387.25 118.24023 L 385.75977 102.96094 L 382.92969 92.599609 L 385.28906 82.75 L 384.88086 74.150391 L 385.74023 64.699219 L 386.78906 53.560547 L 385.4707 46.080078 L 387.58984 38.609375 L 385.28906 23.529297 L 384.66992 15.300781 L 384.91016 4.5703125 L 378.80078 4.5996094 L 367.66016 8.6308594 L 354.90039 8.609375 L 345.65039 4.8007812 L 332.36914 7.8496094 L 321.94922 2.6191406 L 318.91992 3.1191406 L 302.0293 6.5292969 L 296.66016 3.75 L 283.51953 7 L 275.66016 4.8808594 L 262.51953 5.0800781 L 253.51953 7.5 L 246.84961 3.6894531 L 237.42969 8.859375 L 225.15039 1.4492188 z "
     d="m 225.15039,1.4492188 -7.75,4.3808593 -9.9707,0.3007813 -9.92969,2 -13.41016,0.109375 -8.36914,-4.9394532 -7.91015,1.3691407 -13.58985,0.050781 -6.95117,3.9296875 -11.54883,-4.8496094 -10.75976,0.21875 -12.58008,3.3007813 -7.44141,-0.3496094 -10.869138,-3.7011719 -11.75,3.5703126 L 73.839844,2.109375 65.410156,1.5703125 51.820312,8.2890625 44.880859,8.8808594 32.789062,6.1894531 25.310547,5.9902344 15.039062,5.7109375 2.0703125,7.7792969 7.109375,13.039062 4.9609375,24.599609 l 1.25,12.710938 L 1.75,41.230469 l 5.9394531,13.230469 -0.5898437,6.558593 -2.5390625,15.75 -1.7304688,11.791016 5.3808594,2.679687 -7.0117187,14.089846 7.3105468,8.7207 -5.7792968,10.33008 -1.5,8.38867 L 4.5,144.9707 2.859375,152.84961 2.75,164.67969 l 0.5703125,6.49023 4.3789063,14.2793 -1.5585938,7.04101 2.7988281,15.39063 -6.96875,5.7793 4.7988281,13.02929 1.7207032,7.69141 -0.8496094,11.97852 -4.2109375,9.33984 4.6308594,12.07031 5.7890621,-4 13.53125,1.36133 10.679688,1.36914 4.869141,0.44922 10.019531,-5.36914 12.611328,-0.0801 8.21875,3.61914 13.371094,0.44141 11.029297,1.42968 4.679692,-1.5 8.90039,-1.29101 9.7207,4.28125 12.16015,-4.76953 14.89844,2.43945 7.14063,-4.83008 7.40039,6.53907 14.75,-6.00977 8.68945,4.31055 12.07031,-2.33985 4.57032,2.51953 13.42968,-0.25976 7.54102,-5.04102 13.10937,4.94141 4.23047,1.65039 17.17969,-1.87109 6.75977,0.33984 11.57031,-4.86914 11.63867,3.23047 10.29102,1.69922 8.07031,0.83984 10.36914,-0.67969 5.53125,-0.16015 11.58008,1.81054 8.55859,-4.52148 9.26953,1.08984 9,-1.98828 15.73047,-0.16016 7.45117,5.08008 2.21875,-14.12109 -0.79883,-9.26953 -3.11132,-12.55078 4.46093,-3.8086 1.43946,-11.89062 -4.57031,-7.61914 2.25,-15.80078 -2.17969,-5.82032 -0.86914,-13.78906 3.97851,-4.9707 -1,-13.56055 -2.39844,-8.50976 4.64844,-12.00977 -1.45898,-10.11914 0.16992,-5.39063 -1.49023,-15.27929 -2.83008,-10.361331 2.35937,-9.849609 -0.4082,-8.599609 0.85937,-9.451172 1.04883,-11.138672 -1.31836,-7.480469 2.11914,-7.470703 -2.30078,-15.080078 -0.61914,-8.228516 0.24024,-10.7304685 -6.10938,0.029297 -11.14062,4.03125 -12.75977,-0.021484 -9.25,-3.8085938 -13.28125,3.0488282 -10.41992,-5.2304688 -3.0293,0.5 L 302.0293,6.5292969 296.66016,3.75 283.51953,7 275.66016,4.8808594 262.51953,5.0800781 253.51953,7.5 246.84961,3.6894531 237.42969,8.859375 Z"
     style="fill:none;stroke:#ff0000;stroke-opacity:1;stroke-width:3;stroke-dasharray:none" />
</svg>
