<?xml version="1.0" encoding="UTF-8" standalone="no"?>
<svg
   viewBox="0 0 390 270"
   version="1.1"
   id="svg8"
   sodipodi:docname="meshlets-1.svg"
   inkscape:version="1.3.2 (091e20ef0f, 2023-11-25, custom)"
   xmlns:inkscape="http://www.inkscape.org/namespaces/inkscape"
   xmlns:sodipodi="http://sodipodi.sourceforge.net/DTD/sodipodi-0.dtd"
   xmlns="http://www.w3.org/2000/svg"
   xmlns:svg="http://www.w3.org/2000/svg">
  <defs
     id="defs8" />
  <sodipodi:namedview
     id="namedview8"
     pagecolor="#ffffff"
     bordercolor="#000000"
     borderopacity="0.25"
     inkscape:showpageshadow="2"
     inkscape:pageopacity="0.0"
     inkscape:pagecheckerboard="0"
     inkscape:deskcolor="#d1d1d1"
     inkscape:zoom="2.9777778"
     inkscape:cx="194.94403"
     inkscape:cy="135"
     inkscape:window-width="1920"
     inkscape:window-height="1008"
     inkscape:window-x="0"
     inkscape:window-y="0"
     inkscape:window-maximized="1"
     inkscape:current-layer="svg8" />
  <g
     id="g8"
     style="display:inline">
    <path
       fill="#66cd80"
       stroke="#000000"
       stroke-width="0.5"
       d="m 281.68,157.54 -0.61,-10.42 19.94,9.52 z m 1.35,-22.12 19.19,3.5 -21.15,8.2 z m -0.35,37.89 -1.4,-8.08 19.73,-8.59 z m -1.4,-8.08 0.4,-7.69 19.33,-0.9 z m 12.57,32.05 -9.71,-1.05 10.36,-10.09 z m -8.93,-13.31 9.58,2.17 -10.36,10.09 z m -8.02,19.44 7.24,-7.18 2.34,17.15 z m 17.6,-17.27 -9.58,-2.17 -2.24,-10.66 z m -0.65,11.14 -7.37,16.1 -2.34,-17.15 z m -0.37,-71.44 8.74,13.08 -19.19,-3.5 z m 8.74,13.08 4.73,9.11 -5.94,8.61 z m 13.22,15.7 2.66,-11.71 3.48,4.47 z m 2.66,-11.71 -2.66,11.71 -8.49,-6.59 z m 13.3,45.62 -25,-17.28 9.04,-16.63 z m -24.45,-40.5 8.49,6.59 -14.43,2.02 z m -2.98,37.4 -9.47,0.71 11.9,-14.89 z m -21.29,-12.12 18.33,-16.67 5.39,14.61 z m 11.82,12.83 -11.82,-12.83 23.72,-2.06 z m 9.47,-0.71 4.03,9.68 -14.15,2.17 z m 27.43,3.1 -13.15,13.25 -10.25,-6.67 z m -25,-17.28 -5.39,-14.61 14.43,-2.02 z m -12.55,26.03 14.15,-2.17 -4.46,10.72 z m 10.12,-11.85 27.43,3.1 -23.4,6.58 z m 0,0 2.43,-14.18 25,17.28 z m 0,0 -10.12,11.85 0.65,-11.14 z m 14.28,16.35 13.53,0.3 -9.44,13.45 z m -17.24,-45.14 -19.94,-9.52 21.15,-8.2 z m 17.24,45.14 -14.71,4.05 4.46,-10.72 z m -40.67,19.82 0.41,-2.79 13.13,4.9 z m 8.9,-8.22 10.46,0.07 -5.82,10.26 z m 0,0 7.37,-16.1 3.09,16.17 z m 11.48,29.29 -6.84,-18.96 21.08,7.63 z m -11.48,-29.29 4.64,10.33 -13.13,-4.9 z m -8.49,5.43 -1.09,-15.4 9.58,9.97 z m -0.41,2.79 13.54,2.11 -17.6,14.7 z m -3.04,32.31 17.11,-1.95 -14.67,9.27 z m 17.11,-1.95 -17.11,1.95 -1.02,-15.5 z m 7.26,14.2 -10.29,-1.7 3.03,-12.5 z m -7.26,-14.2 -3.03,12.5 -11.64,-3.23 z m 6.31,-9.29 -6.31,9.29 -18.13,-13.55 z m 7.05,15.29 -13.36,-6 6.31,-9.29 z m -31.49,-19.55 17.6,-14.7 6.84,18.96 z m 17.6,-14.7 5.82,-10.26 15.26,17.89 z m 21.08,7.63 1.09,12.41 -15.33,-1.08 z m -15.26,-17.89 25.4,2.08 -10.14,15.81 z m 15.26,17.89 13.82,10.74 -12.73,1.67 z m 21.29,3.75 -7.47,6.99 -13.82,-10.74 z m -11.15,-19.56 11.15,19.56 -21.29,-3.75 z m -9.05,28.22 12.73,-1.67 -4.38,13.82 z m -9.75,-37.92 14.71,-4.05 4.09,13.75 z m -5.58,36.84 15.33,1.08 -8.28,14.21 z m 0.95,23.49 6.1,-8.2 1.97,9.04 z m 0,0 -7.26,-14.2 13.36,6 z m 8.07,0.84 -1.97,-9.04 12.34,8.36 z m 10.37,-0.68 4.29,-10.42 1.24,10.26 z m 4.29,-10.42 -4.29,10.42 -12.34,-8.36 z m 12.82,12.07 -11.58,-1.81 -1.24,-10.26 z m -29.45,-10.01 8.28,-14.21 8.35,12.15 z m 16.63,-2.06 4.38,-13.82 12.19,3.24 z m -18.1,-50.07 18.8,9.7 -25.4,-2.08 z m -9.69,-8.55 9.69,8.55 -6.6,7.62 z m 27.73,-49.9 11.1,5.6 -17.24,1.64 z m 11.1,5.6 10.87,23.95 -12.15,11.6 z m 10.87,23.95 -10.87,-23.95 11.25,2.49 z m 0.38,-21.46 11.63,1.13 -0.06,18.38 z m 20.11,30.77 -8.54,-11.26 27.81,-2.18 z m -20.11,-30.77 11.57,19.51 -11.95,1.95 z m -0.38,21.46 11.95,-1.95 -4.39,10.44 z m -12.15,11.6 14.44,9.59 -14.06,3.96 z m 14.44,9.59 -14.44,-9.59 19.71,-3.11 z m 0,0 -11.89,20 -2.17,-16.04 z m -14.44,-9.59 0.38,13.55 -13.53,-0.3 z m 19.71,-3.11 12.93,0.82 -8.54,10.7 z m 12.93,0.82 -12.93,-0.82 4.39,-10.44 z m -8.54,10.7 8.54,-10.7 7.79,5.58 z m -4.39,-11.52 4.39,11.52 -9.66,1.18 z m -19.71,3.11 12.15,-11.6 7.56,8.49 z m 24.1,8.41 -4.09,19.87 -5.57,-18.69 z m 0,-21.96 0.06,-18.38 16.61,2.17 z m -22.82,-22 -1.28,35.55 -15.96,-33.91 z m 50.63,19.82 -27.81,2.18 16.67,-16.21 z m 2.98,-18.53 1,13.56 -15.12,-9.06 z m 0,0 -14.12,4.5 11.72,-13.01 z m -14.12,4.5 15.12,9.06 -3.98,4.97 z m 11.94,49.44 -19.59,-0.69 7.31,-15.7 z m -19.59,-0.69 -9.02,-10.58 16.33,-5.12 z m 7.31,-15.7 -7.79,-5.58 19.27,-13.44 z m 12.35,-5.23 -12.35,5.23 11.48,-19.02 z m -12.35,5.23 14.53,0.59 -2.25,15.8 z m 14.53,0.59 -14.53,-0.59 12.35,-5.23 z m -21.84,15.11 19.59,0.69 -10.87,12.9 z m -8.96,-50.92 11.74,-3.34 4.87,5.51 z m 8.96,50.92 -13.11,9.29 4.09,-19.87 z m -30.57,10.6 13.92,13.03 -14.38,3.94 z m 13.92,13.03 -13.92,-13.03 17.46,-1.31 z m 3.54,-14.34 13.13,0.87 -6.97,6.82 z m 0,0 13.11,-9.29 0.02,10.16 z m 13.14,25.65 -16.68,-11.31 9.7,-6.65 z m -13.14,-25.65 6.16,7.69 -9.7,6.65 z m -17.46,1.31 11.89,-20 5.57,18.69 z m 30.6,24.34 -26.34,2.86 9.66,-14.17 z m -26.34,2.86 -3.75,22.65 -12.82,-12.07 z m -4.72,-10.23 14.38,-3.94 -9.66,14.17 z m 0.97,32.88 3.75,-22.65 4.81,18.13 z m -8.44,-25.89 7.47,-6.99 4.72,10.23 z m 12.19,3.24 14.08,19.22 -9.27,-1.09 z m 23.08,17.23 -9,1.99 12.26,-22.08 z m -9,1.99 -14.08,-19.22 26.34,-2.86 z m 5.28,-40.04 6.97,-6.82 8.7,3.43 z m -24.08,10.59 -11.15,-19.56 11.61,2.59 z m 31.06,7.37 8.69,-21.35 9.54,10.42 z m 8.69,-21.35 -8.69,21.35 -6.98,-17.96 z m 0,0 14,6.61 -4.46,3.81 z m 14,6.61 -14,-6.61 15.44,-5.28 z m -22.7,-10.04 -0.02,-10.16 8.72,13.59 z m 0.01,24.78 18.23,-10.93 -5.85,11.89 z m 12.47,19.93 -1.37,-8.88 11.04,-0.16 z m -0.09,-18.97 -1.28,10.09 -11.1,-11.05 z m 8.96,0.66 -10.24,9.43 1.28,-10.09 z m -8.87,18.31 -15.73,0.16 14.36,-9.04 z m 0,0 9.67,-9.04 -2.22,14.12 z m 9.67,-9.04 -11.04,0.16 10.24,-9.43 z m -9.76,-9.93 5.85,-11.89 3.11,12.55 z m -1.28,10.09 -14.36,9.04 3.26,-20.09 z m 13.03,-37.68 -15.44,5.28 10.87,-12.9 z m -66.34,-0.3 9.44,-13.45 2.17,16.04 z"
       id="path1" />
    <path
       fill="#c9e00d"
       stroke="#000000"
       stroke-width="0.5"
       d="m 221.87,171.21 -15.08,-4.73 -1.43,-8.73 z m -15.63,-25.86 -0.88,12.4 -11.72,-5.63 z m 0,0 19.1,0.22 -19.98,12.18 z m -12.6,6.77 11.72,5.63 -12.35,9.41 z m 14.67,40.02 -1.85,-9.89 15.41,-11.04 z m -1.52,-25.66 -0.33,15.77 -5.22,-8.78 z m 0,0 15.08,4.73 -15.41,11.04 z m -13.78,0.68 12.35,-9.41 1.43,8.73 z m 18.88,-55.04 3.17,11.73 -10.27,0.38 z m 3.17,11.73 7.49,10.67 -9.38,4.35 z m 7.49,10.67 -7.49,-10.67 19.04,1.63 z m 2.22,-19.58 7.18,1.21 2.15,9.33 z m 9.33,10.54 -2.15,-9.33 15.02,7.91 z m -9.33,-10.54 9.33,10.54 -19.04,-1.63 z m -9.71,8.91 -3.17,-11.73 12.88,2.82 z m 10.28,21.72 -2.79,-11.05 16.27,8.39 z m 5.76,13.07 -25.74,-0.89 19.98,-12.18 z m -5.76,-13.07 -12.17,-6.7 9.38,-4.35 z m -19.98,12.18 25.74,0.89 -9.23,12.57 z m 19.98,-12.18 -19.1,-0.22 6.93,-6.48 z m 8.98,30.19 -0.77,19.52 -11.68,-24.07 z m 9.73,-12.47 -9.73,12.47 -3.22,-17.12 z m -10.5,31.99 0.79,17.06 -17.13,-14.01 z m 0.77,-19.52 -12.45,-4.55 9.23,-12.57 z m -3.22,-17.12 -5.76,-13.07 13.48,-2.66 z m -22.79,33.5 13.56,-20.93 -4.66,27.12 z m 25.79,-66.66 4.72,17.43 -16.27,-8.39 z m -19.04,-1.63 -1.89,15.02 -8.38,-14.64 z m 2.15,74.48 4.66,-27.12 11.68,24.07 z m -30.66,46.95 -4.1,-7.24 21.23,-9.93 z m 17.13,-17.17 -21.23,9.93 1.26,-12.19 z m -17.13,17.17 17.13,-17.17 -8.56,25.46 z m 4.7,-33.17 12.43,16 -19.97,-2.26 z m -13.42,49.74 0.41,-9.92 8.28,14.23 z m 8.69,4.31 8.6,-12.59 3.47,10.25 z m 8.6,-12.59 -8.6,12.59 -8.28,-14.23 z m 8.04,12.77 -4.57,-2.52 -3.47,-10.25 z m -24.92,-14.41 8.31,-6.65 8.57,8.29 z m 29.79,-49.2 -16.78,9.38 1.9,-10.71 z m -4.35,25.38 4.05,-10.32 3.72,16.69 z m 0,0 -12.43,-16 16.48,5.68 z m 7.77,6.37 22.89,-22.14 -1.73,25.2 z m -3.42,-31.75 -14.88,-1.33 15.16,-9.26 z m 26.31,9.61 -26.61,5.45 9.48,-19.46 z m -17.13,-14.01 -9.48,19.46 0.3,-15.06 z m -25.96,13.78 16.78,-9.38 -0.3,15.06 z m 20.2,22.37 2.56,8.87 -18.89,10.22 z m 5.14,31.6 -13.43,0.26 14.37,-11.81 z m -21.47,-12.51 18.89,-10.22 3.52,11.18 z m 8.04,12.77 -8.04,-12.77 22.41,0.96 z m 14.37,-11.81 15.08,-16.99 -8.48,23.5 z m 15.08,-16.99 -15.08,16.99 -3.52,-11.18 z m -8.48,23.5 8.48,-23.5 13.13,8.38 z m -6.6,-6.51 6.6,6.51 -7.54,5.04 z m -3.52,-11.18 -2.56,-8.87 21.16,3.06 z m -2.56,-8.87 -3.72,-16.69 26.61,-5.45 z m -16.33,19.09 8.56,-25.46 7.77,6.37 z m 13.19,-61.43 8.9,6.19 -9.18,4.4 z m 25.24,3.14 0.77,-19.52 4.57,10.9 z m 5.27,-52.37 7.64,-7.18 9.91,12.64 z m 0,0 -4.72,-17.43 12.36,10.25 z m 7.64,-7.18 21.79,-0.96 -11.88,13.6 z m 26.68,25.94 -18.12,-3.83 1.35,-9.47 z m -18.28,-35.76 -8.4,9.82 0.51,-11.67 z m -20.76,-0.43 12.87,-1.42 -0.51,11.67 z m 4.72,17.43 17.55,5.46 -1.35,9.47 z m -4.5,32.85 11.97,3.13 -7.4,7.77 z m 0,0 9.73,-12.47 2.24,15.6 z m 31.39,12.05 -19.42,-8.92 26.81,3.79 z m -10.69,-29.97 -8.73,21.05 -2.24,-15.6 z m 0,0 18.08,24.84 -26.81,-3.79 z m -16.13,28.82 7.4,-7.77 5.75,16.59 z m 5.16,-23.37 -5.23,-20.38 16.2,14.93 z m 21.66,24.52 -13.67,7.67 -5.75,-16.59 z m 2.54,-53.04 -21.79,0.96 8.4,-9.82 z m -25.45,61.9 -9.25,-1.39 5.34,-8.62 z m 25.45,-61.9 4.87,-6.02 9.91,6.67 z m 14.78,0.65 -1.96,11.7 -12.82,-12.35 z m -1.96,11.7 -7.93,14.55 -16.77,-13.3 z m -7.93,14.55 7.93,-14.55 0.61,10.42 z m 0.08,33.17 -0.12,-12.16 11.82,1.29 z m -0.12,-12.16 -18.08,-24.84 18.12,3.83 z m 9.58,-9.37 -9.58,9.37 0.04,-21.01 z m -9.46,21.53 -7.51,-7.03 7.39,-5.13 z m 9.46,-21.53 2.24,10.66 -11.82,-1.29 z m -1.4,-8.08 1.4,8.08 -9.54,-11.64 z m -8.14,-3.56 8.54,-4.13 -0.4,7.69 z m 0.08,33.17 11.7,-10.87 -0.78,12.26 z m -4.97,-60.07 12.82,12.35 -24.7,1.25 z m -5.03,63.15 2.49,-10.11 7.51,7.03 z m -17.48,48 -13.13,-8.38 10.06,-12.83 z m -3.07,-21.21 -8.33,-12.37 18.37,5.24 z m 0.13,-28.04 9.24,-1.19 0.67,22.1 z m 9.24,-1.19 -9.24,1.19 -3.91,-10.01 z m 3.27,32.92 -2.6,-10.82 11.61,1.41 z m -12.51,-31.73 9.91,20.91 -18.37,-5.24 z m -9.25,-1.39 9.25,1.39 -8.46,15.67 z m 9.12,29.43 10.04,-7.13 2.6,10.82 z m -1.2,42.92 -4.23,-1.65 8.5,-20.06 z m 17.18,-1.87 -12.91,-19.84 28.8,7.99 z m -3.34,-37.36 -9.57,17.52 -3.07,-21.21 z m 18.21,10.01 -27.78,7.51 9.57,-17.52 z m -27.78,7.51 12.91,19.84 -17.18,1.87 z m -21.61,15.12 21.61,-15.12 -8.5,20.06 z m 28.58,-43.46 -0.67,-22.1 11.18,2.44 z m -10.04,7.13 -10.06,12.83 1.73,-25.2 z m 24.63,-17.5 -2.98,11.78 -11.61,-1.41 z m -4.08,-9.29 10,-3.08 -5.92,12.37 z m 4.08,9.29 5.92,-12.37 3.68,8.57 z m 9.6,-3.8 1.09,15.4 -10.69,-11.6 z m -24.86,-7.93 13.67,-7.67 -2.49,10.11 z m 15.26,11.73 10.69,11.6 -13.67,0.18 z m 7.24,46.7 -28.8,-7.99 27.78,-7.51 z m -1.02,-15.5 -9.2,-19.42 13.26,2.61 z m -14.87,27.35 15.89,-11.85 -9.13,12.19 z m -3.34,-37.36 9.01,-9.41 9.2,19.42 z m 19.23,25.51 2.44,7.32 -11.57,4.87 z m -10.22,-34.92 13.67,-0.18 -0.41,2.79 z m -11.61,-1.41 10.51,-19.66 4.08,9.29 z m 31.43,-21.35 -7.24,7.18 -3.68,-8.57 z m -53.04,-37.59 7.72,-15.73 5.23,20.38 z"
       id="path2" />
  </g>
  <g
     id="g9"
     style="display:inline">
    <path
       fill="#c98c83"
       stroke="#000000"
       stroke-width="0.5"
       d="m 182.61,15.17 1.48,-6.93 13.41,-0.11 z m 28.46,3.45 -17.43,3.4 3.86,-13.89 z M 197.5,8.13 193.64,22.02 182.61,15.17 Z m 8.93,27.84 -12.79,-13.95 17.43,-3.4 z m -14.73,9.34 0.42,-12.26 14.31,2.92 z m 4.92,10.19 -11.26,-2.78 6.34,-7.41 z m 8.67,-1.35 -0.07,-8.63 12.84,-0.84 z m 1.14,-18.18 -1.21,9.55 -13.52,-0.21 z m 11.63,8.71 -12.84,0.84 1.21,-9.55 z m -26.36,0.63 13.52,0.21 -8.6,9.98 z m 0.42,-12.26 1.52,-11.03 12.79,13.95 z m 13.17,21.1 -8.67,1.35 8.6,-9.98 z m 5.78,-35.53 -13.57,-10.49 9.93,-2 z m 6.33,-12.79 7.75,-4.38 1.23,16.68 z m 26.39,17.4 -17.41,-5.1 11.05,-9.27 z M 237.43,8.86 226.38,18.13 225.15,1.45 Z M 253.52,7.5 243.79,23.23 237.43,8.86 Z m -36.12,-1.67 8.98,12.3 -15.31,0.49 z m 0.96,20.31 -0.3,18.54 -11.63,-8.71 z m -7.29,-7.52 15.31,-0.49 -8.02,8.01 z m 6.99,26.06 0.3,-18.54 8.32,22.66 z m 0.3,-18.54 -11.93,9.83 4.64,-17.35 z m 0,0 26.38,6.05 -18.06,16.61 z m 0,0 8.02,-8.01 18.36,14.06 z m 45.52,1.88 -19.14,4.17 -0.95,-8.96 z m -11.91,30.23 -25.29,-9.45 25.98,-3.74 z m -8.18,-35.02 0.95,8.96 -18.36,-14.06 z m -38.5,30.92 12.77,-9.47 3.11,13.5 z m 21.39,-5.35 18.06,-16.61 7.92,12.87 z M 217.4,5.83 211.07,18.62 207.43,6.13 Z m 3.77,52.35 -3.11,-13.5 8.62,4.12 z M 192.6,75.54 196.62,55.5 208.19,66.06 Z M 196.62,55.5 192.6,75.54 187.08,63.7 Z m 0,0 8.67,-1.35 2.9,11.91 z m -4.02,20.04 15.59,-9.48 3.24,18.71 z m -5.52,-11.84 -1.72,-10.98 11.26,2.78 z m -8.35,19.13 13.87,-7.29 -3.69,10.72 z m 9.68,15.92 0.5,-12.49 13.81,8.22 z m 0.5,-12.49 -0.5,12.49 -9.68,-15.92 z m 0,0 3.69,-10.72 10.12,18.94 z m 13.81,8.22 8.58,2.15 -5.93,6.37 z m 8.58,2.15 -8.58,-2.15 8.71,-9.71 z m 0,0 0.13,-11.86 25.17,1.75 z m -5.93,6.37 5.93,-6.37 0.59,15.49 z m -12.77,-27.46 18.83,9.23 -8.71,9.71 z m 15.59,-9.48 15.88,1.61 -12.64,17.1 z m 28.41,20.46 -25.17,-1.75 12.64,-17.1 z m -12.53,-18.85 -2.9,-9.49 13.25,9.18 z m 12.53,18.85 -2.18,-19.16 19.65,11.03 z m -2.18,-19.16 -13.25,-9.18 5.51,-9.38 z m 17.55,35.25 -18.99,4.63 3.62,-20.72 z M 234.42,67.36 236.6,86.52 224.07,67.67 Z m -29.13,-13.21 15.88,4.03 -12.98,7.88 z m 27.69,53.09 -21.68,-10.61 25.3,-10.11 z m -8.21,7.7 8.21,-7.7 -1.03,8.91 z m 0,0 -12.88,-2.82 -0.59,-15.49 z m 22.52,-3.48 -0.32,12.6 -15.02,-7.91 z m 4.68,-8.85 -4.68,8.85 -14.31,-4.22 z m 5.14,11.41 -10.14,10.04 0.32,-12.6 z m -9.82,-2.56 -15.34,4.69 1.03,-8.91 z m -14.31,-4.22 -8.21,7.7 -13.47,-18.31 z m 18.99,-48.99 2.1,20.14 -19.65,-11.03 z m -27.9,9.42 -15.88,-1.61 12.98,-7.88 z m 27.9,-9.42 -17.55,9.11 -7.74,-18.56 z m -5.12,-54.56 6.67,3.81 -16.09,1.36 z m 6.67,3.81 9,-2.42 1.36,22.94 z m 23.96,23.53 -13.6,-3.01 11.78,-23.14 z M 275.66,4.88 263.88,28.02 262.52,5.08 Z m 10.05,21.43 -8.23,4.72 -1.82,-26.15 z m -21.83,1.71 -11.22,17.04 -7.92,-12.87 z m -2.36,20.23 10.67,13.61 -20.22,-3.61 z m -8.86,-3.19 11.22,-17.04 -2.36,20.23 z m 19.53,16.8 -10.67,-13.61 10.77,-4.65 z m -20.22,-3.61 20.22,3.61 -18.12,16.53 z m 29.95,-6.21 -9.63,-8.44 15.69,-9.2 z m -20.4,-3.79 2.36,-20.23 8.41,15.58 z m 15.96,-17.22 10.5,3.37 -15.69,9.2 z m -5.19,12.57 9.63,8.44 -9.73,9.82 z m -8.41,-15.58 13.6,3.01 -5.19,12.57 z m 21.81,33.96 -13.5,-0.12 9.73,-9.82 z M 285.71,26.31 275.66,4.88 283.52,7 Z m -21.83,1.71 -20.09,-4.79 9.73,-15.73 z m 21.83,-1.71 2.27,8.09 -10.5,-3.37 z m 5.88,-11.95 5.07,-10.61 5.37,2.78 z m 0,0 -5.88,11.95 L 283.52,7 Z M 283.52,7 296.66,3.75 291.59,14.36 Z m 22.07,46.93 -10.58,0.89 12.12,-9.79 z m -6.97,-16.27 -3.61,17.16 -7.03,-20.42 z m 8.51,7.37 -12.12,9.79 3.61,-17.16 z m -21.44,16.95 -3.77,-9.94 13.09,2.78 z m 19.9,-8.05 12.79,-5.1 4.63,13.73 z m 12.79,-5.1 -12.79,5.1 1.54,-8.9 z m -20.52,25.77 -2.85,-19.78 10.58,-0.89 z m -9.88,-40.2 7.03,20.42 -13.09,-2.78 z m 35.01,16.86 0.02,11.3 -4.63,-13.73 z m -71.02,51.35 1.07,-11.58 18.26,10.48 z m -15.37,-16.09 16.44,4.51 -1.07,11.58 z m 24.74,-1.51 9.96,16.5 -18.26,-10.48 z m 0,0 -7.27,-6.62 19.47,-3.32 z m 9.96,16.5 -9.96,-16.5 12.2,-9.94 z m -9.96,-16.5 -8.3,6.02 1.03,-12.64 z m -7.27,-6.62 -1.03,12.64 -16.44,-4.51 z m -2.1,24.22 19.33,-1.1 -7.13,7.43 z m 15.4,15.13 -12.51,8.17 2.25,-11.89 z m -12.51,8.17 -7.89,-1.85 10.14,-10.04 z m 9.31,-16.97 -7.06,5.08 -5.14,-11.41 z m 3.2,8.8 -10.26,-3.72 7.06,-5.08 z m 5.75,11.01 -4.87,6.02 -13.39,-8.86 z m 2.93,-11.19 -8.68,0.18 -3.2,-8.8 z m -2.93,11.19 -18.26,-2.84 12.51,-8.17 z m -5.75,-11.01 8.68,-0.18 -2.93,11.19 z m 8.68,-0.18 -11.88,-8.62 7.13,-7.43 z m -18.94,-3.54 -9.82,-2.56 4.68,-8.85 z m 26.02,-41.45 2.56,-10.59 12.17,12.62 z m 0,0 -9.59,2.5 -1.35,-13.21 z m 22.46,-18.64 12.23,17.6 -19.96,3.07 z m -7.73,20.67 -12.17,-12.62 9.32,-7.16 z m 0,0 19.96,-3.07 -6.75,13.77 z m 25.15,-12.04 -5.19,8.97 -12.23,-17.6 z m -39.88,10.01 14.73,2.03 -11.07,28.16 z m 3.66,30.19 -10.74,14.8 -4.75,-16.05 z m -13.25,-27.69 9.59,-2.5 3.66,30.19 z m 13.25,27.69 -15.49,-1.25 2.24,-26.44 z m 0,0 15.8,-4.26 -7.08,8.95 z m 11.07,-28.16 4.73,23.9 -15.8,4.26 z m 0,0 13.21,10.7 -8.48,13.2 z m -24.32,0.47 -19.47,3.32 18.12,-16.53 z m 12.15,-13.09 -2.56,10.59 -10.94,-10.71 z m -33.03,-16.92 8.86,3.19 -9.55,10 z"
       id="path3" />
    <path
       fill="#79f8b7"
       stroke="#000000"
       stroke-width="0.5"
       d="m 285.71,26.31 5.88,-11.95 11.27,14.34 z M 308.68,15.86 302.86,28.7 291.59,14.36 Z m 0,0 -6.65,-9.33 16.89,-3.41 z m -1.55,29.17 -4.27,-16.33 15.52,20.13 z m 1.55,-29.17 -17.09,-1.5 10.44,-7.83 z m -22.97,10.45 17.15,2.39 -14.88,5.7 z m 12.91,11.35 -10.64,-3.26 14.88,-5.7 z m 29.37,48.62 -16.92,-0.98 6.75,-13.77 z m -29.37,-48.62 4.24,-8.96 4.27,16.33 z m 36.78,-9.57 -32.54,0.61 5.82,-12.84 z m -32.54,0.61 32.54,-0.61 -17.02,20.74 z m 5.82,-12.84 10.24,-12.74 13.45,4.73 z M 335.4,28.09 308.68,15.86 332.37,7.85 Z m 6.91,25.81 -6.91,-25.81 18.45,18.14 z M 332.37,7.85 318.92,3.12 321.95,2.62 Z M 318.38,48.83 335.4,28.09 322.99,51.26 Z m 4.61,2.43 9.5,4.02 -9.48,7.28 z m 0,0 12.41,-23.17 -2.91,27.19 z m 0.02,11.3 9.48,-7.28 8.9,8.6 z m 4.98,23.72 -4.98,-23.72 18.38,1.32 z m 13.4,-22.4 -8.9,-8.6 9.82,-1.38 z m 6.55,17.82 -9.24,3.36 2.69,-21.18 z m -9.24,3.36 7.45,7.51 -18.16,-6.29 z m -3.3,-56.97 6.91,25.81 -9.82,1.38 z m -17.58,43.44 5.19,-8.97 4.98,23.72 z M 335.4,28.09 332.37,7.85 345.65,4.8 Z m 5.99,35.79 -2.69,21.18 -10.71,1.22 z m -65.34,53.68 10.74,-14.8 8.72,4.69 z m 19.46,-10.11 7.08,-8.95 8.48,4.19 z m 7.08,-8.95 8.48,-13.2 v 17.39 z m -26.54,19.06 19.46,-10.11 -2.03,18.39 z m 36.55,-4.2 -8.44,9.32 -8.65,-15.23 z m -36.55,4.2 6.98,17.86 -9.91,-6.67 z m 0,0 17.43,8.28 -10.45,9.58 z m 30.9,30.47 -4.73,-9.11 15.88,3.99 z m -2.79,-25.35 -1.94,16.24 -8.74,-13.08 z m 0,0 8.71,10.01 -10.65,6.23 z m -8.65,-15.23 8.65,15.23 -10.68,3.16 z m 17.09,5.91 -17.09,-5.91 15.56,-4.76 z m 2.81,9.65 -2.54,9.68 -8.71,-10.01 z m 0,0 -2.81,-9.65 10.36,4.28 z m 32.29,-6.65 -15.74,12.23 -9,-10.95 z m -23.61,-11.95 -1.13,13.23 -10.36,-4.28 z m 0,0 -11.49,8.95 -1.53,-10.67 z m 19.65,1.19 -19.65,-1.19 3.9,-18.13 z m -32.67,-20.3 13.02,19.11 -13.02,-1.72 z m 4.34,37.71 7.55,-5.37 9,10.95 z m 2.69,19.9 13.86,-14.32 -10.38,18.79 z m 13.86,-14.32 -13.86,14.32 -5.23,-10.22 z m -19.09,4.1 5.23,10.22 -15.88,-3.99 z m 19.09,-4.1 11.57,6.25 -10.85,18.14 z m 15.74,-12.23 -4.17,18.48 -11.57,-6.25 z m -15.02,36.62 10.85,-18.14 0.4,20.63 z m -0.72,-24.39 0.72,24.39 -11.1,-5.6 z m -19.09,4.1 2.54,-9.68 16.55,5.58 z m 30.87,-27.09 -20.78,12.04 1.13,-13.23 z m -28.33,17.41 -11.25,-0.33 8.44,-9.32 z m 8.68,-18.6 -13.02,-19.11 16.92,0.98 z m 17.3,-40.53 0.92,-9.98 13.21,1.71 z M 335.4,28.09 354.9,8.61 353.85,46.23 Z m 40.38,4.35 -7.77,9.04 L 354.9,8.61 Z m 0,0 -8.12,-23.81 17.01,6.67 z m -9.54,22.64 1.77,-13.6 9.38,10.04 z M 375.78,32.44 354.9,8.61 367.66,8.63 Z m -21.93,13.79 1.05,-37.62 13.11,32.87 z m -12.46,17.65 14.13,-8.27 -7.58,26.09 z m 0.92,-9.98 11.54,-7.67 1.67,9.38 z m 13.21,1.71 -1.67,-9.38 12.39,8.85 z m -7.58,26.09 7.58,-26.09 13.38,13.34 z m 20.96,-12.75 0.03,14.69 -20.99,-1.94 z m 8.49,-17.43 -8.49,17.43 -2.66,-13.87 z m 7.49,22.63 -15.95,9.49 -0.03,-14.69 z m -15.98,-5.2 -13.38,-13.34 10.72,-0.53 z m -15.05,-22.72 14.16,-4.75 -1.77,13.6 z m -5.91,35.47 20.99,1.94 -22.78,8.93 z m 27.84,-49.26 9.69,13.64 -17.46,-4.6 z m -27.84,49.26 -1.79,10.87 -7.45,-7.51 z m 36.73,-66.4 0.62,8.23 -9.51,8.91 z m 0,0 -5.87,-10.7 6.11,-0.03 z m 2.92,23.31 -11.81,-6.17 9.51,-8.91 z m 0,0 -2.12,7.47 -9.69,-13.64 z m -2.71,35.54 0.41,8.6 -16.36,0.89 z m -15.98,-5.2 16.84,-4.25 -0.86,9.45 z m 0,0 8.49,-17.43 8.35,13.18 z m 17.89,-15.39 -1.05,11.14 -8.35,-13.18 z m 0,0 -9.4,-2.04 8.08,-5.44 z m -18.78,-12.08 17.46,4.6 -8.08,5.44 z M 367.66,8.63 378.8,4.6 l 5.87,10.7 z m 1.27,75.01 16.36,-0.89 -2.36,9.85 z m -25.19,21.96 2.41,-13.03 8.02,12.02 z m 0,0 -15.75,-19.32 18.16,6.29 z m 13.92,13.17 -9.96,-2.41 6.47,-11.77 z m -3.49,-14.18 -6.47,11.77 -3.96,-10.76 z m 17.26,-9.84 -5.99,19.67 -11.27,-9.83 z m -13.77,24.02 -3.49,-14.18 11.27,9.83 z m -3.49,-14.18 -8.02,-12.02 25.28,2.18 z m -6.47,11.77 9.96,2.41 -14.13,16.07 z m -3.77,39.11 7.38,-10.41 4.25,11.54 z m -0.4,-20.63 7.78,10.22 -7.38,10.41 z m 23.77,18.42 -11.74,3.34 -4.25,-11.54 z m -9.64,-34.49 7,6.65 -2.3,10.5 z m 7,6.65 -7,-6.65 7.78,-4.35 z m -2.3,10.5 2.3,-10.5 10.67,-1 z m -11.05,9.14 -7.78,-10.22 18.83,1.08 z m 11.05,-9.14 -18.83,-1.08 14.13,-16.07 z m 4.94,17.34 -15.99,-8.2 11.05,-9.14 z m -1.86,-38.84 9.89,10 -10.67,1 z m -17.74,1.94 -24.74,1.28 20.78,-12.04 z m 23.73,-21.61 11.5,-2.15 2.83,10.36 z m 0,0 -25.28,-2.18 22.78,-8.93 z m -5.99,19.67 21.81,3.82 -11.92,6.18 z m 0,0 20.32,-11.46 1.49,15.28 z m 9.89,10 11.92,-6.18 -0.17,5.39 z m -8.03,28.84 7.52,-11.07 -2.65,16.58 z m 0,0 -4.94,-17.34 12.46,6.27 z m 4.87,5.51 2.65,-16.58 9.07,3.57 z m 16.37,-25.02 -4.65,12.01 -9.07,-3.57 z m 0,0 -13.21,-9.33 11.75,-0.79 z m 0,0 -13.72,8.44 0.51,-17.77 z m -13.21,-9.33 -0.51,17.77 -12.46,-6.27 z m -9.89,-10 5.99,-19.67 14.33,8.21 z m 3.49,-30.78 14,8.96 -11.5,2.15 z M 354.9,8.61 335.4,28.09 345.65,4.8 Z"
       id="path4" />
  </g>
  <g
     id="g10"
     style="display:inline">
    <path
       fill="#dbb7ba"
       stroke="#000000"
       stroke-width="0.5"
       d="m 75.09,148.02 10.72,-13.75 5.22,8.95 z m 10.72,-13.75 -10.72,13.75 -3.7,-16.45 z m 5.22,8.95 -5.22,-8.95 8.21,-1.64 z m -18.75,13.91 2.81,-9.11 2.97,15.47 z m 23.51,0.92 -17.73,5.44 -2.97,-15.47 z m 0,0 -11.28,13.12 -6.45,-7.68 z m -8.11,34.6 24.81,-1.21 -19.05,10.92 z m -1.66,-6.8 12.88,-11.16 -11.22,17.96 z M 98.9,174.69 86.02,185.85 84.51,171.17 Z m -7.87,-31.47 4.76,14.83 -20.7,-10.03 z m 15.22,-2.06 -15.22,2.06 2.99,-10.59 z m -15.22,2.06 15.22,-2.06 -10.46,16.89 z m 14.03,15.35 1.19,-17.41 7.64,5.85 z m 1.19,-17.41 -1.19,17.41 -9.27,-0.52 z m -1.19,17.41 8.83,-11.56 8.15,7.69 z m 7.43,32.87 -13.59,-16.75 28.82,6.65 z m -7.43,-32.87 -6.16,16.12 -3.11,-16.64 z m 22.66,22.77 -28.82,-6.65 6.16,-16.12 z m -28.82,-6.65 13.59,16.75 -24.81,1.21 z m 32.37,29.38 -9.54,-2.85 1.46,-9.28 z m -8.08,-12.13 -1.46,9.28 -9.24,-9.78 z m 4.53,-10.6 -4.53,10.6 -10.7,-0.5 z m 17.12,6.96 -13.57,15.77 -8.08,-12.13 z m -39.78,-29.73 16.98,-3.87 5.68,26.64 z m -11.62,43.79 19.05,-10.92 0.24,19.84 z m 28.6,-47.66 12.12,11.96 -6.44,14.68 z m -26.25,3.35 3.11,16.64 -14.39,-3.52 z m 16.94,53.23 -0.24,-19.84 9.24,9.78 z m -10.38,24.94 -8.24,-1.81 10.98,-7.52 z m -8.24,-1.81 8.24,1.81 -8.11,11.67 z m -0.23,-13.38 11.21,5.86 -10.98,7.52 z m 11.21,5.86 -11.21,-5.86 2.08,-5.78 z m -10.85,21 8.11,-11.67 0.81,19.66 z m -20.46,17.23 11.15,-7.27 2.22,7.71 z m 13.37,0.44 -2.22,-7.71 13.25,9.14 z m 11.03,1.43 4.98,-11.11 -0.3,9.61 z m 4.98,-11.11 -4.98,11.11 -13.25,-9.14 z m -0.3,9.61 0.3,-9.61 8.6,8.32 z m -17.93,-7.64 9.31,-9.96 8.92,7.99 z m 17.42,-21.63 11.39,11.48 -10.58,8.18 z m 2.74,-9.33 7.64,-15.61 3.9,16.24 z m 7.64,-15.61 -7.64,15.61 -9.13,-11.64 z m 0,0 13.37,5.68 -9.47,10.56 z m 0,0 9,-10.06 4.37,15.74 z m 29.35,13.91 -15.78,8.93 -0.2,-17.16 z m -25.45,2.33 9.47,-10.56 0.2,17.16 z m -20.67,-12.27 -2.52,-12.89 19.29,8.92 z m 20.67,12.27 -2.89,20.18 -11.39,-11.48 z m 4.85,40.96 -9.72,-4.28 14.37,-11.26 z m -9.72,-4.28 -8.6,-8.32 10.58,-8.18 z m 14.37,-11.26 -14.37,11.26 1.98,-16.5 z m 0,0 0.17,-18.82 7.13,10.28 z m 0.17,-18.82 -0.17,18.82 -12.39,-5.24 z m 15.78,-8.93 -8.65,19.21 -7.13,-10.28 z m -20.6,43.29 4.65,-15.54 7.51,10.77 z m -7.74,-20.78 2.89,-20.18 9.67,6.6 z m 19.9,16.01 -7.51,-10.77 7.3,-8.54 z m -7.54,-46.75 5.17,-12.89 5.59,9.44 z m -23.75,19.26 2.74,-9.33 11.54,0.63 z m 28.92,-32.15 -5.17,12.89 -4.37,-15.74 z m -8.08,-12.13 4.53,-10.6 17.12,6.96 z m 34.95,-17.54 -23.98,-7.74 8.03,-8.34 z m -13.13,-29.19 12.77,1.47 -4.51,11.45 z m 13.13,29.19 -4.87,-16.27 10.95,10.36 z m -13.13,-29.19 8.26,12.92 -11.08,0.19 z m 13.13,29.19 -15.95,-16.08 11.08,-0.19 z m -9.72,24.36 -17.15,5.31 13.57,-15.77 z m 0,0 -3.58,-10.46 11.56,-2.94 z m 10.14,-1.37 -2.16,-12.03 25.79,-1.05 z m -0.42,-22.99 -1.74,10.96 -11.56,2.94 z m 0,0 24.05,9.91 -25.79,1.05 z m -1.74,10.96 2.16,12.03 -10.14,1.37 z m -11.56,2.94 -10.68,-21.64 23.98,7.74 z m 11.97,19.21 -8.39,-8.75 10.14,-1.37 z m 8.72,-53.56 -12.26,4.18 4.51,-11.45 z m -17.11,44.81 -0.89,9.64 -16.26,-4.33 z m 17.11,-44.81 8.24,4.62 -9.55,9.92 z m 27.48,13.21 13.78,-0.68 -5.55,6.99 z m -10.45,-11.67 10.45,11.67 -19.24,-8.59 z m -8.79,3.08 19.24,8.59 -10.82,17.15 z m -15.21,38.82 23.63,-13.08 -7.35,23.04 z m 5.66,-28.9 9.55,-9.92 8.42,25.74 z m 28.93,32.91 -10.96,-17.09 24.27,-2.06 z m -10.96,-17.09 -24.05,-9.91 6.08,-5.91 z m 24.27,-2.06 1.85,9.89 -15.16,9.26 z m 0,0 -24.27,2.06 19.05,-10.84 z m -13.45,-15.09 8.23,6.31 -19.05,10.84 z m -27.48,-13.21 -1.31,14.54 -10.95,-10.36 z m 27.62,47.45 -10.01,1.32 -0.95,-18.41 z m -38.25,42.83 -21.47,0.17 8.65,-19.21 z m -12.82,-19.04 -5.22,-11.68 11.52,3.9 z m 5.45,-16.79 9.28,-0.89 -8.43,9.9 z m 0,0 0.89,-9.64 8.39,8.75 z m -5.45,16.79 6.3,-7.78 4.23,9.56 z m 5.45,-16.79 0.85,9.01 -11.52,-3.9 z m -16.26,-4.33 16.26,4.33 -10.67,5.11 z m 21.34,22.9 -4.23,-9.56 8.43,-9.9 z m -18.97,36.74 -0.21,-19.31 15.11,21.75 z m 21.26,-19.48 -12.82,-19.04 10.53,1.78 z m 0,0 -6.36,21.92 -15.11,-21.75 z m 0.78,17.09 22.56,-9.39 -15.16,15.93 z m 8.16,-17 -8.94,-0.09 -2.29,-17.26 z m -8.94,-0.09 0.78,17.09 -7.14,4.83 z m 0.78,17.09 -0.78,-17.09 8.94,0.09 z m 19.16,-53.97 -22.23,19.62 4.2,-19.46 z m -48.74,9.61 10.76,-3.45 5.22,11.68 z m 48.02,19.39 0.72,-29 8.87,18.5 z m 0,0 -10.28,7.97 -11.23,-17.35 z m 17.13,-24.24 -7.54,13.74 -8.87,-18.5 z m 0,0 -8.11,-9.39 10.01,-1.32 z m 0,0 -16.41,-4.76 8.3,-4.63 z m -34.44,-4.6 1.75,-10.12 16.28,9.96 z m 17.31,28.84 9.59,-10.5 -1.26,12.19 z m -11.04,31.51 15.16,-15.93 -0.41,9.92 z m 0.76,-23.54 10.28,-7.97 -0.77,8.71 z m 14.4,7.61 -14.4,-7.61 9.51,0.74 z m 0,0 -22.56,9.39 8.16,-17 z m -4.89,-6.87 13.2,0.22 -8.31,6.65 z m 13.2,0.22 -13.2,-0.22 9.1,-7.02 z m -12.43,-8.93 8.33,1.69 -9.1,7.02 z m 0,0 -21.51,-9.38 22.23,-19.62 z m 9.02,-33.63 -8.3,4.63 7.35,-23.04 z m -55.42,-21.38 6.44,-14.68 10.68,21.64 z"
       id="path5" />
    <path
       fill="#8ad317"
       stroke="#000000"
       stroke-width="0.5"
       d="m 8.51,114.05 -7.31,-8.72 10.15,-8.7 z m 0,0 13.84,19.13 -19.62,-8.8 z m -4.01,30.92 -3.27,-12.2 21.12,0.41 z m -1.77,-20.59 19.62,8.8 -21.12,-0.41 z m 0.02,40.3 0.11,-11.83 18.33,11.24 z m 0,0 18.44,-0.59 -17.87,7.08 z m 20.83,-9.89 -2.39,9.3 L 2.86,152.85 Z M 4.5,144.97 23.58,154.79 2.86,152.85 Z m -1.18,26.2 17.87,-7.08 3.18,8.41 z M 8.51,114.05 11.35,96.63 21.88,106 Z m 13.37,-8.05 5.16,-13 14.79,8.31 z m 5.16,-13 -5.16,13 -10.53,-9.37 z m 8.52,19.37 6.27,-11.06 -0.24,16.62 z M 41.83,101.31 35.56,112.37 21.88,106 Z m 5.47,26.32 -9.36,1.16 3.65,-10.86 z M 21.88,106 l 13.68,6.37 -13.21,20.81 z m 16.06,22.79 -2.38,-16.42 6.03,5.56 z m 3.71,34.34 -20.46,0.96 2.39,-9.3 z M 4.5,144.97 l 22.19,-0.33 -3.11,10.15 z m 16.69,19.12 20.46,-0.96 -17.28,9.37 z M 4.5,144.97 l 17.85,-11.79 4.34,11.46 z m 41.07,7.82 -21.99,2 3.11,-10.15 z m -7.63,-24 -11.25,15.85 -4.34,-11.46 z m 0,0 7.63,24 -18.88,-8.15 z m -14.36,26 21.99,-2 -3.92,10.34 z m -1.23,-21.61 13.21,-20.81 2.38,16.42 z m 2.02,39.32 17.28,-9.37 -9.81,13.2 z m 17.22,-54.57 0.24,-16.62 10.89,14.63 z M 21.88,106 22.35,133.18 8.51,114.05 Z M 3.32,171.17 24.37,172.5 7.7,185.45 Z m -1.35,42.49 6.97,-5.78 -2.17,18.81 z m 15.3,-16.1 -8.33,10.32 -2.8,-15.39 z m -8.33,10.32 13.23,18.87 -15.4,-0.06 z m -0.45,26.5 -1.72,-7.69 15.4,0.06 z m 5.36,29.39 -10.42,-8.07 11.61,-0.82 z m -10.42,-8.07 10.42,8.07 -5.79,4 z m 4.21,-9.34 7.4,8.52 -11.61,0.82 z m 0.85,-11.98 13.79,2.26 -14.64,9.72 z m 8.78,-36.82 -11.13,-5.07 1.56,-7.04 z m 25.95,-0.26 -25.95,0.26 4.6,-9.36 z m -21.35,-9.1 -4.6,9.36 -9.57,-12.11 z m -4.6,9.36 25.95,-0.26 -10.61,16.32 z M 48.13,175.52 33.37,185 31.84,176.33 Z m -14.76,9.48 9.85,12.3 -21.35,-9.1 z m 0,0 -11.5,3.2 9.97,-11.87 z M 7.7,185.45 24.37,172.5 21.87,188.2 Z M 32.61,213.62 22.17,226.75 8.94,207.88 Z m -10.33,23.02 4.15,8.72 -18.79,1 z m -13.79,-2.26 13.68,-7.63 0.11,9.89 z m 13.79,2.26 -0.11,-9.89 31.5,8.6 z m -14.64,9.72 18.79,-1 -11.39,9.52 z m 18.79,-1 11.63,21.14 -10.68,-1.37 z m 0,0 -4.15,-8.72 31.39,-1.29 z m 0,0 0.95,19.77 -12.34,-10.25 z m 0,0 26.52,16.22 -14.89,4.92 z m -11.39,9.52 12.34,10.25 -13.53,-1.36 z m 17.57,-41.26 21.06,21.73 -31.5,-8.6 z m -23.67,-5.74 8.33,-10.32 15.34,16.06 z m 15.43,-35.38 7.47,3.83 -9.97,11.87 z m 17.28,-9.37 6.48,12.39 -16.29,0.81 z m 3.92,-10.34 1.73,-25.16 9.21,8.66 z m 1.73,-25.16 -1.73,25.16 -7.63,-24 z m 11.54,-2.29 -2.33,10.95 -9.21,-8.66 z m 0,0 -6.12,-9.4 15.56,5.31 z m -2.33,10.95 15.77,20.84 -26.71,-4.34 z m 2.33,-10.95 -11.54,2.29 5.42,-11.69 z m -11.54,2.29 -5.71,-9.7 11.13,-1.99 z m 4.35,35.62 -6.08,-10.46 26.71,4.34 z m -8.43,34.05 4.91,-21.78 8.09,10.63 z m 0,0 -9.85,-12.3 14.76,-9.48 z m 15.65,-22.72 -2.65,11.57 -8.09,-10.63 z m 13.41,-17.45 -13.41,17.45 -7.22,-11.33 z m -16.06,29.02 2.65,-11.57 15.1,12.03 z m 2.65,-11.57 -10.74,0.94 3.52,-12.27 z m -17.22,-11.45 10,0.12 -3.52,12.27 z m 27.06,44.34 -25.49,-10.17 13,-11.15 z m -12.2,-71.18 2.33,-10.95 12.55,6.23 z m -14.86,26.84 3.92,-10.34 6.08,10.46 z m 33.44,-15.11 -18.58,-11.73 14.88,-4.72 z m -2.81,9.11 -15.77,-20.84 18.58,11.73 z m 5.78,6.36 -1.52,14.3 -17.67,-3.21 z m -19.19,11.09 13.41,-17.45 5.78,6.36 z m 18.02,21.18 -2.92,-9.15 12.05,-0.76 z m -2.92,-9.15 -15.1,-12.03 17.67,3.21 z m 12.05,-0.76 -12.05,0.76 2.57,-8.82 z m -12.05,0.76 2.92,9.15 -20.67,-9.61 z m 12.05,-0.76 1.66,6.8 -10.79,3.11 z m -1.51,-14.68 1.51,14.68 -9.48,-8.06 z m -7.97,6.62 1.52,-14.3 6.45,7.68 z m 0.35,17.97 10.79,-3.11 5.76,9.71 z m -18.05,-70.42 9.44,-4.09 3.11,10.32 z m 9.87,82.13 -12.49,-21.32 20.67,9.61 z m -22.35,4.26 11.79,11.69 -4.48,11.93 z m 11.79,11.69 -11.79,-11.69 19.03,3.6 z m 7.24,-8.09 3.32,-7.86 3.7,15.53 z m 3.32,-7.86 -3.32,7.86 -19.03,-3.6 z m 3.7,15.53 -3.7,-15.53 14.48,8.22 z m -7.02,-7.67 7.02,7.67 -14.26,0.42 z m -22.17,-18.03 25.49,10.17 -22.35,4.26 z m 14.93,26.12 14.26,-0.42 -8.24,10.71 z m -15.22,43.53 -4.87,-0.45 14.89,-4.92 z m 10.74,-31.6 10.5,-1.64 1.39,27.79 z m 10.5,-1.64 -10.5,1.64 4.48,-11.93 z m 8.57,1.85 -7.18,25.94 -1.39,-27.79 z m -19.07,-0.21 11.89,26.15 -12.61,0.08 z m 0,0 -0.72,26.23 -26.52,-16.22 z m 10.5,-1.64 8.24,-10.71 0.33,12.56 z m -31.56,-20.09 13.75,-1.89 7.31,23.62 z m 50.4,12.85 0.18,-10.78 10.69,5.34 z m 0,0 -10.27,9.09 L 72.41,223 Z m 12.95,-11.22 -2.08,5.78 -10.69,-5.34 z m 0,0 -12.77,0.44 10.25,-13.33 z m -27.25,-7.78 8.18,-11.71 6.3,19.93 z m 14.3,19 10.87,-5.44 0.23,13.38 z m -6.56,30.27 -2.67,8.38 -8.22,-3.62 z m 0,0 -3.71,-21.18 21.5,12.33 z m -2.67,8.38 2.67,-8.38 8.48,1.11 z m 2.67,-8.38 -10.89,4.76 7.18,-25.94 z m 0,0 17.79,-8.85 -9.31,9.96 z m 17.79,-8.85 -21.5,-12.33 21.37,-1.15 z m -21.5,-12.33 10.27,-9.09 11.1,7.94 z m 10.27,-9.09 -10.6,-3.47 10.78,-7.31 z m 10.43,-24.11 -10.25,13.33 -6.3,-19.93 z m -47.08,9.37 -13.75,1.89 10.61,-16.32 z"
       id="path6" />
  </g>
  <g
     id="g11"
     style="display:inline">
    <path
       fill="#ede3f1"
       stroke="#000000"
       stroke-width="0.5"
       d="M 7.11,13.04 2.07,7.78 15.04,5.71 Z m 14.11,9.8 -6.18,-17.13 10.86,8.96 z m 1.2,12.84 -1.2,-12.84 12.35,3.21 z M 15.04,5.71 21.22,22.84 7.11,13.04 Z M 7.11,13.04 21.22,22.84 4.96,24.6 Z M 6.21,37.31 22.42,35.68 16.62,46.4 Z M 22.42,35.68 6.21,37.31 4.96,24.6 Z M 27.89,47.39 16.62,46.4 22.42,35.68 Z M 6.21,37.31 16.62,46.4 1.75,41.23 Z M 4.96,24.6 21.22,22.84 22.42,35.68 Z M 1.75,41.23 16.62,46.4 7.69,54.46 Z M 25.9,14.67 15.04,5.71 25.31,5.99 Z M 32.79,6.19 44.88,8.88 34.16,15.61 Z M 51.82,8.29 65.41,1.57 72,13.07 Z M 72,13.07 65.41,1.57 73.84,2.11 Z M 44.88,8.88 51.82,8.29 41.68,22.36 Z M 48.29,32.7 51.82,8.29 72,13.07 Z M 25.9,14.67 l 8.26,0.94 -0.59,10.44 z m 8.26,0.94 -8.26,-0.94 6.89,-8.48 z m -0.59,10.44 0.59,-10.44 7.52,6.75 z M 25.9,14.67 33.57,26.05 21.22,22.84 Z M 51.82,8.29 48.29,32.7 41.68,22.36 Z M 41.68,22.36 34.16,15.61 44.88,8.88 Z M 48.29,32.7 38.74,48 33.57,26.05 Z M 41.68,22.36 48.29,32.7 33.57,26.05 Z M 64.95,37.9 48.29,32.7 72,13.07 Z M 22.42,35.68 33.57,26.05 27.89,47.39 Z m 42.53,2.22 7.92,3.16 -5.51,10.56 z M 32.79,6.19 25.9,14.67 25.31,5.99 Z M 38.74,48 48.29,32.7 64.95,37.9 Z M 4.56,76.77 7.1,61.02 15.17,74.15 Z M 7.1,61.02 33.45,57.87 15.17,74.15 Z M 33.45,57.87 16.62,46.4 27.89,47.39 Z M 33.02,81.07 15.17,74.15 33.45,57.87 Z M 16.62,46.4 7.1,61.02 7.69,54.46 Z M 4.56,76.77 15.17,74.15 8.21,91.24 Z M 2.83,88.56 4.56,76.77 8.21,91.24 Z M 1.2,105.33 8.21,91.24 11.35,96.63 Z M 8.21,91.24 27.04,93 11.35,96.63 Z m 0,0 L 15.17,74.15 27.04,93 Z M 27.04,93 33.02,81.07 38.03,91.3 Z M 33.02,81.07 27.04,93 15.17,74.15 Z M 7.1,61.02 16.62,46.4 33.45,57.87 Z M 33.45,57.87 38.74,48 43.72,63.33 Z M 38.74,48 33.45,57.87 27.89,47.39 Z m 0,0 20.12,15.36 -15.14,-0.03 z M 58.86,63.36 38.74,48 67.36,51.62 Z m 0,0 14.05,21.6 -34.88,6.34 z M 43.72,63.33 58.86,63.36 38.03,91.3 Z M 38.74,48 64.95,37.9 67.36,51.62 Z M 43.72,63.33 38.03,91.3 33.02,81.07 Z m -1.89,37.98 26.32,10.82 -15.43,3.81 z M 72.91,84.96 41.83,101.31 38.03,91.3 Z M 38.03,91.3 41.83,101.31 27.04,93 Z m 30.25,29.95 9.98,-2.91 -6.87,13.23 z m -0.13,-9.12 10.11,6.21 -9.98,2.91 z m 0,0 0.13,9.12 -15.56,-5.31 z m -26.32,-10.82 32.47,4.17 -6.15,6.65 z M 67.36,51.62 76.19,64.51 58.86,63.36 Z M 43.72,63.33 33.02,81.07 33.45,57.87 Z M 27.89,47.39 33.57,26.05 38.74,48 Z M 81.33,18.85 64.95,37.9 72,13.07 Z m 0,0 -8.46,22.21 -7.92,-3.16 z M 72,13.07 82.32,6.84 81.33,18.85 Z m 19.87,4.39 0.07,9.52 -10.61,-8.13 z m 0,0 L 82.32,6.84 94.07,3.27 Z m 0,0 -10.54,1.39 0.99,-12.01 z m -10.54,1.39 10.61,8.13 -8.8,11.32 z m -6.1,36.16 0.96,9.5 -8.83,-12.89 z m 0,0 -2.36,-13.95 10.27,-2.76 z m 0,0 L 86.28,66.6 76.19,64.51 Z M 97.09,48.79 86.28,66.6 75.23,55.01 Z M 83.14,38.3 97.09,48.79 75.23,55.01 Z M 72.91,84.96 76.19,64.51 86.28,66.6 Z m -0.04,-43.9 8.46,-22.21 1.81,19.45 z m -14.01,22.3 17.33,1.15 -3.28,20.45 z M 83.14,38.3 91.94,26.98 97.09,48.79 Z M 72,13.07 73.84,2.11 82.32,6.84 Z m 25.09,35.72 -1.51,14.7 -9.3,3.11 z m -5.15,-21.81 14.09,9.09 -8.94,12.72 z m 14.09,9.09 10.62,1.68 -5.41,10.45 z m 0,0 5.21,12.13 -14.15,0.59 z m -8.94,12.72 14.15,-0.59 -3.47,8.94 z m -1.51,14.7 12.19,-6.35 6.68,9.95 z m 12.19,-6.35 -12.19,6.35 1.51,-14.7 z m 6.68,9.95 -6.68,-9.95 8.21,-3.61 z m -18.87,-3.6 18.87,3.6 1.56,15.24 z m 21.7,9.03 -1.27,9.81 -1.56,-15.24 z m -9.51,-15.38 3.47,-8.94 4.74,5.33 z m -21.49,9.46 9.3,-3.11 -6.81,20.57 z m 29.73,15.73 -27.24,1.73 6.81,-20.57 z m -43.1,2.63 9.41,18.64 -8.02,1.88 z m 9.41,18.64 -9.41,-18.64 15.86,-0.9 z m 12.22,-9 -1.1,9.6 -11.12,-0.6 z m 10.81,-2.38 -11.91,11.98 1.1,-9.6 z m -0.61,19.14 -11.3,-7.16 11.91,-11.98 z m -10.2,-16.76 -12.22,9 6.45,-19.54 z M 72.91,84.96 86.28,66.6 88.77,84.06 Z m 9.41,18.64 11.12,0.6 3.82,12.27 z m -4.06,14.74 15.76,14.29 -8.21,1.64 z m 0,0 -3.96,-12.86 8.02,-1.88 z m 0,0 7.55,15.93 -14.42,-2.7 z m -3.96,-12.86 3.96,12.86 -10.11,-6.21 z m 40.91,16.63 -21.19,10.52 3.24,-16.16 z m -17.95,-5.64 -3.24,16.16 -15.76,-14.29 z m -19,1.87 4.06,-14.74 14.94,12.87 z m 36.95,3.77 -17.95,-5.64 7.48,-5.11 z m -21.77,-17.91 11.3,7.16 -7.48,5.11 z m 1.1,-9.6 -5.77,-10.54 16.58,8.16 z m -21.63,-9.64 1.39,20.52 -32.47,-4.17 z m 42.94,28.14 -0.64,9.01 -10.47,-10.75 z m -11.11,-1.74 13.57,-4.53 -2.46,6.27 z m 14.04,-16.81 -0.47,12.28 -12.96,-14.61 z m -30.01,-10.49 27.24,-1.73 -10.66,9.89 z m 27.08,29.04 12.46,8.02 -13.1,0.99 z m -1.96,33.91 -7.64,-5.85 15.91,-4.84 z m -7.64,-5.85 -12.23,-8.53 21.19,-10.52 z m 15.91,-4.84 -15.91,4.84 8.96,-19.05 z m -8.27,10.69 17.43,-1.76 -9.28,9.45 z m 17.43,-1.76 -17.43,1.76 8.27,-10.69 z m -9.16,-8.93 -6.95,-14.21 13.1,-0.99 z m -16.81,-44.1 12.96,14.61 -13.57,4.53 z m 10.66,-9.89 2.77,12.22 -13.43,-2.33 z M 75.23,55.01 67.36,51.62 72.87,41.06 Z"
       id="path7" />
    <path
       fill="#3aebc1"
       stroke="#000000"
       stroke-width="0.5"
       d="M 112.78,28.71 91.94,26.98 91.87,17.46 Z m 0,0 L 91.87,17.46 104.94,6.97 Z M 94.07,3.27 104.94,6.97 91.87,17.46 Z m 23.86,10.37 -5.15,15.07 -7.84,-21.74 z m -1.28,24.11 -0.67,15.78 -4.74,-5.33 z m 8.99,-5.05 -8.99,5.05 -3.87,-9.04 z m -9.66,20.83 0.67,-15.78 15.94,10.29 z m 0.67,-15.78 -10.62,-1.68 6.75,-7.36 z m -10.62,-1.68 -14.09,-9.09 20.84,1.73 z m 11.9,-22.43 -12.99,-6.67 7.44,0.35 z m 0,0 7.03,-9.62 10.76,-0.22 z m 7.03,-9.62 -7.03,9.62 -5.55,-6.32 z m 21.26,20.57 1.05,-15.94 15.25,4.74 z m -28.29,-10.95 17.79,-9.84 10.5,20.79 z m 28.29,10.95 -10.5,-20.79 11.55,4.85 z m -13.63,23.45 -3.63,13.33 -12.98,-7.84 z m 0,0 -6.95,-15.34 20.58,-8.11 z m -3.63,13.33 3.63,-13.33 4.12,18.91 z m -12.31,-23.62 8.99,-5.05 6.95,15.34 z m 15.94,10.29 15.09,-1.43 -10.97,20.34 z m 15.09,-1.43 -15.09,1.43 13.63,-23.45 z m 14.28,-13.19 -14.28,13.19 -1.46,-22.02 z m -6.59,39.71 -18.6,3.89 -0.06,-10.07 z M 125.64,32.7 117.93,13.64 146.22,24.59 Z m -9.66,20.83 12.98,7.84 -14.51,5.72 z m 20.73,13.42 10.97,-20.34 6.61,10.21 z M 125.64,32.7 112.78,28.71 117.93,13.64 Z m -8.36,39.82 11.68,-11.15 7.75,5.58 z m 9.79,39.7 -8.29,-17.67 14.23,-5.74 z m -8.76,-5.39 0.47,-12.28 8.29,17.67 z m 14.7,-18.02 -14.23,5.74 -2.77,-12.22 z m -4.05,-27.44 -11.68,11.15 -2.83,-5.43 z m -6.8,74.95 15.34,-11.57 -6.18,20.5 z m 6.15,-15.2 -1.24,-8.9 10.43,12.53 z m 9.19,3.63 -15.34,11.57 6.15,-15.2 z m -9.19,-3.63 -12.46,-8.02 11.22,-0.88 z m -12.46,-8.02 2.46,-6.27 8.76,5.39 z m 6.19,41.6 9.28,-9.45 10.87,13.07 z m 14.73,-77.68 -20.76,5.31 1.27,-9.81 z m -3.76,11.79 3.76,-11.79 15.09,6.07 z m 3.76,-11.79 -3.76,11.79 -17,-6.48 z m 6.99,18.58 8.1,-12.51 -0.23,18.49 z m 8.1,-12.51 -8.1,12.51 -10.75,-6.79 z m 11.6,20.33 -11.83,-1.84 0.23,-18.49 z m -30.45,-14.61 10.75,6.79 -2.41,11.92 z m 3.7,-21.86 0.06,10.07 -19.49,-4.5 z m 4.64,40.57 2.41,-11.92 7.87,5.98 z m -10.03,37.73 13.69,-0.04 -2.82,13.11 z m 0,0 6.18,-20.5 7.51,20.46 z m 6.18,-20.5 -10.43,-12.53 14.28,-4.7 z m 27.55,-9.06 -13.88,18.25 -13.67,-9.19 z m -22.86,42.63 -8.03,8.34 -12.12,-11.96 z m 8.98,-24.38 -6.16,11.27 -7.51,-20.46 z m 6.61,12.74 -12.77,-1.47 6.16,-11.27 z m 7.27,-30.99 -27.55,9.06 3.85,-17.23 z m 0,0 -23.7,-8.17 10.28,-5.94 z m -37.98,-3.47 5.94,-23.41 8.34,18.71 z m 9.7,-35.2 18.6,-3.89 -3.51,9.96 z m 25.75,-63.63 -15.25,-4.74 6.95,-3.93 z m -16.3,11.2 20.31,-3.55 -4.57,12.38 z m 21.88,22.38 -20.42,-0.36 14.28,-13.19 z m 14.51,-31.8 -16.08,5.87 1.28,-16.37 z m -14.8,-10.5 -1.28,16.37 -4.01,-7.65 z m 0.29,42.3 -6.14,-13.55 14.57,1.05 z m -5.58,-33.58 -8.3,-8.67 13.59,-0.05 z m 4.01,7.65 10,13.43 -14.57,-1.05 z m -12.24,35.78 11.29,8.59 -10.21,7.72 z m 11.29,8.59 -11.29,-8.59 14.48,-1.48 z m -10.21,7.72 10.21,-7.72 6.15,6.63 z m 0,0 16.36,-1.09 -19.87,11.05 z m 12.73,-26.16 17.26,5.75 -16.59,2.62 z m 10.67,19.76 -13.19,-1.32 3.19,-10.07 z m -13.19,-1.32 13.19,1.32 -7.04,5.31 z m 2.52,-18.44 0.67,8.37 -14.48,1.48 z m -20.42,-0.36 20.42,0.36 -13.81,9.85 z m 24.05,25.43 7,10.79 -26.87,0.26 z m -3.92,-67.37 7.91,-1.37 6.89,11.87 z m -21.59,19.92 16.3,-11.2 4.01,7.65 z m 30.31,9.88 6.08,-19.3 11.03,6.85 z m 0,0 -10,-13.43 16.08,-5.87 z m 17.11,-12.45 -1.52,11.03 -15.59,1.42 z M 175.72,3.3 l 8.37,4.94 -1.48,6.93 z m 0.81,31.17 15.59,-1.42 -0.42,12.26 z m 16.07,41.07 -13.87,7.29 0.04,-16.1 z m -13.87,7.29 -7,-10.79 7.04,-5.31 z m 0.04,-16.1 -10,-11.39 16.59,-2.62 z m 8.31,-3.03 -8.31,3.03 6.59,-14.01 z m 0,0 5.52,11.84 -13.83,-8.81 z m -1.72,-10.98 -8.83,-18.25 15.17,10.84 z m -17.26,-5.75 8.43,-12.5 8.83,18.25 z m 10.63,35.86 -15.27,20.59 -11.6,-20.33 z m -27.56,51.11 13.88,-18.25 -2.75,20.4 z m 0,0 11.13,2.15 -4.52,10.59 z m 12.29,-30.52 10.73,13.37 -9.14,-1.1 z m 10.73,13.37 -10.73,-13.37 19.68,1.9 z m -11.89,19.3 11.89,-19.3 10.1,25.25 z m 2.75,-20.4 9.14,1.1 -11.89,19.3 z m 13.68,-32.86 4.41,22.49 -19.68,-1.9 z m 26.06,41.4 -20.5,17.81 -10.1,-25.25 z m -39.26,29.72 9.87,-8.67 -1.63,13.29 z m 9.87,-8.67 -9.87,8.67 -7.75,-7.27 z m 0,0 8.89,-3.24 -1.73,13.45 z m 0,0 -17.62,1.4 4.52,-10.59 z m 7.16,10.21 1.73,-13.45 9.35,10.08 z m -7.16,-10.21 7.16,10.21 -8.79,3.08 z m -13.1,-9.19 21.99,5.95 -8.89,3.24 z m 11.89,-19.3 8.95,-11.47 10.3,0.6 z m -22.56,-15.21 11.83,1.84 1.59,12.27 z m 22.56,15.21 19.25,-10.87 9.73,9.32 z m 19.25,-10.87 -5.03,-7.17 14.31,-4.27 z m 0,0 11.93,-2.92 -2.2,12.24 z m 9.28,-11.44 2.65,8.52 -11.93,2.92 z m -23.99,-11.65 9.68,15.92 -5.27,6.57 z m 24.44,32.41 2.2,-12.24 6.52,9.12 z m -10.16,51.92 -10.45,-11.67 11.08,-3.37 z m -18.82,-50.37 28.98,-1.55 1.62,8.99 z m 30.6,7.44 1.45,21.12 -21.95,-3.31 z m 0,0 8.38,14.64 -6.93,6.48 z m 0,0 -1.62,-8.99 8.72,-3.12 z m 1.45,21.12 -12.6,6.77 -9.35,-10.08 z m -23.1,-40.03 5.27,-6.57 5.03,7.17 z M 155.37,73.13 136.71,66.95 154.29,56.82 Z"
       id="path8" />
  </g>
  <path
     id="path12"
     sodipodi:type="inkscape:offset"
     inkscape:radius="0"
     inkscape:original="M 211.89062 112.11914 L 204.78906 124.23047 L 213.16992 138.86914 L 206.24023 145.34961 L 193.64062 152.11914 L 193.00977 167.16016 L 206.78906 166.48047 L 201.24023 173.4707 L 206.46094 182.25 L 208.31055 192.14062 L 193.15039 201.40039 L 191.25 212.10938 L 183.71094 225.84961 L 182.44922 238.03906 L 186.55078 245.2793 L 178.24023 251.92969 L 177.83008 261.84961 L 186.51953 266.16016 L 198.58984 263.82031 L 203.16016 266.33984 L 216.58984 266.08008 L 224.13086 261.03906 L 237.24023 265.98047 L 241.4707 267.63086 L 258.65039 265.75977 L 265.41016 266.09961 L 276.98047 261.23047 L 288.61914 264.46094 L 298.91016 266.16016 L 306.98047 267 L 317.34961 266.32031 L 322.88086 266.16016 L 334.46094 267.9707 L 343.01953 263.44922 L 352.28906 264.53906 L 361.28906 262.55078 L 377.01953 262.39062 L 384.4707 267.4707 L 386.68945 253.34961 L 385.89062 244.08008 L 382.7793 231.5293 L 387.24023 227.7207 L 388.67969 215.83008 L 384.10938 208.21094 L 386.35938 192.41016 L 384.17969 186.58984 L 383.31055 172.80078 L 387.28906 167.83008 L 386.28906 154.26953 L 383.89062 145.75977 L 372.16992 158.76953 L 367.30078 153.25977 L 355.56055 156.59961 L 343.92969 155.4707 L 332.67969 152.98047 L 321.58008 147.38086 L 318.09961 142.91016 L 306.94922 148.0293 L 302.2207 138.91992 L 293.48047 125.83984 L 283.0293 135.41992 L 273.11914 128.75 L 268.25 134.76953 L 254.85938 125.91016 L 246.9707 124.06055 L 231.94922 116.15039 L 224.76953 114.93945 L 211.89062 112.11914 z "
     d="m 211.89062,112.11914 -7.10156,12.11133 8.38086,14.63867 -6.92969,6.48047 -12.59961,6.76953 -0.63085,15.04102 13.77929,-0.67969 -5.54883,6.99023 5.22071,8.7793 1.84961,9.89062 -15.16016,9.25977 -1.90039,10.70899 -7.53906,13.74023 -1.26172,12.18945 4.10156,7.24024 -8.31055,6.65039 -0.41015,9.91992 8.68945,4.31055 12.07031,-2.33985 4.57032,2.51953 13.42968,-0.25976 7.54102,-5.04102 13.10937,4.94141 4.23047,1.65039 17.17969,-1.87109 6.75977,0.33984 11.57031,-4.86914 11.63867,3.23047 10.29102,1.69922 8.07031,0.83984 10.36914,-0.67969 5.53125,-0.16015 11.58008,1.81054 8.55859,-4.52148 9.26953,1.08984 9,-1.98828 15.73047,-0.16016 7.45117,5.08008 2.21875,-14.12109 -0.79883,-9.26953 -3.11132,-12.55078 4.46093,-3.8086 1.43946,-11.89062 -4.57031,-7.61914 2.25,-15.80078 -2.17969,-5.82032 -0.86914,-13.78906 3.97851,-4.9707 -1,-13.56055 -2.39844,-8.50976 -11.7207,13.00976 -4.86914,-5.50976 -11.74023,3.33984 -11.63086,-1.12891 -11.25,-2.49023 -11.09961,-5.59961 -3.48047,-4.4707 -11.15039,5.11914 -4.72852,-9.10938 -8.74023,-13.08008 -10.45117,9.58008 -9.91016,-6.66992 -4.86914,6.01953 -13.39062,-8.85937 -7.88868,-1.84961 -15.02148,-7.91016 -7.17969,-1.21094 z"
     style="display:inline;fill:none;fill-opacity:1;stroke:#fe0000;stroke-opacity:1;stroke-width:3;stroke-dasharray:none" />
  <path
     id="path14"
     sodipodi:type="inkscape:offset"
     inkscape:radius="0"
     inkscape:original="M 225.15039 1.4492188 L 217.40039 5.8300781 L 207.42969 6.1308594 L 197.5 8.1308594 L 184.08984 8.2402344 L 182.60938 15.169922 L 193.64062 22.019531 L 192.11914 33.050781 L 191.69922 45.310547 L 185.35938 52.720703 L 187.08008 63.699219 L 192.59961 75.539062 L 178.73047 82.830078 L 188.41016 98.75 L 202.7207 94.480469 L 205.36914 103 L 211.89062 112.11914 L 224.76953 114.93945 L 231.94922 116.15039 L 246.9707 124.06055 L 254.85938 125.91016 L 268.25 134.76953 L 273.11914 128.75 L 283.0293 135.41992 L 293.48047 125.83984 L 302.2207 138.91992 L 306.94922 148.0293 L 318.09961 142.91016 L 321.58008 147.38086 L 332.67969 152.98047 L 343.92969 155.4707 L 355.56055 156.59961 L 367.30078 153.25977 L 372.16992 158.76953 L 383.89062 145.75977 L 388.53906 133.75 L 387.08008 123.63086 L 387.25 118.24023 L 385.75977 102.96094 L 382.92969 92.599609 L 385.28906 82.75 L 384.88086 74.150391 L 385.74023 64.699219 L 386.78906 53.560547 L 385.4707 46.080078 L 387.58984 38.609375 L 385.28906 23.529297 L 384.66992 15.300781 L 384.91016 4.5703125 L 378.80078 4.5996094 L 367.66016 8.6308594 L 354.90039 8.609375 L 345.65039 4.8007812 L 332.36914 7.8496094 L 321.94922 2.6191406 L 318.91992 3.1191406 L 302.0293 6.5292969 L 296.66016 3.75 L 283.51953 7 L 275.66016 4.8808594 L 262.51953 5.0800781 L 253.51953 7.5 L 246.84961 3.6894531 L 237.42969 8.859375 L 225.15039 1.4492188 z "
     d="m 225.15039,1.4492188 -7.75,4.3808593 -9.9707,0.3007813 -9.92969,2 -13.41016,0.109375 -1.48046,6.9296876 11.03124,6.849609 -1.52148,11.03125 -0.41992,12.259766 -6.33984,7.410156 1.7207,10.978516 5.51953,11.839843 -13.86914,7.291016 L 188.41016,98.75 202.7207,94.480469 205.36914,103 l 6.52148,9.11914 12.87891,2.82031 7.17969,1.21094 15.02148,7.91016 7.88868,1.84961 13.39062,8.85937 4.86914,-6.01953 9.91016,6.66992 10.45117,-9.58008 8.74023,13.08008 4.72852,9.10938 11.15039,-5.11914 3.48047,4.4707 11.09961,5.59961 11.25,2.49023 11.63086,1.12891 11.74023,-3.33984 4.86914,5.50976 11.7207,-13.00976 4.64844,-12.00977 -1.45898,-10.11914 0.16992,-5.39063 -1.49023,-15.27929 -2.83008,-10.361331 2.35937,-9.849609 -0.4082,-8.599609 0.85937,-9.451172 1.04883,-11.138672 -1.31836,-7.480469 2.11914,-7.470703 -2.30078,-15.080078 -0.61914,-8.228516 0.24024,-10.7304685 -6.10938,0.029297 -11.14062,4.03125 -12.75977,-0.021484 -9.25,-3.8085938 -13.28125,3.0488282 -10.41992,-5.2304688 -3.0293,0.5 L 302.0293,6.5292969 296.66016,3.75 283.51953,7 275.66016,4.8808594 262.51953,5.0800781 253.51953,7.5 246.84961,3.6894531 237.42969,8.859375 Z"
     style="display:inline;fill:none;stroke:#fe0000;stroke-opacity:1;stroke-width:3;stroke-dasharray:none" />
  <path
     id="path16"
     sodipodi:type="inkscape:offset"
     inkscape:radius="0"
     inkscape:original="M 27.039062 93 L 11.349609 96.630859 L 1.1992188 105.33008 L 8.5097656 114.05078 L 2.7304688 124.38086 L 1.2304688 132.76953 L 4.5 144.9707 L 2.859375 152.84961 L 2.75 164.67969 L 3.3203125 171.16992 L 7.6992188 185.44922 L 6.140625 192.49023 L 8.9394531 207.88086 L 1.9707031 213.66016 L 6.7695312 226.68945 L 8.4902344 234.38086 L 7.640625 246.35938 L 3.4296875 255.69922 L 8.0605469 267.76953 L 13.849609 263.76953 L 27.380859 265.13086 L 38.060547 266.5 L 42.929688 266.94922 L 52.949219 261.58008 L 65.560547 261.5 L 73.779297 265.11914 L 87.150391 265.56055 L 98.179688 266.99023 L 102.85938 265.49023 L 111.75977 264.19922 L 121.48047 268.48047 L 133.64062 263.71094 L 148.53906 266.15039 L 155.67969 261.32031 L 163.08008 267.85938 L 177.83008 261.84961 L 178.24023 251.92969 L 186.55078 245.2793 L 182.44922 238.03906 L 183.71094 225.84961 L 191.25 212.10938 L 193.15039 201.40039 L 208.31055 192.14062 L 206.46094 182.25 L 201.24023 173.4707 L 206.78906 166.48047 L 193.00977 167.16016 L 182.56055 155.49023 L 173.76953 158.57031 L 165.5293 153.94922 L 157.7793 146.67969 L 145.00977 145.21094 L 142.18945 158.32031 L 134.16016 166.66016 L 122.03906 154.69922 L 113.89062 147.00977 L 106.25 141.16016 L 94.019531 132.63086 L 85.810547 134.26953 L 71.390625 131.57031 L 68.279297 121.25 L 52.720703 115.93945 L 41.830078 101.31055 L 27.039062 93 z "
     d="m 27.039062,93 -15.689453,3.630859 -10.1503902,8.699221 7.3105468,8.7207 -5.7792968,10.33008 -1.5,8.38867 L 4.5,144.9707 2.859375,152.84961 2.75,164.67969 l 0.5703125,6.49023 4.3789063,14.2793 -1.5585938,7.04101 2.7988281,15.39063 -6.96875,5.7793 4.7988281,13.02929 1.7207032,7.69141 -0.8496094,11.97852 -4.2109375,9.33984 4.6308594,12.07031 5.7890621,-4 13.53125,1.36133 10.679688,1.36914 4.869141,0.44922 10.019531,-5.36914 12.611328,-0.0801 8.21875,3.61914 13.371094,0.44141 11.029297,1.42968 4.679692,-1.5 8.90039,-1.29101 9.7207,4.28125 12.16015,-4.76953 14.89844,2.43945 7.14063,-4.83008 7.40039,6.53907 14.75,-6.00977 0.41015,-9.91992 8.31055,-6.65039 -4.10156,-7.24024 1.26172,-12.18945 7.53906,-13.74023 1.90039,-10.70899 15.16016,-9.25977 -1.84961,-9.89062 -5.22071,-8.7793 5.54883,-6.99023 -13.77929,0.67969 -10.44922,-11.66993 -8.79102,3.08008 -8.24023,-4.62109 -7.75,-7.26953 -12.76953,-1.46875 -2.82032,13.10937 -8.02929,8.33985 -12.1211,-11.96094 -8.14844,-7.68945 -7.64062,-5.84961 -12.230469,-8.5293 -8.208984,1.63867 L 71.390625,131.57031 68.279297,121.25 52.720703,115.93945 41.830078,101.31055 Z"
     style="display:inline;stroke:#fe0000;stroke-opacity:1;fill:none;stroke-width:3;stroke-dasharray:none" />
  <path
     id="path18"
     sodipodi:type="inkscape:offset"
     inkscape:radius="0"
     inkscape:original="M 65.410156 1.5703125 L 51.820312 8.2890625 L 44.880859 8.8808594 L 32.789062 6.1894531 L 25.310547 5.9902344 L 15.039062 5.7109375 L 2.0703125 7.7792969 L 7.109375 13.039062 L 4.9609375 24.599609 L 6.2109375 37.310547 L 1.75 41.230469 L 7.6894531 54.460938 L 7.0996094 61.019531 L 4.5605469 76.769531 L 2.8300781 88.560547 L 8.2109375 91.240234 L 1.1992188 105.33008 L 11.349609 96.630859 L 27.039062 93 L 41.830078 101.31055 L 52.720703 115.93945 L 68.279297 121.25 L 71.390625 131.57031 L 85.810547 134.26953 L 94.019531 132.63086 L 106.25 141.16016 L 113.89062 147.00977 L 122.03906 154.69922 L 134.16016 166.66016 L 142.18945 158.32031 L 145.00977 145.21094 L 157.7793 146.67969 L 165.5293 153.94922 L 173.76953 158.57031 L 182.56055 155.49023 L 193.00977 167.16016 L 193.64062 152.11914 L 206.24023 145.34961 L 213.16992 138.86914 L 204.78906 124.23047 L 211.89062 112.11914 L 205.36914 103 L 202.7207 94.480469 L 188.41016 98.75 L 178.73047 82.830078 L 192.59961 75.539062 L 187.08008 63.699219 L 185.35938 52.720703 L 191.69922 45.310547 L 192.11914 33.050781 L 193.64062 22.019531 L 182.60938 15.169922 L 184.08984 8.2402344 L 175.7207 3.3007812 L 167.81055 4.6699219 L 154.2207 4.7207031 L 147.26953 8.6503906 L 135.7207 3.8007812 L 124.96094 4.0195312 L 112.38086 7.3203125 L 104.93945 6.9707031 L 94.070312 3.2695312 L 82.320312 6.8398438 L 73.839844 2.109375 L 65.410156 1.5703125 z "
     d="M 65.410156,1.5703125 51.820312,8.2890625 44.880859,8.8808594 32.789062,6.1894531 25.310547,5.9902344 15.039062,5.7109375 2.0703125,7.7792969 7.109375,13.039062 4.9609375,24.599609 l 1.25,12.710938 L 1.75,41.230469 7.6894531,54.460938 7.0996094,61.019531 4.5605469,76.769531 2.8300781,88.560547 8.2109375,91.240234 1.1992188,105.33008 11.349609,96.630859 27.039062,93 l 14.791016,8.31055 10.890625,14.6289 15.558594,5.31055 3.111328,10.32031 14.419922,2.69922 8.208984,-1.63867 12.230469,8.5293 7.64062,5.84961 8.14844,7.68945 12.1211,11.96094 8.02929,-8.33985 2.82032,-13.10937 12.76953,1.46875 7.75,7.26953 8.24023,4.62109 8.79102,-3.08008 10.44922,11.66993 0.63085,-15.04102 12.59961,-6.76953 6.92969,-6.48047 -8.38086,-14.63867 7.10156,-12.11133 L 205.36914,103 202.7207,94.480469 188.41016,98.75 l -9.67969,-15.919922 13.86914,-7.291016 -5.51953,-11.839843 -1.7207,-10.978516 6.33984,-7.410156 0.41992,-12.259766 1.52148,-11.03125 -11.03124,-6.849609 1.48046,-6.9296876 -8.36914,-4.9394532 -7.91015,1.3691407 -13.58985,0.050781 -6.95117,3.9296875 -11.54883,-4.8496094 -10.75976,0.21875 -12.58008,3.3007813 -7.44141,-0.3496094 -10.869138,-3.7011719 -11.75,3.5703126 -8.480468,-4.7304688 z"
     style="display:inline;stroke:#fe0000;stroke-opacity:1;fill:none;stroke-width:3;stroke-dasharray:none" />
</svg>
